<?xml version="1.0" standalone="no"?>
<!DOCTYPE svg PUBLIC "-//W3C//DTD SVG 1.1//EN" "http://www.w3.org/Graphics/SVG/1.1/DTD/svg11.dtd">
<svg width="100%" height="100%" viewBox="0 0 417 417" version="1.1" xmlns="http://www.w3.org/2000/svg" xmlns:xlink="http://www.w3.org/1999/xlink" xml:space="preserve" style="fill-rule:evenodd;clip-rule:evenodd;stroke-linejoin:round;stroke-miterlimit:1.41421;">
    <g transform="matrix(4.16667,0,0,4.16667,-0,-0)">
        <path d="M19.985,35L49.986,20.014L79.987,35L79.97,36.981L49.986,51.985L19.997,37.005L19.985,35L19.985,35Z" style="fill:rgb(239,199,94);fill-rule:nonzero;"/>
        <path d="M19.986,35L49.963,49.999L79.986,35L79.986,65L49.877,80L19.986,65L19.986,35L19.986,35Z" style="fill:rgb(231,191,85);fill-rule:nonzero;"/>
        <path d="M49.986,79.945L49.986,49.987L49.963,49.999L19.986,35L19.986,65L49.877,80L49.986,79.945Z" style="fill:rgb(219,181,81);fill-rule:nonzero;"/>
        <path d="M61.99,43.991L61.99,52.783L64.668,52.999L66.375,50.966L67.982,51.219L67.982,40.997L61.99,43.991Z" style="fill:rgb(241,217,153);fill-rule:nonzero;"/>
        <path d="M31.967,29.015L62.477,44.294L67.979,41.034L37.979,26.011L31.967,29.015Z" style="fill:rgb(247,227,175);fill-rule:nonzero;"/>
        <path d="M43.979,63.122L33.995,58.112C33.444,57.835 32.997,58.172 32.997,58.863L32.997,65.124C32.997,65.816 33.444,66.602 33.995,66.878L43.979,71.888C44.53,72.164 44.977,71.827 44.977,71.136L44.977,64.875C44.977,64.184 44.529,63.398 43.979,63.122L43.979,63.122ZM41.482,68.131L35.492,65.124C35.217,64.986 34.993,64.594 34.993,64.248C34.993,63.902 35.217,63.734 35.492,63.872L41.482,66.878C41.757,67.017 41.981,67.409 41.981,67.755C41.981,68.101 41.758,68.269 41.482,68.131L41.482,68.131ZM42.48,66.127L35.492,62.62C35.217,62.481 34.993,62.089 34.993,61.743C34.993,61.397 35.217,61.229 35.492,61.367L42.48,64.875C42.756,65.013 42.979,65.406 42.979,65.751C42.979,66.097 42.757,66.266 42.48,66.127L42.48,66.127Z" style="fill:rgb(242,242,242);fill-rule:nonzero;"/>
    </g>
</svg>
