<?xml version="1.0" encoding="utf-8"?>
<!-- Generator: Adobe Illustrator 19.0.0, SVG Export Plug-In . SVG Version: 6.00 Build 0)  -->
<svg version="1.1" id="Layer_1" xmlns="http://www.w3.org/2000/svg" xmlns:xlink="http://www.w3.org/1999/xlink" x="0px" y="0px"
	 width="90.7px" height="95.7px" viewBox="4.6 -9.8 90.7 95.7" style="enable-background:new 4.6 -9.8 90.7 95.7;"
	 xml:space="preserve">
<style type="text/css">
	.st0{fill:#C09F80;}
</style>
<title>Artboard 31</title>
<path class="st0" d="M41.8,23.6l10.3-7h11.5c2.1,0,3.8-1.7,3.8-3.8v0V-6c0-2.1-1.7-3.8-3.8-3.8l0,0H37c-2.1,0-3.8,1.7-3.8,3.8v18.8
	c0,2.1,1.7,3.8,3.8,3.8h3.6V23c0,0.4,0.4,0.8,0.8,0.8C41.5,23.8,41.7,23.7,41.8,23.6z M54.6-2.1c1.3,0,2.4,1.1,2.4,2.3
	s-1.1,2.4-2.3,2.4c-1.3,0-2.4-1.1-2.4-2.3v0C52.2-1,53.3-2.1,54.6-2.1z M46.9-2.1c1.3,0,2.4,1.1,2.4,2.3s-1.1,2.4-2.3,2.4
	c-1.3,0-2.4-1.1-2.4-2.3v0C44.6-1,45.6-2.1,46.9-2.1z M43.9,5.1c0.8-0.2,2.3,1.1,6.8,1.1s6-1.3,6.8-1.1S55.7,10,50.8,10
	S43.2,5.3,43.9,5.1L43.9,5.1z M95.3,77.2v8.6H4.6v-8.1c0.2-2.3,1.6-4.2,3.7-5.2c1.7-0.8,3.5-1.5,5.4-2c2.9-0.8,5.8-1.8,8.6-3
	l0.2-0.1c0.6-0.4,0.9-1,0.9-1.7v-3.5c-9.1,0.1-11.8-3.8-11.8-3.8s5.2-0.1,4.9-13.8s6-16,8.4-16.9c6.9-2.6,10.3,1.5,10.3,1.5
	c8-0.7,10.1,8,9.2,17.9s4.5,11.4,4.5,11.4c-3.8,3.8-11.6,3.6-11.6,3.6V63l0,0v2.6c0,0.7,0.3,1.3,0.9,1.7l0.2,0.2
	c1.1,0.5,2.2,1,3.3,1.4c4.1-2.9,8.4-5.5,12.9-7.7c0.2-0.1,0.3-0.3,0.3-0.5v-5.9c-0.9-1.5-1.4-3.1-1.7-4.8c-0.7,0-1.5-1-2.5-4.3
	c-1.3-4.5,0.1-5.2,1.2-5.1c-0.2-0.6-0.4-1.2-0.5-1.9l0,0c-0.5-2-0.5-4,0-6c0.6-2.3,1.8-4.4,3.5-6.1c1-1,2-1.9,3.2-2.6
	c1-0.7,2-1.2,3.1-1.6l0,0c0.9-0.3,1.9-0.5,2.9-0.5c2.5-0.3,5,0.3,7.2,1.5c1.4,0.7,2.6,1.9,3.5,3.2c0,0,5.8,0.4,3.8,12.1
	c-0.1,0.6-0.3,1.3-0.5,1.9c1.2-0.1,2.5,0.6,1.2,5.1C78.3,49,77.4,50,76.8,50c-0.3,1.6-0.9,3.2-1.7,4.7v6c0,0.2,0.1,0.4,0.3,0.5
	c6.3,3.2,12.3,7,17.8,11.4C94.6,73.7,95.4,75.4,95.3,77.2L95.3,77.2z"/>
</svg>
