<?xml version="1.0" encoding="utf-8"?>
<!-- Generator: Adobe Illustrator 19.0.0, SVG Export Plug-In . SVG Version: 6.00 Build 0)  -->
<svg version="1.1" id="Layer_1" xmlns="http://www.w3.org/2000/svg" xmlns:xlink="http://www.w3.org/1999/xlink" x="0px" y="0px"
	 width="336.2px" height="111.9px" viewBox="-81 195.1 336.2 111.9" style="enable-background:new -81 195.1 336.2 111.9;"
	 xml:space="preserve">
<style type="text/css">
	.st0{fill:#EF3158;}
	.st1{fill:#FFFFFF;}
	.st2{font-family:'TwCenMT-Regular';}
	.st3{font-size:38.9041px;}
</style>
<rect id="XMLID_19_" x="-66.9" y="205.8" class="st0" width="95.3" height="95.6"/>
<path id="XMLID_8_" class="st1" d="M-32.5,229.1"/>
<path id="XMLID_9_" class="st1" d="M-32.6,237.4"/>
<path id="XMLID_4_" d="M-42.1,236.5L-42.1,236.5"/>
<path id="XMLID_17_" class="st1" d="M-48.4,245.1"/>
<path id="XMLID_6_" class="st1" d="M1.1,272.6H-9.4v-50.5h7.3c1.7,0,3,1.4,3,3.2L1.1,272.6L1.1,272.6z"/>
<g id="XMLID_5_">
	<g id="XMLID_41_">
		<path id="XMLID_42_" class="st1" d="M-24.4,222.1c-2.4,0-4.5,0.5-6.4,1.4c-2,1-3.6,2.3-4.9,4c-1.3,1.7-2.4,3.8-3.1,6
			c-0.8,2.3-1.1,4.8-1.1,7.3c0,2.7,0.4,5.1,1.1,7.4c0.7,2.3,1.8,4.4,3.2,6.1c1.3,1.8,3,3.1,5,4.1c2,1,4.2,1.5,6.7,1.5
			c2,0,0,0,10.2-0.2v-37.9C-13.7,222.1-23.6,222.1-24.4,222.1z"/>
	</g>
</g>
<path id="XMLID_7_" class="st1" d="M-35,267.7L-35,267.7c3.3,0,6,1.9,6,5v5h-4.4c-3.3,0-6-2.7-6-5.8l0,0
	C-39.4,269.7-37.5,267.7-35,267.7z"/>
<path id="XMLID_20_" class="st1" d="M-29.1,271.9c0,5.3,4.4,9.5,9.8,9.5c5.4,0,9.8-4.3,9.8-9.6H1.1c0,10.8-9,19.5-20.3,19.5
	c-11.1,0-20.2-8.7-20.3-19.4H-29.1z"/>
<g>
	<path id="XMLID_10_" class="st0" d="M-21.8,229.8c5.1-4.6,9.7,3.1,8.9,7.2C-18.2,239-25.1,235.4-21.8,229.8z M-15.3,235.1
		c0.3-2.7-2.9-4.9-4.2-3.3C-20.5,233.4-18.4,235.9-15.3,235.1z"/>
	<polygon id="XMLID_3_" class="st0" points="-12.1,239.4 -9,236.9 -1.1,246.9 -4.1,249.3 	"/>
	<g id="XMLID_2_">
		<g id="XMLID_40_">
			<rect id="XMLID_43_" x="-40.3" y="237.3" class="st0" width="41.5" height="4.1"/>
		</g>
	</g>
	<path id="XMLID_13_" class="st0" d="M-9.7,237.2c-0.8-4.1,3.8-12,9-7.3C2.9,235.4-4.2,239.1-9.7,237.2z M-2.9,232
		c-1.3-1.7-4.4,0.7-4.2,3.3C-4,235.9-1.9,233.4-2.9,232z"/>
	<polygon id="XMLID_16_" class="st0" points="-19.3,249 -22.1,246 -13.1,236.9 -10.3,239.9 	"/>
</g>
<text transform="matrix(1 0 0 1 37.0283 267.7307)" class="st0 st2 st3">IVE FOR FREE</text>
</svg>
