<?xml version="1.0" encoding="utf-8"?>
<!-- Generator: Adobe Illustrator 19.0.0, SVG Export Plug-In . SVG Version: 6.00 Build 0)  -->
<svg version="1.1" id="Layer_1" xmlns="http://www.w3.org/2000/svg" xmlns:xlink="http://www.w3.org/1999/xlink" x="0px" y="0px"
	 width="336.2px" height="111.9px" viewBox="-343 457.1 336.2 111.9" style="enable-background:new -343 457.1 336.2 111.9;"
	 xml:space="preserve">
<style type="text/css">
	.st0{fill:#C09F80;}
	.st1{fill:#FFFFFF;}
	.st2{enable-background:new    ;}
</style>
<rect id="XMLID_19_" x="-332.4" y="465.2" class="st0" width="95.3" height="95.6"/>
<path id="XMLID_8_" class="st1" d="M-298,488.6"/>
<path id="XMLID_9_" class="st1" d="M-298.1,496.8"/>
<path id="XMLID_4_" d="M-307.6,496L-307.6,496"/>
<path id="XMLID_17_" class="st1" d="M-313.9,504.6"/>
<path id="XMLID_6_" class="st1" d="M-264.4,532h-10.5v-50.5h7.3c1.7,0,3,1.4,3,3.2L-264.4,532L-264.4,532z"/>
<g id="XMLID_5_">
	<g id="XMLID_41_">
		<path id="XMLID_42_" class="st1" d="M-289.9,481.6c-2.4,0-4.5,0.5-6.4,1.4c-2,1-3.6,2.3-4.9,4s-2.4,3.8-3.1,6
			c-0.8,2.3-1.1,4.8-1.1,7.3c0,2.7,0.4,5.1,1.1,7.4c0.7,2.3,1.8,4.4,3.2,6.1c1.3,1.8,3,3.1,5,4.1s4.2,1.5,6.7,1.5c2,0,0,0,10.2-0.2
			v-38C-279.2,481.6-289.1,481.6-289.9,481.6z"/>
	</g>
</g>
<path id="XMLID_7_" class="st1" d="M-300.5,527.2L-300.5,527.2c3.3,0,6,1.9,6,5v5h-4.4c-3.3,0-6-2.7-6-5.8l0,0
	C-304.9,529.2-303,527.2-300.5,527.2z"/>
<path id="XMLID_20_" class="st1" d="M-294.6,531.2c0,5.3,4.4,9.5,9.8,9.5c5.4,0,9.8-4.3,9.8-9.6h10.6c0,10.8-9,19.5-20.3,19.5
	c-11.1,0-20.2-8.7-20.3-19.4H-294.6z"/>
<g>
	<path id="XMLID_10_" class="st0" d="M-287.3,489.2c5.1-4.6,9.7,3.1,8.9,7.2C-283.7,498.5-290.6,494.8-287.3,489.2z M-280.8,494.6
		c0.3-2.7-2.9-4.9-4.2-3.3C-286,492.8-283.9,495.2-280.8,494.6z"/>
	<polygon id="XMLID_3_" class="st0" points="-277.6,498.8 -274.5,496.2 -266.6,506.2 -269.6,508.8 	"/>
	<g id="XMLID_2_">
		<g id="XMLID_40_">
			<rect id="XMLID_43_" x="-305.8" y="496.8" class="st0" width="41.5" height="4.1"/>
		</g>
	</g>
	<path id="XMLID_13_" class="st0" d="M-275.2,496.6c-0.8-4.1,3.8-12,9-7.3C-262.6,494.8-269.7,498.6-275.2,496.6z M-268.4,491.5
		c-1.3-1.7-4.4,0.7-4.2,3.3C-269.5,495.2-267.4,492.8-268.4,491.5z"/>
	<polygon id="XMLID_16_" class="st0" points="-284.8,508.5 -287.6,505.5 -278.6,496.2 -275.8,499.2 	"/>
</g>
<g class="st2">
	<path class="st0" d="M-226,503h3.3v24.2h-3.3V503z"/>
	<path class="st0" d="M-219.4,503h3.5l7.6,17.1l7.7-17.1h3.5l-11.2,25L-219.4,503z"/>
	<path class="st0" d="M-194.1,503h13.4v3.3h-10.1v6h10.1v3.3h-10.1v8.3h10.1v3.3h-13.4V503z"/>
	<path class="st0" d="M-166.4,503h13.4v3.3h-10.1v6h10.1v3.3h-10.1v11.6h-3.3V503z"/>
	<path class="st0" d="M-150.1,514.9c0-3.5,1.3-6.5,4-9c2.6-2.5,5.8-3.7,9.5-3.7c3.6,0,6.7,1.3,9.3,3.8c2.6,2.5,3.9,5.5,3.9,8.9
		c0,3.7-1.3,6.7-3.9,9.3c-2.6,2.5-5.7,3.8-9.5,3.8c-3.7,0-6.8-1.3-9.4-3.8C-148.8,521.5-150.1,518.5-150.1,514.9z M-126.9,515
		c0-2.7-1-4.9-2.9-6.7s-4.3-2.7-7.1-2.7c-2.7,0-5,0.9-6.9,2.8s-2.9,4.1-2.9,6.7c0,2.6,1,4.9,2.9,6.7c2,1.8,4.4,2.7,7.2,2.7
		c2.6,0,4.9-0.9,6.8-2.8C-127.8,519.9-126.9,517.7-126.9,515z"/>
	<path class="st0" d="M-118.6,503h5.2c2.6,0,4.7,0.6,6.4,1.9c1.6,1.3,2.5,3,2.5,5c0,1.6-0.5,3.1-1.6,4.3s-2.7,2.1-5,2.6l7,10.4h-3.8
		l-6.7-10h-0.7v10h-3.3V503z M-115.2,505.9v8.4c4.9,0.1,7.3-1.3,7.3-4.2c0-1-0.3-1.9-0.9-2.5c-0.6-0.7-1.3-1.1-2.3-1.3
		C-112,506-113.4,505.9-115.2,505.9z"/>
	<path class="st0" d="M-89.1,503h13.4v3.3h-10.1v6h10.1v3.3h-10.1v11.6h-3.3V503z"/>
	<path class="st0" d="M-71.3,503h5.2c2.6,0,4.7,0.6,6.4,1.9c1.6,1.3,2.5,3,2.5,5c0,1.6-0.5,3.1-1.6,4.3s-2.7,2.1-5,2.6l7,10.4h-3.8
		l-6.7-10H-68v10h-3.3V503z M-68,505.9v8.4c4.9,0.1,7.3-1.3,7.3-4.2c0-1-0.3-1.9-0.9-2.5c-0.6-0.7-1.3-1.1-2.3-1.3
		C-64.8,506-66.2,505.9-68,505.9z"/>
	<path class="st0" d="M-52.7,503h13.4v3.3h-10.1v6h10.1v3.3h-10.1v8.3h10.1v3.3h-13.4V503z"/>
	<path class="st0" d="M-35.6,503h13.4v3.3h-10.1v6h10.1v3.3h-10.1v8.3h10.1v3.3h-13.4V503z"/>
</g>
</svg>
