<?xml version="1.0" encoding="utf-8"?>
<!-- Generator: Adobe Illustrator 19.0.0, SVG Export Plug-In . SVG Version: 6.00 Build 0)  -->
<svg version="1.1" id="Layer_1" xmlns="http://www.w3.org/2000/svg" xmlns:xlink="http://www.w3.org/1999/xlink" x="0px" y="0px"
	 width="336.2px" height="111.9px" viewBox="118 -5.9 336.2 111.9" style="enable-background:new 118 -5.9 336.2 111.9;"
	 xml:space="preserve">
<style type="text/css">
	.st0{fill:#994458;}
	.st1{fill:#FFFFFF;}
	.st2{font-family:'TwCenMT-Regular';}
	.st3{font-size:38.9041px;}
</style>
<rect id="XMLID_19_" x="126.6" y="2.3" class="st0" width="95.3" height="95.6"/>
<path id="XMLID_8_" class="st1" d="M161,25.6"/>
<path id="XMLID_9_" class="st1" d="M160.9,33.8"/>
<path id="XMLID_4_" d="M151.4,33L151.4,33"/>
<path id="XMLID_17_" class="st1" d="M145.1,41.6"/>
<path id="XMLID_6_" class="st1" d="M194.6,69.1h-10.5V18.6h7.3c1.7,0,3,1.4,3,3.2L194.6,69.1L194.6,69.1z"/>
<g id="XMLID_5_">
	<g id="XMLID_41_">
		<path id="XMLID_42_" class="st1" d="M169.1,18.6c-2.4,0-4.5,0.5-6.4,1.4c-2,1-3.6,2.3-4.9,4s-2.4,3.8-3.1,6
			c-0.8,2.3-1.1,4.8-1.1,7.3c0,2.7,0.4,5.1,1.1,7.4c0.7,2.3,1.8,4.4,3.2,6.1c1.3,1.8,3,3.1,5,4.1s4.2,1.5,6.7,1.5c2,0,0,0,10.2-0.2
			V18.2C179.8,18.6,169.9,18.6,169.1,18.6z"/>
	</g>
</g>
<path id="XMLID_7_" class="st1" d="M158.5,64.2L158.5,64.2c3.3,0,6,1.9,6,5v5h-4.4c-3.3,0-6-2.7-6-5.8l0,0
	C154.1,66.2,156,64.2,158.5,64.2z"/>
<path id="XMLID_20_" class="st1" d="M164.4,68.3c0,5.3,4.4,9.5,9.8,9.5c5.4,0,9.8-4.3,9.8-9.6h10.6c0,10.8-9,19.5-20.3,19.5
	c-11.1,0-20.2-8.7-20.3-19.4H164.4z"/>
<g>
	<path id="XMLID_10_" class="st0" d="M171.7,26.3c5.1-4.6,9.7,3.1,8.9,7.2C175.3,35.5,168.4,31.8,171.7,26.3z M178.2,31.6
		c0.3-2.7-2.9-4.9-4.2-3.3C173,29.8,175.1,32.3,178.2,31.6z"/>
	<polygon id="XMLID_3_" class="st0" points="181.4,35.8 184.5,33.3 192.4,43.3 189.4,45.8 	"/>
	<g id="XMLID_2_">
		<g id="XMLID_40_">
			<rect id="XMLID_43_" x="153.2" y="33.8" class="st0" width="41.5" height="4.1"/>
		</g>
	</g>
	<path id="XMLID_13_" class="st0" d="M183.8,33.7c-0.8-4.1,3.8-12,9-7.3C196.4,31.8,189.3,35.6,183.8,33.7z M190.6,28.5
		c-1.3-1.7-4.4,0.7-4.2,3.3C189.5,32.3,191.6,29.8,190.6,28.5z"/>
	<polygon id="XMLID_16_" class="st0" points="174.2,45.5 171.4,42.5 180.4,33.3 183.2,36.3 	"/>
</g>
<text transform="matrix(1 0 0 1 230.5722 64.1807)" class="st0 st2 st3">IVE FOR FREE</text>
</svg>
