<?xml version="1.0" encoding="utf-8"?>
<!-- Generator: Adobe Illustrator 19.0.0, SVG Export Plug-In . SVG Version: 6.00 Build 0)  -->
<svg version="1.1" id="Layer_1" xmlns="http://www.w3.org/2000/svg" xmlns:xlink="http://www.w3.org/1999/xlink" x="0px" y="0px"
	 width="115px" height="111.9px" viewBox="118 -5.9 115 111.9" style="enable-background:new 118 -5.9 115 111.9;"
	 xml:space="preserve">
<style type="text/css">
	.st0{fill:#994458;}
	.st1{fill:#FFFFFF;}
</style>
<rect id="XMLID_19_" x="127.6" y="2.2" class="st0" width="95.3" height="95.6"/>
<path id="XMLID_8_" class="st1" d="M162,25.5"/>
<path id="XMLID_9_" class="st1" d="M161.9,33.7"/>
<path id="XMLID_4_" d="M152.4,32.9L152.4,32.9"/>
<path id="XMLID_17_" class="st1" d="M146.1,41.5"/>
<path id="XMLID_6_" class="st1" d="M195.6,69h-10.5V18.5h7.3c1.7,0,3,1.4,3,3.2L195.6,69L195.6,69z"/>
<g id="XMLID_5_">
	<g id="XMLID_41_">
		<path id="XMLID_42_" class="st1" d="M170.1,18.5c-2.4,0-4.5,0.5-6.4,1.4c-2,1-3.6,2.3-4.9,4s-2.4,3.8-3.1,6
			c-0.8,2.3-1.1,4.8-1.1,7.3c0,2.7,0.4,5.1,1.1,7.4c0.7,2.3,1.8,4.4,3.2,6.1c1.3,1.8,3,3.1,5,4.1s4.2,1.5,6.7,1.5c2,0,0,0,10.2-0.2
			v-38C180.8,18.5,170.9,18.5,170.1,18.5z"/>
	</g>
</g>
<path id="XMLID_7_" class="st1" d="M159.5,64.1L159.5,64.1c3.3,0,6,1.9,6,5v5h-4.4c-3.3,0-6-2.7-6-5.8l0,0
	C155.1,66.1,157,64.1,159.5,64.1z"/>
<path id="XMLID_20_" class="st1" d="M165.4,68.2c0,5.3,4.4,9.5,9.8,9.5c5.4,0,9.8-4.3,9.8-9.6h10.6c0,10.8-9,19.5-20.3,19.5
	c-11.1,0-20.2-8.7-20.3-19.4H165.4z"/>
<g>
	<path id="XMLID_10_" class="st0" d="M172.7,26.2c5.1-4.6,9.7,3.1,8.9,7.2C176.3,35.4,169.4,31.7,172.7,26.2z M179.2,31.5
		c0.3-2.7-2.9-4.9-4.2-3.3C174,29.7,176.1,32.2,179.2,31.5z"/>
	<polygon id="XMLID_3_" class="st0" points="182.4,35.7 185.5,33.2 193.4,43.2 190.4,45.7 	"/>
	<g id="XMLID_2_">
		<g id="XMLID_40_">
			<rect id="XMLID_43_" x="154.2" y="33.7" class="st0" width="41.5" height="4.1"/>
		</g>
	</g>
	<path id="XMLID_13_" class="st0" d="M184.8,33.6c-0.8-4.1,3.8-12,9-7.3C197.4,31.7,190.3,35.5,184.8,33.6z M191.6,28.4
		c-1.3-1.7-4.4,0.7-4.2,3.3C190.5,32.2,192.6,29.7,191.6,28.4z"/>
	<polygon id="XMLID_16_" class="st0" points="175.2,45.4 172.4,42.4 181.4,33.2 184.2,36.2 	"/>
</g>
</svg>
