<?xml version="1.0" encoding="utf-8"?>
<!-- Generator: Adobe Illustrator 19.0.0, SVG Export Plug-In . SVG Version: 6.00 Build 0)  -->
<svg version="1.1" id="Layer_1" xmlns="http://www.w3.org/2000/svg" xmlns:xlink="http://www.w3.org/1999/xlink" x="0px" y="0px"
	 width="336.2px" height="111.9px" viewBox="118 -5.9 336.2 111.9" style="enable-background:new 118 -5.9 336.2 111.9;"
	 xml:space="preserve">
<style type="text/css">
	.st0{fill:#994458;}
	.st1{fill:#FFFFFF;}
	.st2{enable-background:new    ;}
</style>
<rect id="XMLID_19_" x="125.6" y="2.7" class="st0" width="95.3" height="95.6"/>
<path id="XMLID_8_" class="st1" d="M160,26"/>
<path id="XMLID_9_" class="st1" d="M159.9,34.2"/>
<path id="XMLID_4_" d="M150.4,33.4L150.4,33.4"/>
<path id="XMLID_17_" class="st1" d="M144.1,42"/>
<path id="XMLID_6_" class="st1" d="M193.6,69.5h-10.5V19h7.3c1.7,0,3,1.4,3,3.2L193.6,69.5L193.6,69.5z"/>
<g id="XMLID_5_">
	<g id="XMLID_41_">
		<path id="XMLID_42_" class="st1" d="M168.1,19c-2.4,0-4.5,0.5-6.4,1.4c-2,1-3.6,2.3-4.9,4s-2.4,3.8-3.1,6
			c-0.8,2.3-1.1,4.8-1.1,7.3c0,2.7,0.4,5.1,1.1,7.4c0.7,2.3,1.8,4.4,3.2,6.1c1.3,1.8,3,3.1,5,4.1s4.2,1.5,6.7,1.5c2,0,0,0,10.2-0.2
			v-38C178.8,19,168.9,19,168.1,19z"/>
	</g>
</g>
<path id="XMLID_7_" class="st1" d="M157.5,64.6L157.5,64.6c3.3,0,6,1.9,6,5v5h-4.4c-3.3,0-6-2.7-6-5.8l0,0
	C153.1,66.6,155,64.6,157.5,64.6z"/>
<path id="XMLID_20_" class="st1" d="M163.4,68.7c0,5.3,4.4,9.5,9.8,9.5c5.4,0,9.8-4.3,9.8-9.6h10.6c0,10.8-9,19.5-20.3,19.5
	c-11.1,0-20.2-8.7-20.3-19.4H163.4z"/>
<g>
	<path id="XMLID_10_" class="st0" d="M170.7,26.7c5.1-4.6,9.7,3.1,8.9,7.2C174.3,35.9,167.4,32.2,170.7,26.7z M177.2,32
		c0.3-2.7-2.9-4.9-4.2-3.3C172,30.2,174.1,32.7,177.2,32z"/>
	<polygon id="XMLID_3_" class="st0" points="180.4,36.2 183.5,33.7 191.4,43.7 188.4,46.2 	"/>
	<g id="XMLID_2_">
		<g id="XMLID_40_">
			<rect id="XMLID_43_" x="152.2" y="34.2" class="st0" width="41.5" height="4.1"/>
		</g>
	</g>
	<path id="XMLID_13_" class="st0" d="M182.8,34.1c-0.8-4.1,3.8-12,9-7.3C195.4,32.2,188.3,36,182.8,34.1z M189.6,28.9
		c-1.3-1.7-4.4,0.7-4.2,3.3C188.5,32.7,190.6,30.2,189.6,28.9z"/>
	<polygon id="XMLID_16_" class="st0" points="173.2,45.9 170.4,42.9 179.4,33.7 182.2,36.7 	"/>
</g>
<g class="st2">
	<path class="st0" d="M232,40.4h3.3v24.2H232V40.4z"/>
	<path class="st0" d="M238.6,40.4h3.5l7.6,17.1l7.7-17.1h3.5l-11.2,25L238.6,40.4z"/>
	<path class="st0" d="M263.9,40.4h13.4v3.3h-10.1v6h10.1V53h-10.1v8.3h10.1v3.3h-13.4V40.4z"/>
	<path class="st0" d="M291.6,40.4H305v3.3h-10.1v6H305V53h-10.1v11.6h-3.3V40.4z"/>
	<path class="st0" d="M307.9,52.3c0-3.5,1.3-6.5,4-9c2.6-2.5,5.8-3.7,9.5-3.7c3.6,0,6.7,1.3,9.3,3.8c2.6,2.5,3.9,5.5,3.9,8.9
		c0,3.7-1.3,6.7-3.9,9.3c-2.6,2.5-5.7,3.8-9.5,3.8c-3.7,0-6.8-1.3-9.4-3.8C309.2,59,307.9,56,307.9,52.3z M331.1,52.5
		c0-2.7-1-4.9-2.9-6.7s-4.3-2.7-7.1-2.7c-2.7,0-5,0.9-6.9,2.8c-1.9,1.9-2.9,4.1-2.9,6.7c0,2.6,1,4.9,2.9,6.7c2,1.8,4.4,2.7,7.2,2.7
		c2.6,0,4.9-0.9,6.8-2.8C330.2,57.3,331.1,55.1,331.1,52.5z"/>
	<path class="st0" d="M339.4,40.4h5.2c2.6,0,4.7,0.6,6.4,1.9c1.6,1.3,2.5,3,2.5,5c0,1.6-0.5,3.1-1.6,4.3c-1.1,1.2-2.7,2.1-5,2.6
		l7,10.4h-3.8l-6.7-10h-0.7v10h-3.3V40.4z M342.8,43.3v8.4c4.9,0.1,7.3-1.3,7.3-4.2c0-1-0.3-1.9-0.9-2.5c-0.6-0.7-1.3-1.1-2.3-1.3
		C346,43.4,344.6,43.3,342.8,43.3z"/>
	<path class="st0" d="M368.9,40.4h13.4v3.3h-10.1v6h10.1V53h-10.1v11.6h-3.3V40.4z"/>
	<path class="st0" d="M386.7,40.4h5.2c2.6,0,4.7,0.6,6.4,1.9c1.6,1.3,2.5,3,2.5,5c0,1.6-0.5,3.1-1.6,4.3c-1.1,1.2-2.7,2.1-5,2.6
		l7,10.4h-3.8l-6.7-10H390v10h-3.3V40.4z M390,43.3v8.4c4.9,0.1,7.3-1.3,7.3-4.2c0-1-0.3-1.9-0.9-2.5c-0.6-0.7-1.3-1.1-2.3-1.3
		C393.2,43.4,391.8,43.3,390,43.3z"/>
	<path class="st0" d="M405.3,40.4h13.4v3.3h-10.1v6h10.1V53h-10.1v8.3h10.1v3.3h-13.4V40.4z"/>
	<path class="st0" d="M422.4,40.4h13.4v3.3h-10.1v6h10.1V53h-10.1v8.3h10.1v3.3h-13.4V40.4z"/>
</g>
</svg>
