<?xml version="1.0" encoding="utf-8"?>
<!-- Generator: Adobe Illustrator 19.0.0, SVG Export Plug-In . SVG Version: 6.00 Build 0)  -->
<svg version="1.1" id="Layer_1" xmlns="http://www.w3.org/2000/svg" xmlns:xlink="http://www.w3.org/1999/xlink" x="0px" y="0px"
	 width="115px" height="111.9px" viewBox="-454 457.1 115 111.9" style="enable-background:new -454 457.1 115 111.9;"
	 xml:space="preserve">
<style type="text/css">
	.st0{fill:#C09F80;}
	.st1{fill:#FFFFFF;}
</style>
<rect id="XMLID_19_" x="-444.1" y="465.2" class="st0" width="95.3" height="95.6"/>
<path id="XMLID_8_" class="st1" d="M-409.8,488.6"/>
<path id="XMLID_9_" class="st1" d="M-409.9,496.8"/>
<path id="XMLID_4_" d="M-419.4,496L-419.4,496"/>
<path id="XMLID_17_" class="st1" d="M-425.6,504.6"/>
<path id="XMLID_6_" class="st1" d="M-376.1,532h-10.5v-50.5h7.3c1.7,0,3,1.4,3,3.2L-376.1,532L-376.1,532z"/>
<g id="XMLID_5_">
	<g id="XMLID_41_">
		<path id="XMLID_42_" class="st1" d="M-401.6,481.6c-2.4,0-4.5,0.5-6.4,1.4c-2,1-3.6,2.3-4.9,4s-2.4,3.8-3.1,6
			c-0.8,2.3-1.1,4.8-1.1,7.3c0,2.7,0.4,5.1,1.1,7.4c0.7,2.3,1.8,4.4,3.2,6.1c1.3,1.8,3,3.1,5,4.1s4.2,1.5,6.7,1.5c2,0,0,0,10.2-0.2
			v-38C-391,481.6-400.9,481.6-401.6,481.6z"/>
	</g>
</g>
<path id="XMLID_7_" class="st1" d="M-412.2,527.2L-412.2,527.2c3.3,0,6,1.9,6,5v5h-4.4c-3.3,0-6-2.7-6-5.8l0,0
	C-416.6,529.2-414.8,527.2-412.2,527.2z"/>
<path id="XMLID_20_" class="st1" d="M-406.4,531.2c0,5.3,4.4,9.5,9.8,9.5c5.4,0,9.8-4.3,9.8-9.6h10.6c0,10.8-9,19.5-20.3,19.5
	c-11.1,0-20.2-8.7-20.3-19.4H-406.4z"/>
<g>
	<path id="XMLID_10_" class="st0" d="M-399,489.2c5.1-4.6,9.7,3.1,8.9,7.2C-395.5,498.5-402.4,494.8-399,489.2z M-392.5,494.6
		c0.3-2.7-2.9-4.9-4.2-3.3C-397.8,492.8-395.6,495.2-392.5,494.6z"/>
	<polygon id="XMLID_3_" class="st0" points="-389.4,498.8 -386.2,496.2 -378.4,506.2 -381.4,508.8 	"/>
	<g id="XMLID_2_">
		<g id="XMLID_40_">
			<rect id="XMLID_43_" x="-417.5" y="496.8" class="st0" width="41.5" height="4.1"/>
		</g>
	</g>
	<path id="XMLID_13_" class="st0" d="M-387,496.6c-0.8-4.1,3.8-12,9-7.3C-374.4,494.8-381.5,498.6-387,496.6z M-380.1,491.5
		c-1.3-1.7-4.4,0.7-4.2,3.3C-381.2,495.2-379.1,492.8-380.1,491.5z"/>
	<polygon id="XMLID_16_" class="st0" points="-396.5,508.5 -399.4,505.5 -390.4,496.2 -387.5,499.2 	"/>
</g>
</svg>
