<?xml version="1.0" encoding="UTF-8" ?>
<!DOCTYPE svg PUBLIC "-//W3C//DTD SVG 1.1//EN" "http://www.w3.org/Graphics/SVG/1.1/DTD/svg11.dtd">
<svg width="1000pt" height="1000pt" viewBox="0 0 1000 1000" version="1.1" xmlns="http://www.w3.org/2000/svg">
<g id="#0000000f">
<path fill="#000000" opacity="0.06" d=" M 455.01 0.00 L 480.25 0.00 C 477.79 2.65 475.00 5.20 473.69 8.66 C 472.10 12.46 472.23 16.66 471.47 20.65 C 470.49 25.44 468.21 29.83 465.87 34.09 C 459.92 33.62 453.94 34.11 447.98 33.73 C 448.98 27.82 451.14 22.07 450.94 16.00 C 450.83 10.41 452.34 4.89 455.01 0.00 Z" />
</g>
<g id="#0000001e">
<path fill="#000000" opacity="0.12" d=" M 480.25 0.00 L 516.83 0.00 C 520.39 2.46 523.66 5.71 525.14 9.87 C 526.17 13.15 526.33 16.63 527.06 19.98 C 527.97 25.05 530.49 29.59 532.28 34.37 C 510.42 34.16 488.54 34.58 466.68 34.16 L 465.87 34.09 C 468.21 29.83 470.49 25.44 471.47 20.65 C 472.23 16.66 472.10 12.46 473.69 8.66 C 475.00 5.20 477.79 2.65 480.25 0.00 Z" />
</g>
<g id="#00000010">
<path fill="#000000" opacity="0.06" d=" M 516.83 0.00 L 543.04 0.00 C 545.80 5.24 547.20 11.11 547.13 17.03 C 547.11 22.76 549.32 28.13 550.13 33.74 C 544.39 33.89 538.64 33.64 532.94 34.39 L 532.28 34.37 C 530.49 29.59 527.97 25.05 527.06 19.98 C 526.33 16.63 526.17 13.15 525.14 9.87 C 523.66 5.71 520.39 2.46 516.83 0.00 Z" />
<path fill="#000000" opacity="0.06" d=" M 962.00 459.68 C 968.35 461.77 974.61 464.18 981.14 465.70 C 987.27 467.53 993.70 466.85 1000.00 466.97 L 1000.00 486.23 C 993.69 488.47 986.93 486.38 980.95 484.10 C 974.31 481.64 968.28 477.92 962.00 474.71 C 962.00 471.70 961.99 468.69 962.00 465.69 C 961.99 463.68 961.99 461.68 962.00 459.68 Z" />
<path fill="#000000" opacity="0.06" d=" M 546.97 963.07 C 551.95 963.12 556.92 963.03 561.90 963.27 C 559.67 976.38 553.46 988.20 547.68 1000.00 L 534.00 1000.00 C 530.14 998.17 525.77 999.21 521.67 998.97 C 525.02 995.51 529.26 992.95 531.96 988.88 C 538.39 981.20 543.82 972.62 546.97 963.07 Z" />
</g>
<g id="#e2e2e2ff">
<path fill="#e2e2e2" opacity="1.00" d=" M 466.68 34.16 C 488.54 34.58 510.42 34.16 532.28 34.37 L 532.94 34.39 L 533.33 34.42 C 533.27 97.08 533.30 159.74 533.30 222.40 C 533.32 264.68 533.30 306.96 533.30 349.24 C 533.29 352.72 533.28 356.20 533.30 359.68 C 548.36 359.67 563.42 359.66 578.48 359.64 C 594.32 359.72 610.17 359.66 626.02 359.65 C 630.08 359.48 634.29 360.79 637.06 363.87 C 640.13 366.94 640.89 371.44 640.73 375.62 C 640.67 387.22 640.55 398.83 640.77 410.43 C 640.55 428.84 640.73 447.26 640.66 465.68 C 644.19 465.69 647.73 465.69 651.27 465.69 C 655.10 465.68 658.94 465.74 662.78 465.66 C 762.52 465.74 862.26 465.67 962.00 465.69 C 961.99 468.69 962.00 471.70 962.00 474.71 C 961.99 482.72 962.01 490.73 962.02 498.74 C 962.00 510.54 961.96 522.34 962.04 534.14 L 962.05 534.37 C 959.47 534.32 956.90 534.30 954.34 534.32 C 950.01 534.32 945.69 534.28 941.37 534.34 C 852.60 534.26 763.84 534.33 675.07 534.30 C 663.56 534.42 652.04 534.04 640.53 534.47 C 640.80 544.09 640.59 553.72 640.68 563.35 C 640.68 572.06 640.58 580.78 640.77 589.50 C 640.48 602.32 640.81 615.15 640.62 627.97 C 640.50 634.14 635.44 639.73 629.32 640.48 C 626.04 640.83 622.74 640.62 619.46 640.69 C 602.05 640.64 584.64 640.66 567.24 640.67 C 555.92 640.68 544.61 640.63 533.30 640.69 C 533.29 642.52 533.30 644.37 533.30 646.22 C 533.27 654.56 533.34 662.91 533.32 671.27 C 533.28 722.83 533.32 774.39 533.31 825.96 C 533.28 871.39 533.33 916.83 533.29 962.28 C 512.04 961.89 490.78 962.22 469.54 962.22 C 468.83 962.15 467.40 962.03 466.69 961.96 C 466.72 938.01 466.72 914.07 466.70 890.12 C 466.60 816.89 466.86 743.66 466.57 670.43 C 466.70 660.47 466.84 650.50 466.55 640.55 C 442.22 640.83 417.88 640.55 393.54 640.71 C 386.60 640.61 379.66 640.69 372.73 640.70 C 365.95 640.58 359.76 634.81 359.72 627.93 C 359.54 613.34 359.80 598.74 359.61 584.15 C 359.68 567.53 359.66 550.92 359.68 534.31 C 347.81 534.29 335.94 534.32 324.08 534.30 C 234.24 534.32 144.40 534.26 54.56 534.34 C 48.85 534.30 43.14 534.27 37.43 534.34 C 36.78 534.44 35.48 534.64 34.84 534.75 C 34.73 534.56 34.52 534.18 34.41 533.99 C 34.21 516.89 34.40 499.79 34.32 482.69 C 34.33 477.02 34.33 471.36 34.33 465.69 C 54.39 465.62 74.44 465.82 94.49 465.59 C 127.59 465.82 160.69 465.65 193.79 465.68 C 238.33 465.69 282.87 465.70 327.41 465.68 C 338.16 465.67 348.92 465.71 359.68 465.70 C 359.69 453.27 359.68 440.83 359.67 428.40 C 359.69 412.43 359.69 396.45 359.64 380.48 C 359.72 374.92 358.81 368.45 363.09 364.08 C 366.70 359.69 372.73 359.38 377.98 359.65 C 401.47 359.60 424.98 359.85 448.47 359.53 C 454.54 359.81 460.62 359.61 466.69 359.68 C 466.69 309.90 466.68 260.11 466.69 210.33 C 466.73 151.77 466.69 93.20 466.70 34.64 L 466.68 34.16 Z" />
</g>
<g id="#00bff3ff">
<path fill="#00bff3" opacity="1.00" d=" M 37.23 49.24 C 41.62 40.43 51.18 34.54 61.03 34.67 C 162.83 34.66 264.63 34.67 366.43 34.66 C 355.57 48.23 348.06 64.66 346.19 82.01 C 343.13 106.19 351.10 130.99 365.87 150.13 C 383.28 173.32 408.89 188.76 435.32 199.70 C 436.44 205.41 435.81 211.24 435.93 217.01 C 436.03 254.67 435.85 292.34 435.97 330.01 C 435.34 335.69 431.80 341.02 426.62 343.56 C 420.42 347.47 412.85 345.42 405.99 345.85 C 392.23 347.28 377.91 347.31 365.02 353.02 C 351.38 358.84 340.31 370.35 335.19 384.29 C 331.79 394.15 330.48 404.63 329.93 415.00 C 330.49 421.70 328.75 428.28 328.91 434.98 C 328.92 444.28 320.08 451.95 311.01 451.93 C 279.01 451.88 247.01 451.94 215.01 451.91 C 210.72 451.93 206.37 452.27 202.18 451.15 C 217.01 424.84 230.31 397.53 239.86 368.83 C 246.96 347.88 251.98 326.14 253.61 304.06 C 254.96 287.97 254.06 271.62 250.47 255.85 C 245.24 233.76 233.57 212.60 215.45 198.54 C 196.95 183.79 172.39 177.07 148.94 180.02 C 132.31 181.90 116.39 188.81 103.42 199.34 C 91.46 208.69 81.85 221.34 77.36 235.95 C 75.06 243.00 74.17 250.41 74.09 257.80 C 62.50 249.45 48.65 244.33 34.33 243.69 C 34.33 183.47 34.35 123.25 34.32 63.04 C 34.19 58.29 35.01 53.47 37.23 49.24 Z" />
<path fill="#00bff3" opacity="1.00" d=" M 653.75 34.67 C 745.15 34.66 836.56 34.67 927.96 34.66 C 933.07 34.71 938.32 34.26 943.26 35.87 C 951.47 38.37 958.22 45.09 960.76 53.28 C 962.34 58.02 961.97 63.09 962.00 68.01 C 961.99 90.10 962.00 112.19 962.00 134.29 C 945.52 131.64 928.22 133.25 912.81 139.82 C 898.50 145.96 885.34 155.34 876.07 167.96 C 868.94 177.88 864.41 189.65 863.14 201.80 C 862.02 202.07 861.31 201.01 860.50 200.49 C 847.75 189.40 830.83 183.45 813.99 183.56 C 795.05 183.68 776.02 189.44 760.71 200.72 C 744.74 212.31 732.60 229.20 727.12 248.20 C 722.31 264.20 722.35 281.53 726.74 297.63 C 731.58 315.70 741.50 332.13 753.95 345.97 C 776.94 371.07 806.89 388.67 837.94 401.96 C 873.19 416.95 910.52 426.46 948.11 433.41 C 950.22 434.24 951.81 432.45 952.98 430.95 C 955.96 427.07 958.86 423.14 962.00 419.38 C 962.01 432.66 961.98 445.94 962.00 459.21 C 951.00 455.58 939.61 453.04 928.00 452.76 C 921.69 451.87 915.33 451.71 908.98 451.94 C 838.98 451.85 768.98 451.95 698.98 451.91 C 692.77 451.80 686.06 452.77 680.45 449.46 C 675.76 446.42 672.23 441.42 671.31 435.88 C 670.65 430.59 671.39 425.25 671.00 419.94 C 669.98 411.95 670.10 403.83 668.12 395.97 C 666.35 384.47 661.33 373.28 652.81 365.22 C 647.63 359.81 641.32 355.46 634.46 352.47 C 621.53 347.68 607.63 346.84 594.01 345.86 C 587.15 345.49 579.64 347.37 573.41 343.62 C 567.63 340.80 563.78 334.41 564.03 327.99 C 564.11 294.03 563.91 260.07 564.17 226.12 C 568.90 225.86 573.67 226.22 578.36 225.37 C 584.93 225.22 591.51 225.73 598.08 225.34 C 599.71 225.13 600.31 223.36 601.08 222.15 C 615.16 195.23 627.75 167.46 637.38 138.62 C 648.41 105.20 655.73 70.00 653.75 34.67 Z" />
<path fill="#00bff3" opacity="1.00" d=" M 34.41 533.99 C 34.52 534.18 34.73 534.56 34.84 534.75 C 34.30 540.81 34.88 546.91 34.91 552.99 C 34.92 557.94 34.87 562.90 35.30 567.85 C 46.39 573.34 58.79 575.32 71.01 576.25 C 149.66 576.27 228.32 576.22 306.97 576.26 C 313.05 576.76 319.68 577.38 324.63 581.35 C 327.73 583.94 330.81 586.91 332.08 590.87 C 335.32 598.50 332.84 606.91 334.15 614.86 C 335.47 629.86 336.97 646.04 346.39 658.44 C 352.37 665.61 359.26 672.48 368.02 676.12 C 380.32 681.38 393.86 682.09 407.00 683.26 C 411.94 683.47 416.90 682.84 421.83 683.42 C 425.10 683.98 428.14 685.45 431.00 687.10 C 435.22 689.56 437.72 693.99 439.51 698.38 C 441.47 702.67 440.66 707.48 440.77 712.03 C 440.80 767.70 440.70 823.36 440.79 879.03 C 440.94 880.93 440.28 882.72 439.23 884.29 C 423.01 884.06 406.84 888.78 392.85 896.87 C 369.45 910.64 353.10 935.44 349.45 962.33 C 253.30 962.33 157.16 962.34 61.01 962.33 C 47.21 962.68 34.64 950.70 34.38 936.89 C 34.27 917.25 34.37 897.60 34.33 877.96 C 74.23 891.51 116.08 898.47 158.00 901.73 C 160.35 901.68 163.68 902.68 164.98 900.02 C 182.71 871.72 198.68 842.21 211.04 811.16 C 219.31 790.10 226.02 768.33 229.50 745.94 C 231.69 730.61 233.21 715.02 231.62 699.56 C 230.17 680.31 224.46 661.23 214.08 644.88 C 205.21 631.05 192.68 619.45 177.89 612.21 C 157.79 602.18 133.90 600.14 112.37 606.52 C 96.61 611.07 82.41 620.38 71.23 632.30 C 58.94 645.38 51.86 663.25 52.15 681.22 C 46.38 677.78 40.80 673.86 34.34 671.77 C 34.33 638.21 34.32 604.64 34.35 571.07 C 34.37 564.19 34.38 557.30 34.36 550.41 C 34.41 544.94 34.32 539.46 34.41 533.99 Z" />
<path fill="#00bff3" opacity="1.00" d=" M 686.32 598.32 C 687.32 596.12 689.89 595.80 692.03 595.91 C 770.01 596.01 848.00 595.90 925.98 595.94 C 929.91 596.09 934.17 595.13 937.76 597.23 C 922.64 602.76 909.06 612.34 898.65 624.60 C 888.00 637.31 882.08 653.83 882.19 670.42 C 870.10 662.06 855.80 656.54 840.97 656.49 C 822.01 656.39 803.00 662.51 787.64 673.63 C 764.50 690.32 749.94 718.42 750.45 747.03 C 750.52 774.05 763.62 799.74 782.50 818.55 C 798.17 834.65 817.62 846.50 837.76 856.16 C 876.82 874.29 919.44 883.29 962.00 888.38 C 961.96 904.58 962.08 920.79 961.94 936.99 C 961.64 950.53 949.49 962.35 935.95 962.31 C 843.35 962.37 750.74 962.32 658.14 962.33 C 662.01 935.67 662.24 907.67 652.61 882.14 C 646.54 866.13 636.92 851.20 623.53 840.36 C 610.56 829.57 594.45 822.64 577.71 820.58 C 578.23 806.72 577.78 792.86 577.94 779.00 C 577.86 756.00 578.04 733.01 577.93 710.01 C 577.74 707.12 578.62 703.71 581.64 702.64 C 585.30 701.46 589.23 702.05 593.02 701.95 C 602.68 701.72 612.40 702.61 621.98 701.10 C 632.08 700.79 642.09 699.15 651.90 696.76 C 661.70 694.06 671.40 688.44 676.04 679.02 C 681.32 667.79 683.29 655.36 684.25 643.09 C 685.94 632.45 683.84 621.59 685.71 610.97 C 686.37 606.77 685.42 602.46 686.32 598.32 Z" />
</g>
<g id="#005b74ff">
<path fill="#005b74" opacity="1.00" d=" M 366.43 34.66 C 397.98 34.66 429.53 34.69 461.09 34.63 C 456.86 43.65 451.77 52.30 448.84 61.87 C 444.97 73.79 443.47 86.47 443.99 98.97 C 444.20 129.98 443.85 160.98 444.00 191.98 C 444.03 194.93 443.76 197.91 444.21 200.84 C 445.33 202.03 446.65 203.04 447.68 204.33 C 443.46 203.04 439.41 201.31 435.32 199.70 C 408.89 188.76 383.28 173.32 365.87 150.13 C 351.10 130.99 343.13 106.19 346.19 82.01 C 348.06 64.66 355.57 48.23 366.43 34.66 Z" />
<path fill="#005b74" opacity="1.00" d=" M 561.71 34.66 C 592.39 34.67 623.07 34.66 653.75 34.67 C 655.73 70.00 648.41 105.20 637.38 138.62 C 627.75 167.46 615.16 195.23 601.08 222.15 C 600.31 223.36 599.71 225.13 598.08 225.34 C 591.51 225.73 584.93 225.22 578.36 225.37 C 575.34 225.16 572.32 224.92 569.30 224.82 C 570.56 219.65 569.93 214.31 569.96 209.05 C 570.01 170.04 569.99 131.03 570.00 92.02 C 570.34 86.30 569.05 80.68 568.93 74.98 C 568.10 61.30 564.32 48.06 561.71 34.66 Z" />
<path fill="#005b74" opacity="1.00" d=" M 912.81 139.82 C 928.22 133.25 945.52 131.64 962.00 134.29 C 962.00 229.32 962.00 324.35 962.00 419.38 C 958.86 423.14 955.96 427.07 952.98 430.95 C 951.81 432.45 950.22 434.24 948.11 433.41 C 910.52 426.46 873.19 416.95 837.94 401.96 C 806.89 388.67 776.94 371.07 753.95 345.97 C 741.50 332.13 731.58 315.70 726.74 297.63 C 722.35 281.53 722.31 264.20 727.12 248.20 C 732.60 229.20 744.74 212.31 760.71 200.72 C 776.02 189.44 795.05 183.68 813.99 183.56 C 830.83 183.45 847.75 189.40 860.50 200.49 C 861.31 201.01 862.02 202.07 863.14 201.80 C 864.41 189.65 868.94 177.88 876.07 167.96 C 885.34 155.34 898.50 145.96 912.81 139.82 Z" />
<path fill="#005b74" opacity="1.00" d=" M 103.42 199.34 C 116.39 188.81 132.31 181.90 148.94 180.02 C 172.39 177.07 196.95 183.79 215.45 198.54 C 233.57 212.60 245.24 233.76 250.47 255.85 C 254.06 271.62 254.96 287.97 253.61 304.06 C 251.98 326.14 246.96 347.88 239.86 368.83 C 230.31 397.53 217.01 424.84 202.18 451.15 C 201.85 451.69 201.52 452.25 201.19 452.81 C 198.50 452.23 195.77 451.87 193.02 451.93 C 159.68 452.08 126.34 451.89 93.00 451.99 C 85.55 452.30 78.06 451.30 70.66 452.52 C 66.92 453.06 63.14 453.09 59.37 453.10 C 59.45 453.67 59.62 454.80 59.71 455.37 C 51.07 452.55 42.63 449.18 34.32 445.51 C 34.35 378.23 34.33 310.96 34.33 243.69 C 48.65 244.33 62.50 249.45 74.09 257.80 C 74.17 250.41 75.06 243.00 77.36 235.95 C 81.85 221.34 91.46 208.69 103.42 199.34 Z" />
<path fill="#005b74" opacity="1.00" d=" M 937.76 597.23 C 945.59 594.58 953.73 592.84 962.00 592.34 C 962.00 691.02 962.00 789.70 962.00 888.38 C 919.44 883.29 876.82 874.29 837.76 856.16 C 817.62 846.50 798.17 834.65 782.50 818.55 C 763.62 799.74 750.52 774.05 750.45 747.03 C 749.94 718.42 764.50 690.32 787.64 673.63 C 803.00 662.51 822.01 656.39 840.97 656.49 C 855.80 656.54 870.10 662.06 882.19 670.42 C 882.08 653.83 888.00 637.31 898.65 624.60 C 909.06 612.34 922.64 602.76 937.76 597.23 Z" />
<path fill="#005b74" opacity="1.00" d=" M 112.37 606.52 C 133.90 600.14 157.79 602.18 177.89 612.21 C 192.68 619.45 205.21 631.05 214.08 644.88 C 224.46 661.23 230.17 680.31 231.62 699.56 C 233.21 715.02 231.69 730.61 229.50 745.94 C 226.02 768.33 219.31 790.10 211.04 811.16 C 198.68 842.21 182.71 871.72 164.98 900.02 C 163.68 902.68 160.35 901.68 158.00 901.73 C 116.08 898.47 74.23 891.51 34.33 877.96 C 34.34 809.23 34.33 740.50 34.34 671.77 C 40.80 673.86 46.38 677.78 52.15 681.22 C 51.86 663.25 58.94 645.38 71.23 632.30 C 82.41 620.38 96.61 611.07 112.37 606.52 Z" />
<path fill="#005b74" opacity="1.00" d=" M 559.62 820.22 C 565.63 819.35 571.70 820.03 577.71 820.58 C 594.45 822.64 610.56 829.57 623.53 840.36 C 636.92 851.20 646.54 866.13 652.61 882.14 C 662.24 907.67 662.01 935.67 658.14 962.33 C 626.79 962.34 595.44 962.31 564.10 962.35 C 565.20 954.28 566.26 946.16 565.96 938.00 C 565.84 899.15 566.09 860.30 565.82 821.46 C 563.75 821.04 561.69 820.60 559.62 820.22 Z" />
<path fill="#005b74" opacity="1.00" d=" M 392.85 896.87 C 406.84 888.78 423.01 884.06 439.23 884.29 C 441.56 884.32 443.89 884.47 446.21 884.74 C 444.27 884.99 442.35 885.34 440.42 885.68 C 439.49 891.73 440.22 897.86 440.10 903.95 C 440.27 915.65 439.44 927.39 441.04 939.02 C 440.63 946.89 442.65 954.56 443.26 962.36 C 411.99 962.30 380.72 962.35 349.45 962.33 C 353.10 935.44 369.45 910.64 392.85 896.87 Z" />
</g>
<g id="#004e63ff">
<path fill="#004e63" opacity="1.00" d=" M 461.09 34.63 C 462.95 34.62 464.82 34.63 466.70 34.64 C 466.69 93.20 466.73 151.77 466.69 210.33 C 466.00 210.16 464.60 209.82 463.90 209.64 C 458.65 208.24 453.56 206.31 448.42 204.58 C 448.23 204.52 447.86 204.39 447.68 204.33 C 446.65 203.04 445.33 202.03 444.21 200.84 C 443.76 197.91 444.03 194.93 444.00 191.98 C 443.85 160.98 444.20 129.98 443.99 98.97 C 443.47 86.47 444.97 73.79 448.84 61.87 C 451.77 52.30 456.86 43.65 461.09 34.63 Z" />
</g>
<g id="#004d62ff">
<path fill="#004d62" opacity="1.00" d=" M 533.33 34.42 L 533.89 34.48 C 536.88 41.75 541.51 48.18 544.66 55.37 C 549.82 67.59 552.92 80.74 552.96 94.03 C 552.86 136.89 553.11 179.75 552.83 222.61 C 551.50 222.95 550.19 223.32 548.86 223.62 C 546.97 223.60 545.09 223.48 543.21 223.39 C 539.90 223.09 536.60 222.73 533.30 222.40 C 533.30 159.74 533.27 97.08 533.33 34.42 Z" />
</g>
<g id="#00576fff">
<path fill="#00576f" opacity="1.00" d=" M 533.89 34.48 C 543.15 34.85 552.43 34.54 561.71 34.66 C 564.32 48.06 568.10 61.30 568.93 74.98 C 569.05 80.68 570.34 86.30 570.00 92.02 C 569.99 131.03 570.01 170.04 569.96 209.05 C 569.93 214.31 570.56 219.65 569.30 224.82 C 562.49 224.43 555.62 224.69 548.86 223.62 C 550.19 223.32 551.50 222.95 552.83 222.61 C 553.11 179.75 552.86 136.89 552.96 94.03 C 552.92 80.74 549.82 67.59 544.66 55.37 C 541.51 48.18 536.88 41.75 533.89 34.48 Z" />
</g>
<g id="#00b2e2ff">
<path fill="#00b2e2" opacity="1.00" d=" M 435.32 199.70 C 439.41 201.31 443.46 203.04 447.68 204.33 C 447.86 204.39 448.23 204.52 448.42 204.58 C 448.81 207.04 449.16 209.51 449.20 212.00 C 449.02 250.65 449.24 289.30 449.15 327.94 C 448.87 336.31 445.87 344.84 439.72 350.71 C 434.44 355.08 427.90 357.95 421.03 358.51 C 429.82 358.78 438.61 359.28 447.40 359.23 L 448.47 359.53 C 424.98 359.85 401.47 359.60 377.98 359.65 C 372.73 359.38 366.70 359.69 363.09 364.08 C 358.81 368.45 359.72 374.92 359.64 380.48 C 355.98 383.14 354.01 387.33 352.30 391.39 C 348.66 400.43 347.14 410.16 346.40 419.84 C 345.55 426.31 345.48 432.87 346.24 439.36 C 338.45 446.91 332.13 455.92 327.41 465.68 C 282.87 465.70 238.33 465.69 193.79 465.68 C 196.22 461.37 198.70 457.08 201.19 452.81 C 201.52 452.25 201.85 451.69 202.18 451.15 C 206.37 452.27 210.72 451.93 215.01 451.91 C 247.01 451.94 279.01 451.88 311.01 451.93 C 320.08 451.95 328.92 444.28 328.91 434.98 C 328.75 428.28 330.49 421.70 329.93 415.00 C 330.48 404.63 331.79 394.15 335.19 384.29 C 340.31 370.35 351.38 358.84 365.02 353.02 C 377.91 347.31 392.23 347.28 405.99 345.85 C 412.85 345.42 420.42 347.47 426.62 343.56 C 431.80 341.02 435.34 335.69 435.97 330.01 C 435.85 292.34 436.03 254.67 435.93 217.01 C 435.81 211.24 436.44 205.41 435.32 199.70 Z" />
<path fill="#00b2e2" opacity="1.00" d=" M 548.86 223.62 C 555.62 224.69 562.49 224.43 569.30 224.82 C 572.32 224.92 575.34 225.16 578.36 225.37 C 573.67 226.22 568.90 225.86 564.17 226.12 C 563.91 260.07 564.11 294.03 564.03 327.99 C 563.78 334.41 567.63 340.80 573.41 343.62 C 579.64 347.37 587.15 345.49 594.01 345.86 C 607.63 346.84 621.53 347.68 634.46 352.47 C 641.32 355.46 647.63 359.81 652.81 365.22 C 661.33 373.28 666.35 384.47 668.12 395.97 C 670.10 403.83 669.98 411.95 671.00 419.94 C 671.39 425.25 670.65 430.59 671.31 435.88 C 672.23 441.42 675.76 446.42 680.45 449.46 C 686.06 452.77 692.77 451.80 698.98 451.91 C 768.98 451.95 838.98 451.85 908.98 451.94 C 915.33 451.71 921.69 451.87 928.00 452.76 C 939.61 453.04 951.00 455.58 962.00 459.21 L 962.00 459.68 C 961.99 461.68 961.99 463.68 962.00 465.69 C 862.26 465.67 762.52 465.74 662.78 465.66 C 668.16 465.06 673.57 464.78 678.99 464.70 C 669.53 461.57 661.33 454.09 658.62 444.34 C 655.45 434.81 657.89 424.68 656.27 414.93 C 654.95 400.84 651.50 385.60 640.73 375.62 C 640.89 371.44 640.13 366.94 637.06 363.87 C 634.29 360.79 630.08 359.48 626.02 359.65 C 610.17 359.66 594.32 359.72 578.48 359.64 C 573.51 357.12 568.35 355.03 563.06 353.32 C 555.30 347.41 550.49 337.80 550.97 327.99 C 551.00 294.66 550.98 261.33 550.93 228.01 C 551.18 226.20 549.84 224.93 548.86 223.62 Z" />
</g>
<g id="#00a1cdff">
<path fill="#00a1cd" opacity="1.00" d=" M 448.42 204.58 C 453.56 206.31 458.65 208.24 463.90 209.64 C 463.32 227.10 463.82 244.57 463.63 262.03 C 463.66 285.71 463.63 309.39 463.63 333.06 C 463.19 341.97 461.12 351.26 455.78 358.56 C 452.97 358.64 450.18 358.86 447.40 359.23 C 438.61 359.28 429.82 358.78 421.03 358.51 C 427.90 357.95 434.44 355.08 439.72 350.71 C 445.87 344.84 448.87 336.31 449.15 327.94 C 449.24 289.30 449.02 250.65 449.20 212.00 C 449.16 209.51 448.81 207.04 448.42 204.58 Z" />
</g>
<g id="#0091b9ff">
<path fill="#0091b9" opacity="1.00" d=" M 463.90 209.64 C 464.60 209.82 466.00 210.16 466.69 210.33 C 466.68 260.11 466.69 309.90 466.69 359.68 C 460.62 359.61 454.54 359.81 448.47 359.53 L 447.40 359.23 C 450.18 358.86 452.97 358.64 455.78 358.56 C 461.12 351.26 463.19 341.97 463.63 333.06 C 463.63 309.39 463.66 285.71 463.63 262.03 C 463.82 244.57 463.32 227.10 463.90 209.64 Z" />
</g>
<g id="#0095beff">
<path fill="#0095be" opacity="1.00" d=" M 533.30 222.40 C 536.60 222.73 539.90 223.09 543.21 223.39 C 542.47 223.66 540.99 224.19 540.25 224.46 C 539.96 259.97 540.20 295.49 540.12 331.00 C 539.95 337.43 542.05 343.58 543.98 349.62 C 540.42 349.39 536.86 349.34 533.30 349.24 C 533.30 306.96 533.32 264.68 533.30 222.40 Z" />
</g>
<g id="#00a4d0ff">
<path fill="#00a4d0" opacity="1.00" d=" M 540.25 224.46 C 540.99 224.19 542.47 223.66 543.21 223.39 C 545.09 223.48 546.97 223.60 548.86 223.62 C 549.84 224.93 551.18 226.20 550.93 228.01 C 550.98 261.33 551.00 294.66 550.97 327.99 C 550.49 337.80 555.30 347.41 563.06 353.32 C 556.79 351.69 550.45 350.17 543.98 349.62 C 542.05 343.58 539.95 337.43 540.12 331.00 C 540.20 295.49 539.96 259.97 540.25 224.46 Z" />
</g>
<g id="#004a5eff">
<path fill="#004a5e" opacity="1.00" d=" M 533.30 349.24 C 536.86 349.34 540.42 349.39 543.98 349.62 C 550.45 350.17 556.79 351.69 563.06 353.32 C 568.35 355.03 573.51 357.12 578.48 359.64 C 563.42 359.66 548.36 359.67 533.30 359.68 C 533.28 356.20 533.29 352.72 533.30 349.24 Z" />
<path fill="#004a5e" opacity="1.00" d=" M 346.24 439.36 C 350.46 435.40 354.82 431.56 359.67 428.40 C 359.68 440.83 359.69 453.27 359.68 465.70 C 348.92 465.71 338.16 465.67 327.41 465.68 C 332.13 455.92 338.45 446.91 346.24 439.36 Z" />
</g>
<g id="#00a0ccff">
<path fill="#00a0cc" opacity="1.00" d=" M 640.73 375.62 C 651.50 385.60 654.95 400.84 656.27 414.93 C 657.89 424.68 655.45 434.81 658.62 444.34 C 661.33 454.09 669.53 461.57 678.99 464.70 C 673.57 464.78 668.16 465.06 662.78 465.66 C 658.94 465.74 655.10 465.68 651.27 465.69 C 646.26 455.91 642.95 445.08 643.26 434.00 C 643.11 426.15 644.24 417.73 640.77 410.43 C 640.55 398.83 640.67 387.22 640.73 375.62 Z" />
</g>
<g id="#009ec9ff">
<path fill="#009ec9" opacity="1.00" d=" M 352.30 391.39 C 354.01 387.33 355.98 383.14 359.64 380.48 C 359.69 396.45 359.69 412.43 359.67 428.40 C 354.82 431.56 350.46 435.40 346.24 439.36 C 345.48 432.87 345.55 426.31 346.40 419.84 C 347.14 410.16 348.66 400.43 352.30 391.39 Z" />
</g>
<g id="#008fb6ff">
<path fill="#008fb6" opacity="1.00" d=" M 640.77 410.43 C 644.24 417.73 643.11 426.15 643.26 434.00 C 642.95 445.08 646.26 455.91 651.27 465.69 C 647.73 465.69 644.19 465.69 640.66 465.68 C 640.73 447.26 640.55 428.84 640.77 410.43 Z" />
</g>
<g id="#00b4e5ff">
<path fill="#00b4e5" opacity="1.00" d=" M 34.32 445.51 C 42.63 449.18 51.07 452.55 59.71 455.37 C 71.14 459.33 82.77 462.62 94.49 465.59 C 74.44 465.82 54.39 465.62 34.33 465.69 C 34.33 462.13 34.33 458.56 34.32 455.00 C 34.31 451.83 34.31 448.67 34.32 445.51 Z" />
</g>
<g id="#00556cff">
<path fill="#00556c" opacity="1.00" d=" M 70.66 452.52 C 78.06 451.30 85.55 452.30 93.00 451.99 C 126.34 451.89 159.68 452.08 193.02 451.93 C 195.77 451.87 198.50 452.23 201.19 452.81 C 198.70 457.08 196.22 461.37 193.79 465.68 C 160.69 465.65 127.59 465.82 94.49 465.59 C 82.77 462.62 71.14 459.33 59.71 455.37 C 59.62 454.80 59.45 453.67 59.37 453.10 C 63.14 453.09 66.92 453.06 70.66 452.52 Z" />
</g>
<g id="#00000013">
<path fill="#000000" opacity="0.07" d=" M 18.38 462.39 C 23.62 459.77 28.78 456.94 34.32 455.00 C 34.33 458.56 34.33 462.13 34.33 465.69 C 34.33 471.36 34.33 477.02 34.32 482.69 C 24.45 490.09 18.36 502.12 17.30 514.33 C 16.79 524.44 20.53 534.40 26.35 542.55 C 28.58 545.57 30.55 549.18 34.36 550.41 C 34.38 557.30 34.37 564.19 34.35 571.07 C 21.32 565.90 11.40 555.69 0.00 547.91 L 0.00 472.32 C 6.57 469.85 12.12 465.46 18.38 462.39 Z" />
<path fill="#000000" opacity="0.07" d=" M 984.98 541.00 C 989.60 538.61 995.02 538.55 1000.00 539.69 L 1000.00 563.07 C 993.80 563.26 987.40 562.36 981.42 564.42 C 974.90 566.53 968.38 568.66 962.00 571.16 C 961.97 568.45 961.97 565.74 962.00 563.03 C 962.00 560.13 962.01 557.24 962.01 554.35 C 970.05 550.58 976.93 544.76 984.98 541.00 Z" />
</g>
<g id="#00000024">
<path fill="#000000" opacity="0.14" d=" M 962.00 474.71 C 968.28 477.92 974.31 481.64 980.95 484.10 C 986.93 486.38 993.69 488.47 1000.00 486.23 L 1000.00 539.69 C 995.02 538.55 989.60 538.61 984.98 541.00 C 976.93 544.76 970.05 550.58 962.01 554.35 C 961.98 550.86 961.96 547.39 962.00 543.91 C 962.01 540.73 962.03 537.55 962.05 534.37 L 962.04 534.14 C 970.63 524.54 970.40 508.44 962.02 498.74 C 962.01 490.73 961.99 482.72 962.00 474.71 Z" />
<path fill="#000000" opacity="0.14" d=" M 452.93 962.33 C 457.83 962.28 462.73 962.42 467.63 962.28 C 473.37 977.15 490.25 986.60 505.94 983.80 C 517.48 981.44 527.80 973.47 532.44 962.54 C 537.28 962.80 542.13 962.88 546.97 963.07 C 543.82 972.62 538.39 981.20 531.96 988.88 C 529.26 992.95 525.02 995.51 521.67 998.97 C 507.23 999.02 492.79 999.01 478.34 998.98 C 476.18 996.65 473.58 994.82 471.27 992.67 C 463.40 983.79 456.22 973.89 452.93 962.33 Z" />
</g>
<g id="#0000002b">
<path fill="#000000" opacity="0.17" d=" M 17.30 514.33 C 18.36 502.12 24.45 490.09 34.32 482.69 C 34.40 499.79 34.21 516.89 34.41 533.99 C 34.32 539.46 34.41 544.94 34.36 550.41 C 30.55 549.18 28.58 545.57 26.35 542.55 C 20.53 534.40 16.79 524.44 17.30 514.33 Z" />
</g>
<g id="#00000037">
<path fill="#000000" opacity="0.22" d=" M 962.02 498.74 C 970.40 508.44 970.63 524.54 962.04 534.14 C 961.96 522.34 962.00 510.54 962.02 498.74 Z" />
</g>
<g id="#007c9eff">
<path fill="#007c9e" opacity="1.00" d=" M 54.56 534.34 C 144.40 534.26 234.24 534.32 324.08 534.30 C 325.80 538.06 327.36 541.88 329.14 545.61 C 323.76 545.07 318.42 544.08 313.00 544.12 C 235.99 544.10 158.98 544.13 81.97 544.11 C 74.17 543.91 66.42 542.05 59.39 538.67 C 57.37 537.74 55.94 536.00 54.56 534.34 Z" />
<path fill="#007c9e" opacity="1.00" d=" M 567.24 640.67 C 584.64 640.66 602.05 640.64 619.46 640.69 C 615.85 646.15 608.83 647.51 602.92 649.07 C 593.13 651.86 582.88 649.35 572.97 651.09 C 562.30 651.90 551.42 654.37 542.40 660.37 C 538.33 662.98 535.65 667.14 533.32 671.27 C 533.34 662.91 533.27 654.56 533.30 646.22 C 541.89 647.04 550.48 647.80 559.09 648.45 C 563.75 649.21 565.16 643.70 567.24 640.67 Z" />
</g>
<g id="#003949ff">
<path fill="#003949" opacity="1.00" d=" M 324.08 534.30 C 335.94 534.32 347.81 534.29 359.68 534.31 C 359.66 550.92 359.68 567.53 359.61 584.15 C 359.43 583.89 359.07 583.36 358.89 583.10 C 358.63 577.17 359.35 571.18 358.51 565.29 C 356.42 559.93 351.88 555.84 347.00 553.00 C 341.60 549.76 335.34 548.57 329.51 546.36 L 329.14 545.61 C 327.36 541.88 325.80 538.06 324.08 534.30 Z" />
</g>
<g id="#007a9cff">
<path fill="#007a9c" opacity="1.00" d=" M 640.53 534.47 C 652.04 534.04 663.56 534.42 675.07 534.30 C 763.84 534.33 852.60 534.26 941.37 534.34 C 938.97 538.62 933.96 540.06 929.62 541.56 C 918.70 544.92 907.21 543.70 895.98 543.90 C 826.00 543.84 756.03 543.88 686.05 543.89 C 674.46 544.70 662.58 546.63 652.27 552.30 C 647.42 554.82 644.44 559.56 640.68 563.35 C 640.59 553.72 640.80 544.09 640.53 534.47 Z" />
</g>
<g id="#009fcbff">
<path fill="#009fcb" opacity="1.00" d=" M 34.84 534.75 C 35.48 534.64 36.78 534.44 37.43 534.34 C 38.94 538.58 42.70 541.25 46.08 543.94 C 52.32 548.86 60.20 550.85 67.84 552.43 C 84.11 554.83 100.59 554.00 116.99 554.10 C 183.31 554.13 249.62 554.12 315.93 554.13 C 322.92 554.00 329.56 556.36 336.29 557.90 C 340.03 563.59 344.44 568.81 348.99 573.86 C 351.44 579.33 353.44 585.06 354.10 591.05 C 355.89 601.30 353.79 611.82 356.09 622.02 C 357.42 631.42 360.46 640.88 366.70 648.21 C 371.57 653.55 378.37 656.68 385.14 658.87 C 393.60 660.91 402.27 662.57 411.02 662.11 C 419.73 661.73 428.51 662.68 436.88 665.17 C 443.71 667.97 451.00 671.52 454.59 678.37 C 460.76 688.02 462.08 699.77 461.94 710.98 C 461.78 769.50 462.10 828.02 461.76 886.54 C 461.05 886.76 459.63 887.22 458.91 887.44 C 456.96 886.86 455.00 886.35 453.05 885.79 C 452.70 885.51 452.00 884.96 451.65 884.68 C 452.71 863.80 451.78 842.84 452.08 821.94 C 452.02 783.31 452.13 744.68 452.07 706.05 C 452.00 696.80 448.79 687.38 442.22 680.73 C 436.77 676.13 429.97 673.01 422.85 672.25 C 416.62 671.35 410.32 672.43 404.07 671.77 C 394.51 670.65 384.76 669.81 375.71 666.30 C 370.16 663.86 364.86 660.66 360.38 656.57 C 356.30 652.11 353.05 646.89 350.76 641.31 C 347.09 631.96 346.14 621.87 345.18 611.96 C 344.73 603.93 346.12 595.62 343.23 587.90 C 339.90 575.01 327.02 566.12 313.97 565.90 C 241.65 565.87 169.32 565.93 97.00 565.90 C 92.45 565.88 87.87 566.31 83.37 565.54 C 77.62 564.43 71.71 565.36 65.96 564.26 C 54.97 562.76 44.23 559.05 34.91 552.99 C 34.88 546.91 34.30 540.81 34.84 534.75 Z" />
</g>
<g id="#008cb2ff">
<path fill="#008cb2" opacity="1.00" d=" M 37.43 534.34 C 43.14 534.27 48.85 534.30 54.56 534.34 C 55.94 536.00 57.37 537.74 59.39 538.67 C 66.42 542.05 74.17 543.91 81.97 544.11 C 158.98 544.13 235.99 544.10 313.00 544.12 C 318.42 544.08 323.76 545.07 329.14 545.61 L 329.51 546.36 C 331.55 550.33 333.86 554.15 336.29 557.90 C 329.56 556.36 322.92 554.00 315.93 554.13 C 249.62 554.12 183.31 554.13 116.99 554.10 C 100.59 554.00 84.11 554.83 67.84 552.43 C 60.20 550.85 52.32 548.86 46.08 543.94 C 42.70 541.25 38.94 538.58 37.43 534.34 Z" />
</g>
<g id="#0089aeff">
<path fill="#0089ae" opacity="1.00" d=" M 941.37 534.34 C 945.69 534.28 950.01 534.32 954.34 534.32 C 948.50 543.78 937.52 548.17 926.99 549.86 C 919.11 551.67 911.01 550.79 903.02 551.06 C 831.02 550.97 759.01 551.10 687.01 550.97 C 676.16 551.66 664.96 553.61 655.82 559.89 C 650.72 563.96 646.55 569.38 644.54 575.64 C 642.81 580.14 642.65 585.06 640.77 589.50 C 640.58 580.78 640.68 572.06 640.68 563.35 C 644.44 559.56 647.42 554.82 652.27 552.30 C 662.58 546.63 674.46 544.70 686.05 543.89 C 756.03 543.88 826.00 543.84 895.98 543.90 C 907.21 543.70 918.70 544.92 929.62 541.56 C 933.96 540.06 938.97 538.62 941.37 534.34 Z" />
</g>
<g id="#0096bfff">
<path fill="#0096bf" opacity="1.00" d=" M 954.34 534.32 C 956.90 534.30 959.47 534.32 962.05 534.37 C 962.03 537.55 962.01 540.73 962.00 543.91 C 951.82 552.97 938.52 558.01 925.01 559.03 C 913.06 560.80 900.97 559.73 888.95 560.03 C 820.94 560.04 752.94 560.12 684.94 560.01 C 674.35 560.94 663.16 564.88 656.96 574.04 C 649.13 585.33 649.15 599.80 649.17 613.00 C 648.38 627.03 645.30 641.85 635.65 652.62 C 627.08 660.53 615.29 663.64 603.99 665.13 C 593.75 667.16 583.19 664.89 572.97 667.16 C 563.08 668.79 552.91 673.80 548.06 682.97 C 544.00 689.94 542.16 698.02 542.09 706.04 C 542.05 739.03 542.21 772.02 541.96 805.01 C 542.43 810.46 541.29 816.04 542.42 821.42 C 542.80 821.72 543.55 822.33 543.93 822.63 C 543.52 822.75 542.69 822.98 542.28 823.09 C 539.27 823.99 536.29 824.97 533.31 825.96 C 533.32 774.39 533.28 722.83 533.32 671.27 C 535.65 667.14 538.33 662.98 542.40 660.37 C 551.42 654.37 562.30 651.90 572.97 651.09 C 582.88 649.35 593.13 651.86 602.92 649.07 C 608.83 647.51 615.85 646.15 619.46 640.69 C 622.74 640.62 626.04 640.83 629.32 640.48 C 635.44 639.73 640.50 634.14 640.62 627.97 C 640.81 615.15 640.48 602.32 640.77 589.50 C 642.65 585.06 642.81 580.14 644.54 575.64 C 646.55 569.38 650.72 563.96 655.82 559.89 C 664.96 553.61 676.16 551.66 687.01 550.97 C 759.01 551.10 831.02 550.97 903.02 551.06 C 911.01 550.79 919.11 551.67 926.99 549.86 C 937.52 548.17 948.50 543.78 954.34 534.32 Z" />
</g>
<g id="#00a8d6ff">
<path fill="#00a8d6" opacity="1.00" d=" M 925.01 559.03 C 938.52 558.01 951.82 552.97 962.00 543.91 C 961.96 547.39 961.98 550.86 962.01 554.35 C 962.01 557.24 962.00 560.13 962.00 563.03 C 950.03 569.59 936.43 572.14 922.97 573.12 C 845.98 573.17 769.00 573.10 692.02 573.13 C 684.39 573.23 676.47 575.44 670.80 580.74 C 668.16 583.59 666.28 587.07 664.76 590.63 C 661.84 598.09 663.71 606.24 663.03 614.01 C 661.84 624.48 661.07 635.18 657.20 645.10 C 654.06 654.35 647.02 661.58 639.62 667.65 C 634.74 671.72 628.71 674.03 622.66 675.73 C 612.08 679.04 600.92 678.88 590.01 680.03 C 584.21 680.45 578.15 679.26 572.62 681.56 C 565.84 683.73 560.20 689.05 557.87 695.81 C 555.01 702.18 556.26 709.25 556.11 716.00 C 555.94 750.83 556.37 785.68 555.89 820.52 C 551.85 820.93 547.85 821.63 543.93 822.63 C 543.55 822.33 542.80 821.72 542.42 821.42 C 541.29 816.04 542.43 810.46 541.96 805.01 C 542.21 772.02 542.05 739.03 542.09 706.04 C 542.16 698.02 544.00 689.94 548.06 682.97 C 552.91 673.80 563.08 668.79 572.97 667.16 C 583.19 664.89 593.75 667.16 603.99 665.13 C 615.29 663.64 627.08 660.53 635.65 652.62 C 645.30 641.85 648.38 627.03 649.17 613.00 C 649.15 599.80 649.13 585.33 656.96 574.04 C 663.16 564.88 674.35 560.94 684.94 560.01 C 752.94 560.12 820.94 560.04 888.95 560.03 C 900.97 559.73 913.06 560.80 925.01 559.03 Z" />
</g>
<g id="#004356ff">
<path fill="#004356" opacity="1.00" d=" M 329.51 546.36 C 335.34 548.57 341.60 549.76 347.00 553.00 C 351.88 555.84 356.42 559.93 358.51 565.29 C 359.35 571.18 358.63 577.17 358.89 583.10 C 355.31 580.33 352.25 576.98 348.99 573.86 C 344.44 568.81 340.03 563.59 336.29 557.90 C 333.86 554.15 331.55 550.33 329.51 546.36 Z" />
</g>
<g id="#00aeddff">
<path fill="#00aedd" opacity="1.00" d=" M 34.91 552.99 C 44.23 559.05 54.97 562.76 65.96 564.26 C 71.71 565.36 77.62 564.43 83.37 565.54 C 87.87 566.31 92.45 565.88 97.00 565.90 C 169.32 565.93 241.65 565.87 313.97 565.90 C 327.02 566.12 339.90 575.01 343.23 587.90 C 346.12 595.62 344.73 603.93 345.18 611.96 C 346.14 621.87 347.09 631.96 350.76 641.31 C 353.05 646.89 356.30 652.11 360.38 656.57 C 364.86 660.66 370.16 663.86 375.71 666.30 C 384.76 669.81 394.51 670.65 404.07 671.77 C 410.32 672.43 416.62 671.35 422.85 672.25 C 429.97 673.01 436.77 676.13 442.22 680.73 C 448.79 687.38 452.00 696.80 452.07 706.05 C 452.13 744.68 452.02 783.31 452.08 821.94 C 451.78 842.84 452.71 863.80 451.65 884.68 C 452.00 884.96 452.70 885.51 453.05 885.79 C 450.78 885.35 448.51 884.97 446.21 884.74 C 443.89 884.47 441.56 884.32 439.23 884.29 C 440.28 882.72 440.94 880.93 440.79 879.03 C 440.70 823.36 440.80 767.70 440.77 712.03 C 440.66 707.48 441.47 702.67 439.51 698.38 C 437.72 693.99 435.22 689.56 431.00 687.10 C 428.14 685.45 425.10 683.98 421.83 683.42 C 416.90 682.84 411.94 683.47 407.00 683.26 C 393.86 682.09 380.32 681.38 368.02 676.12 C 359.26 672.48 352.37 665.61 346.39 658.44 C 336.97 646.04 335.47 629.86 334.15 614.86 C 332.84 606.91 335.32 598.50 332.08 590.87 C 330.81 586.91 327.73 583.94 324.63 581.35 C 319.68 577.38 313.05 576.76 306.97 576.26 C 228.32 576.22 149.66 576.27 71.01 576.25 C 58.79 575.32 46.39 573.34 35.30 567.85 C 34.87 562.90 34.92 557.94 34.91 552.99 Z" />
</g>
<g id="#00baedff">
<path fill="#00baed" opacity="1.00" d=" M 922.97 573.12 C 936.43 572.14 950.03 569.59 962.00 563.03 C 961.97 565.74 961.97 568.45 962.00 571.16 C 962.03 578.22 961.99 585.28 962.00 592.34 C 953.73 592.84 945.59 594.58 937.76 597.23 C 934.17 595.13 929.91 596.09 925.98 595.94 C 848.00 595.90 770.01 596.01 692.03 595.91 C 689.89 595.80 687.32 596.12 686.32 598.32 C 685.42 602.46 686.37 606.77 685.71 610.97 C 683.84 621.59 685.94 632.45 684.25 643.09 C 683.29 655.36 681.32 667.79 676.04 679.02 C 671.40 688.44 661.70 694.06 651.90 696.76 C 642.09 699.15 632.08 700.79 621.98 701.10 C 612.40 702.61 602.68 701.72 593.02 701.95 C 589.23 702.05 585.30 701.46 581.64 702.64 C 578.62 703.71 577.74 707.12 577.93 710.01 C 578.04 733.01 577.86 756.00 577.94 779.00 C 577.78 792.86 578.23 806.72 577.71 820.58 C 571.70 820.03 565.63 819.35 559.62 820.22 C 558.37 820.29 557.12 820.39 555.89 820.52 C 556.37 785.68 555.94 750.83 556.11 716.00 C 556.26 709.25 555.01 702.18 557.87 695.81 C 560.20 689.05 565.84 683.73 572.62 681.56 C 578.15 679.26 584.21 680.45 590.01 680.03 C 600.92 678.88 612.08 679.04 622.66 675.73 C 628.71 674.03 634.74 671.72 639.62 667.65 C 647.02 661.58 654.06 654.35 657.20 645.10 C 661.07 635.18 661.84 624.48 663.03 614.01 C 663.71 606.24 661.84 598.09 664.76 590.63 C 666.28 587.07 668.16 583.59 670.80 580.74 C 676.47 575.44 684.39 573.23 692.02 573.13 C 769.00 573.10 845.98 573.17 922.97 573.12 Z" />
</g>
<g id="#0093bbff">
<path fill="#0093bb" opacity="1.00" d=" M 348.99 573.86 C 352.25 576.98 355.31 580.33 358.89 583.10 C 359.07 583.36 359.43 583.89 359.61 584.15 C 359.80 598.74 359.54 613.34 359.72 627.93 C 359.76 634.81 365.95 640.58 372.73 640.70 C 374.57 642.99 376.40 645.42 378.99 646.93 C 385.99 651.07 393.91 653.66 402.03 654.32 C 410.77 655.67 419.66 654.13 428.41 655.49 C 438.01 656.83 448.12 658.82 455.71 665.30 C 460.63 669.30 463.28 675.22 465.72 680.91 C 465.84 677.76 465.89 674.60 466.15 671.47 L 466.57 670.43 C 466.86 743.66 466.60 816.89 466.70 890.12 C 464.11 889.19 461.54 888.23 458.91 887.44 C 459.63 887.22 461.05 886.76 461.76 886.54 C 462.10 828.02 461.78 769.50 461.94 710.98 C 462.08 699.77 460.76 688.02 454.59 678.37 C 451.00 671.52 443.71 667.97 436.88 665.17 C 428.51 662.68 419.73 661.73 411.02 662.11 C 402.27 662.57 393.60 660.91 385.14 658.87 C 378.37 656.68 371.57 653.55 366.70 648.21 C 360.46 640.88 357.42 631.42 356.09 622.02 C 353.79 611.82 355.89 601.30 354.10 591.05 C 353.44 585.06 351.44 579.33 348.99 573.86 Z" />
</g>
<g id="#0082a5ff">
<path fill="#0082a5" opacity="1.00" d=" M 372.73 640.70 C 379.66 640.69 386.60 640.61 393.54 640.71 C 402.83 646.38 414.16 643.01 424.35 644.62 C 437.73 645.60 451.81 647.80 462.78 656.15 C 463.92 657.21 465.61 658.18 465.65 659.95 C 466.10 663.77 465.93 667.63 466.15 671.47 C 465.89 674.60 465.84 677.76 465.72 680.91 C 463.28 675.22 460.63 669.30 455.71 665.30 C 448.12 658.82 438.01 656.83 428.41 655.49 C 419.66 654.13 410.77 655.67 402.03 654.32 C 393.91 653.66 385.99 651.07 378.99 646.93 C 376.40 645.42 374.57 642.99 372.73 640.70 Z" />
</g>
<g id="#007595ff">
<path fill="#007595" opacity="1.00" d=" M 393.54 640.71 C 417.88 640.55 442.22 640.83 466.55 640.55 C 466.84 650.50 466.70 660.47 466.57 670.43 L 466.15 671.47 C 465.93 667.63 466.10 663.77 465.65 659.95 C 465.61 658.18 463.92 657.21 462.78 656.15 C 451.81 647.80 437.73 645.60 424.35 644.62 C 414.16 643.01 402.83 646.38 393.54 640.71 Z" />
</g>
<g id="#003746ff">
<path fill="#003746" opacity="1.00" d=" M 533.30 640.69 C 544.61 640.63 555.92 640.68 567.24 640.67 C 565.16 643.70 563.75 649.21 559.09 648.45 C 550.48 647.80 541.89 647.04 533.30 646.22 C 533.30 644.37 533.29 642.52 533.30 640.69 Z" />
</g>
<g id="#00546aff">
<path fill="#00546a" opacity="1.00" d=" M 543.93 822.63 C 547.85 821.63 551.85 820.93 555.89 820.52 C 557.12 820.39 558.37 820.29 559.62 820.22 C 561.69 820.60 563.75 821.04 565.82 821.46 C 566.09 860.30 565.84 899.15 565.96 938.00 C 566.26 946.16 565.20 954.28 564.10 962.35 C 555.43 962.36 546.77 962.38 538.10 962.40 C 540.69 954.85 542.18 946.94 543.07 939.03 C 543.22 905.03 543.07 871.02 543.11 837.02 C 543.08 832.36 543.71 827.61 542.28 823.09 C 542.69 822.98 543.52 822.75 543.93 822.63 Z" />
</g>
<g id="#00495dff">
<path fill="#00495d" opacity="1.00" d=" M 533.31 825.96 C 536.29 824.97 539.27 823.99 542.28 823.09 C 543.71 827.61 543.08 832.36 543.11 837.02 C 543.07 871.02 543.22 905.03 543.07 939.03 C 542.18 946.94 540.69 954.85 538.10 962.40 C 536.49 962.37 534.89 962.33 533.29 962.28 C 533.33 916.83 533.28 871.39 533.31 825.96 Z" />
</g>
<g id="#004f65ff">
<path fill="#004f65" opacity="1.00" d=" M 440.42 885.68 C 442.35 885.34 444.27 884.99 446.21 884.74 C 448.51 884.97 450.78 885.35 453.05 885.79 C 455.00 886.35 456.96 886.86 458.91 887.44 C 461.54 888.23 464.11 889.19 466.70 890.12 C 466.72 914.07 466.72 938.01 466.69 961.96 C 467.40 962.03 468.83 962.15 469.54 962.22 L 468.88 962.25 L 467.63 962.28 C 462.73 962.42 457.83 962.28 452.93 962.33 C 451.40 962.32 449.87 962.32 448.35 962.37 C 446.65 962.38 444.95 962.36 443.26 962.36 C 442.65 954.56 440.63 946.89 441.04 939.02 C 439.44 927.39 440.27 915.65 440.10 903.95 C 440.22 897.86 439.49 891.73 440.42 885.68 Z" />
</g>
<g id="#00000012">
<path fill="#000000" opacity="0.07" d=" M 441.91 964.07 C 443.64 962.66 446.24 962.87 448.35 962.37 C 449.87 962.32 451.40 962.32 452.93 962.33 C 456.22 973.89 463.40 983.79 471.27 992.67 C 473.58 994.82 476.18 996.65 478.34 998.98 C 474.21 999.20 469.82 998.21 465.92 1000.00 L 457.97 1000.00 C 451.31 988.73 443.96 977.23 441.91 964.07 Z" />
</g>
<g id="#0000003e">
<path fill="#000000" opacity="0.24" d=" M 467.63 962.28 L 468.88 962.25 C 473.84 963.46 478.97 962.69 484.01 963.16 C 487.98 968.16 494.84 969.87 500.96 969.99 C 506.53 969.28 512.84 967.69 516.23 962.80 C 521.64 963.22 527.04 962.73 532.44 962.54 C 527.80 973.47 517.48 981.44 505.94 983.80 C 490.25 986.60 473.37 977.15 467.63 962.28 Z" />
</g>
<g id="#00000051">
<path fill="#000000" opacity="0.32" d=" M 484.01 963.16 C 494.74 962.64 505.49 963.22 516.23 962.80 C 512.84 967.69 506.53 969.28 500.96 969.99 C 494.84 969.87 487.98 968.16 484.01 963.16 Z" />
</g>
<g id="#4b4b4b67">
<path fill="#4b4b4b" opacity="0.40" d=" M 465.92 1000.00 C 469.82 998.21 474.21 999.20 478.34 998.98 C 492.79 999.01 507.23 999.02 521.67 998.97 C 525.77 999.21 530.14 998.17 534.00 1000.00 L 465.92 1000.00 Z" />
</g>
</svg>
