<?xml version="1.0" encoding="UTF-8" ?>
<!DOCTYPE svg PUBLIC "-//W3C//DTD SVG 1.1//EN" "http://www.w3.org/Graphics/SVG/1.1/DTD/svg11.dtd">
<svg width="626pt" height="626pt" viewBox="0 0 626 626" version="1.1" xmlns="http://www.w3.org/2000/svg">
<g id="#000000ff">
<path fill="#000000" opacity="1.00" d=" M 363.80 57.83 C 371.98 51.77 382.87 50.68 392.66 52.38 C 401.78 53.96 409.16 60.19 415.01 67.01 C 418.36 71.26 420.91 76.18 422.48 81.35 C 424.74 91.17 422.44 101.30 419.72 110.78 C 417.70 117.88 413.59 124.18 411.69 131.33 C 414.65 130.60 417.56 129.65 420.32 128.34 C 433.33 122.18 446.56 116.48 459.92 111.13 C 466.12 122.45 469.39 135.06 475.56 146.40 C 480.18 157.47 485.85 168.18 489.15 179.76 C 483.77 182.21 478.28 184.42 473.02 187.12 C 477.93 200.22 483.59 213.02 489.02 225.90 C 491.26 232.71 494.01 239.33 497.21 245.76 C 506.06 266.43 515.29 286.94 523.72 307.79 C 457.93 336.46 391.87 364.53 326.02 393.07 C 323.27 394.22 320.30 394.66 317.35 394.97 C 314.84 390.21 312.92 385.18 310.80 380.25 C 306.82 371.71 304.24 362.59 299.75 354.28 C 288.33 328.73 277.43 302.95 266.62 277.14 C 260.57 278.84 254.84 281.47 249.04 283.84 C 241.38 267.92 234.87 251.47 227.67 235.34 C 224.70 228.21 220.82 221.28 220.08 213.45 C 231.62 208.54 243.16 203.63 254.68 198.68 C 261.08 195.87 267.84 193.72 273.69 189.80 C 266.74 187.78 259.44 187.02 252.72 184.24 C 240.81 179.50 230.76 170.17 225.59 158.40 C 221.90 151.58 221.97 143.36 224.05 136.06 C 228.12 123.96 238.73 114.40 251.05 111.24 C 256.63 110.03 262.41 110.21 268.09 110.38 C 275.25 110.51 281.71 113.98 288.00 117.02 C 301.24 124.11 312.93 133.93 322.74 145.26 C 325.50 148.42 328.34 151.52 331.53 154.27 C 331.81 152.60 332.09 150.94 332.32 149.27 C 333.83 138.84 332.05 128.31 332.82 117.85 C 334.46 106.35 337.24 94.97 341.01 84.00 C 346.26 73.60 354.31 64.57 363.80 57.83 M 370.40 79.39 C 360.86 90.63 357.22 105.52 355.79 119.88 C 353.82 131.30 353.10 143.19 355.96 154.52 C 364.67 152.75 371.88 147.12 377.20 140.19 C 385.02 130.67 392.64 120.70 397.17 109.14 C 399.20 103.77 401.49 98.11 400.58 92.25 C 399.86 88.13 398.25 84.22 396.54 80.42 C 395.09 77.41 393.25 74.04 389.85 72.96 C 382.82 71.11 375.03 73.88 370.40 79.39 M 247.00 139.95 C 244.93 145.51 246.84 152.00 250.66 156.34 C 255.04 161.35 261.45 163.84 267.79 165.25 C 281.72 169.74 296.85 169.80 311.10 166.84 C 304.91 157.26 296.29 149.53 287.20 142.78 C 279.58 137.25 270.62 132.60 260.98 132.75 C 255.67 132.94 249.46 134.78 247.00 139.95 Z" />
</g>
<g id="#090f0998">
<path fill="#090f09" opacity="0.60" d=" M 332.32 149.27 C 331.91 138.80 331.92 128.29 332.82 117.85 C 332.05 128.31 333.83 138.84 332.32 149.27 Z" />
</g>
<g id="#fa5555ff">
<path fill="#fa5555" opacity="1.00" d=" M 213.00 271.03 C 216.08 268.36 219.36 265.92 222.83 263.80 C 226.12 270.73 229.00 277.85 232.15 284.84 C 234.22 289.40 237.14 293.86 241.66 296.31 C 245.59 298.69 250.35 298.31 254.74 298.90 L 254.05 299.70 C 246.34 309.09 236.78 316.67 228.45 325.46 C 209.78 345.29 192.51 366.42 176.29 388.29 C 161.48 408.69 147.27 429.73 136.69 452.69 C 130.77 464.67 126.48 477.35 121.84 489.86 C 116.70 503.68 114.02 518.26 111.84 532.80 C 111.37 536.25 111.36 539.73 111.44 543.21 C 101.60 545.37 93.02 550.80 83.93 554.87 C 79.08 557.02 74.46 559.74 69.41 561.42 C 66.76 562.33 63.01 562.39 61.47 559.60 C 60.37 554.47 61.01 549.16 61.11 543.97 C 62.25 511.31 69.25 478.85 81.54 448.57 C 84.85 440.25 87.53 431.64 91.74 423.71 C 94.46 418.45 97.02 413.11 99.86 407.92 C 109.07 391.72 118.19 375.37 129.59 360.58 C 136.75 350.81 144.18 341.25 151.87 331.90 C 165.19 316.27 179.62 301.64 194.31 287.30 C 200.33 281.64 206.73 276.40 213.00 271.03 Z" />
</g>
<g id="#f7fb76ff">
<path fill="#f7fb76" opacity="1.00" d=" M 254.05 299.70 C 255.27 298.43 256.73 297.42 258.14 296.36 C 264.77 310.74 270.91 325.36 277.31 339.85 C 267.65 349.67 257.57 359.10 248.66 369.63 C 241.94 377.59 234.65 385.09 228.64 393.62 C 223.17 401.53 218.04 409.66 212.63 417.61 C 199.50 436.89 191.08 458.80 182.34 480.29 C 175.31 499.06 168.26 517.88 163.32 537.34 C 159.82 550.82 156.15 564.25 152.81 577.77 C 146.25 580.82 139.75 584.27 132.61 585.72 C 128.55 586.81 125.80 582.68 124.53 579.44 C 121.22 569.88 119.64 559.81 116.68 550.14 C 115.73 547.01 113.05 544.85 111.75 541.93 C 111.38 538.89 111.61 535.83 111.84 532.80 C 114.02 518.26 116.70 503.68 121.84 489.86 C 126.48 477.35 130.77 464.67 136.69 452.69 C 147.27 429.73 161.48 408.69 176.29 388.29 C 192.51 366.42 209.78 345.29 228.45 325.46 C 236.78 316.67 246.34 309.09 254.05 299.70 Z" />
</g>
<g id="#8ded8eff">
<path fill="#8ded8e" opacity="1.00" d=" M 277.31 339.85 C 282.62 351.92 287.76 364.07 292.82 376.24 C 294.72 380.42 296.64 384.59 298.10 388.94 C 294.54 393.40 290.22 397.16 286.20 401.20 C 272.81 415.68 262.16 432.44 252.61 449.63 C 246.84 459.86 242.35 470.73 237.37 481.36 C 230.76 494.92 225.84 509.21 220.36 523.25 C 213.22 541.72 207.50 560.68 201.50 579.54 C 198.27 589.71 195.63 600.07 192.03 610.12 C 191.19 611.60 190.56 614.62 188.28 613.80 C 186.63 612.28 185.68 610.19 184.80 608.18 C 181.41 599.86 178.06 591.52 174.87 583.13 C 173.38 579.37 171.13 575.04 166.78 574.19 C 161.86 573.78 157.34 576.26 152.81 577.77 C 156.15 564.25 159.82 550.82 163.32 537.34 C 168.26 517.88 175.31 499.06 182.34 480.29 C 191.08 458.80 199.50 436.89 212.63 417.61 C 218.04 409.66 223.17 401.53 228.64 393.62 C 234.65 385.09 241.94 377.59 248.66 369.63 C 257.57 359.10 267.65 349.67 277.31 339.85 Z" />
</g>
</svg>
