<?xml version="1.0" encoding="UTF-8" ?>
<!DOCTYPE svg PUBLIC "-//W3C//DTD SVG 1.1//EN" "http://www.w3.org/Graphics/SVG/1.1/DTD/svg11.dtd">
<svg width="512pt" height="512pt" viewBox="0 0 512 512" version="1.1" xmlns="http://www.w3.org/2000/svg">
<g id="#ffffffff">
</g>
<g id="#000000ff">
<path fill="#000000" opacity="1.00" d=" M 0.00 64.00 C 170.67 64.00 341.33 64.00 512.00 64.00 L 512.00 137.64 C 510.78 138.17 509.58 138.72 508.38 139.26 C 506.15 140.44 503.88 141.55 501.64 142.69 C 501.13 142.95 500.11 143.46 499.60 143.72 C 498.51 144.24 497.44 144.77 496.38 145.29 C 494.80 146.10 493.21 146.89 491.64 147.70 C 491.12 147.95 490.10 148.45 489.59 148.70 C 488.26 149.35 486.94 150.02 485.63 150.69 C 484.28 151.35 482.95 152.01 481.62 152.69 C 480.27 153.35 478.94 154.02 477.62 154.71 C 476.53 155.23 475.46 155.76 474.39 156.29 C 472.39 157.31 470.39 158.31 468.38 159.30 C 465.46 160.78 462.53 162.22 459.62 163.71 C 458.54 164.23 457.47 164.76 456.41 165.28 C 455.90 165.54 454.88 166.05 454.36 166.31 C 452.11 167.45 449.85 168.56 447.61 169.71 C 445.86 170.56 444.13 171.44 442.38 172.29 C 440.80 173.10 439.22 173.88 437.65 174.69 C 437.14 174.94 436.13 175.44 435.62 175.69 C 435.11 175.94 434.10 176.45 433.59 176.71 C 432.26 177.36 430.93 178.03 429.61 178.71 C 428.54 179.23 427.47 179.76 426.40 180.28 C 424.81 181.09 423.21 181.88 421.62 182.68 C 421.12 182.96 420.12 183.51 419.62 183.78 C 417.95 184.45 416.27 185.07 414.59 185.70 C 413.51 186.22 412.45 186.76 411.38 187.28 C 410.45 187.76 409.53 188.24 408.60 188.72 C 407.26 189.37 405.93 190.03 404.61 190.71 C 403.53 191.23 402.46 191.76 401.39 192.28 C 399.14 193.44 396.87 194.55 394.61 195.71 C 391.93 197.02 389.27 198.35 386.61 199.71 C 384.60 200.69 382.60 201.69 380.62 202.71 C 378.87 203.56 377.13 204.43 375.38 205.29 C 373.79 206.10 372.20 206.89 370.61 207.70 C 369.27 208.36 367.94 209.02 366.62 209.70 C 364.87 210.56 363.14 211.43 361.40 212.28 C 359.81 213.10 358.21 213.89 356.63 214.71 C 355.53 215.23 354.45 215.77 353.37 216.30 C 351.38 217.32 349.38 218.32 347.38 219.30 C 345.79 220.10 344.19 220.89 342.61 221.71 C 340.60 222.69 338.60 223.69 336.61 224.71 C 333.94 226.02 331.27 227.35 328.62 228.71 C 326.87 229.56 325.13 230.43 323.39 231.29 C 321.79 232.10 320.19 232.90 318.60 233.72 C 317.53 234.23 316.47 234.76 315.40 235.28 C 314.89 235.54 313.88 236.06 313.37 236.32 C 312.04 236.99 310.71 237.64 309.39 238.30 C 307.39 239.31 305.40 240.31 303.39 241.29 C 301.40 242.31 299.40 243.31 297.39 244.28 C 296.46 244.76 295.53 245.24 294.61 245.73 C 293.54 246.24 292.47 246.76 291.41 247.28 C 290.07 247.96 288.73 248.63 287.39 249.30 C 286.06 249.97 284.73 250.64 283.40 251.29 C 281.15 252.43 278.88 253.55 276.64 254.69 C 276.12 254.95 275.09 255.46 274.58 255.72 C 272.58 256.70 270.59 257.69 268.61 258.71 C 267.28 259.35 265.95 260.01 264.63 260.68 C 264.12 260.94 263.10 261.46 262.59 261.72 C 261.52 262.24 260.46 262.77 259.40 263.31 C 257.87 264.01 256.30 265.45 254.55 264.44 C 253.25 263.69 251.94 262.98 250.63 262.28 C 249.28 261.63 247.94 260.98 246.62 260.30 C 244.62 259.31 242.62 258.32 240.64 257.30 C 238.89 256.44 237.15 255.57 235.39 254.73 C 234.47 254.25 233.56 253.77 232.64 253.30 C 232.13 253.04 231.11 252.54 230.60 252.28 C 229.51 251.76 228.44 251.22 227.36 250.70 C 225.78 249.89 224.20 249.11 222.63 248.30 C 222.12 248.05 221.10 247.54 220.59 247.29 C 218.85 246.43 217.12 245.56 215.38 244.71 C 213.13 243.55 210.86 242.44 208.61 241.29 C 206.61 240.31 204.62 239.32 202.64 238.32 C 202.13 238.06 201.11 237.54 200.60 237.28 C 199.53 236.76 198.47 236.23 197.40 235.72 C 196.89 235.46 195.87 234.94 195.36 234.68 C 193.37 233.67 191.38 232.68 189.38 231.72 C 188.46 231.23 187.54 230.75 186.62 230.26 C 185.53 229.75 184.46 229.24 183.38 228.73 C 182.45 228.24 181.53 227.76 180.61 227.27 C 178.87 226.43 177.14 225.57 175.41 224.72 C 174.90 224.46 173.88 223.94 173.37 223.68 C 172.04 223.01 170.71 222.35 169.38 221.70 C 167.39 220.69 165.39 219.69 163.39 218.71 C 161.39 217.68 159.38 216.68 157.37 215.70 C 154.73 214.35 152.07 213.02 149.41 211.71 C 148.90 211.46 147.87 210.94 147.36 210.68 C 145.38 209.68 143.39 208.68 141.40 207.71 C 140.06 207.02 138.72 206.35 137.37 205.69 C 135.38 204.68 133.38 203.68 131.37 202.72 C 130.45 202.23 129.54 201.75 128.63 201.27 C 127.54 200.75 126.46 200.23 125.38 199.72 C 123.80 198.90 122.22 198.11 120.64 197.31 C 120.13 197.05 119.11 196.55 118.59 196.29 C 117.27 195.64 115.95 194.98 114.64 194.32 C 114.13 194.06 113.11 193.54 112.60 193.28 C 111.53 192.76 110.47 192.23 109.40 191.72 C 108.90 191.46 107.89 190.94 107.38 190.68 C 106.87 190.43 105.86 189.94 105.35 189.69 C 103.77 188.88 102.19 188.09 100.61 187.28 C 99.54 186.76 98.48 186.22 97.41 185.70 C 95.73 185.07 94.04 184.45 92.38 183.77 C 90.41 182.69 88.41 181.68 86.40 180.71 C 84.80 179.89 83.19 179.10 81.60 178.28 C 79.86 177.43 78.13 176.56 76.39 175.71 C 74.40 174.69 72.40 173.69 70.39 172.71 C 68.40 171.69 66.40 170.69 64.39 169.71 C 61.07 168.02 57.74 166.36 54.40 164.71 C 53.89 164.46 52.87 163.94 52.36 163.68 C 51.04 163.01 49.72 162.36 48.39 161.72 C 47.46 161.24 46.54 160.76 45.61 160.28 C 43.87 159.43 42.13 158.56 40.39 157.72 C 38.80 156.90 37.21 156.10 35.62 155.29 C 32.94 153.98 30.26 152.65 27.61 151.28 C 26.54 150.76 25.47 150.24 24.40 149.72 C 23.89 149.46 22.88 148.95 22.37 148.69 C 19.71 147.34 17.05 146.01 14.38 144.70 C 12.13 143.55 9.86 142.44 7.62 141.29 C 6.54 140.76 5.48 140.22 4.41 139.69 C 2.95 138.98 1.48 138.29 0.00 137.64 L 0.00 64.00 Z" />
<path fill="#000000" opacity="1.00" d=" M 0.00 176.65 C 1.21 177.17 2.41 177.72 3.61 178.26 C 7.17 180.14 10.80 181.87 14.38 183.70 C 15.72 184.36 17.06 185.03 18.39 185.71 C 19.47 186.23 20.54 186.77 21.63 187.29 C 23.61 188.31 25.61 189.31 27.61 190.30 C 28.94 190.97 30.28 191.64 31.62 192.30 C 33.20 193.11 34.80 193.89 36.38 194.70 C 38.39 195.68 40.39 196.68 42.37 197.71 C 43.46 198.23 44.53 198.76 45.61 199.28 C 47.20 200.10 48.79 200.90 50.38 201.72 C 51.46 202.23 52.53 202.76 53.61 203.28 C 55.86 204.44 58.13 205.55 60.37 206.71 C 61.45 207.23 62.52 207.75 63.60 208.28 C 64.10 208.53 65.11 209.05 65.61 209.31 C 66.11 209.56 67.11 210.05 67.61 210.30 C 70.26 211.64 72.92 212.97 75.59 214.29 C 76.10 214.54 77.12 215.06 77.63 215.31 C 79.61 216.32 81.60 217.31 83.59 218.29 C 84.10 218.54 85.12 219.04 85.64 219.29 C 86.55 219.77 87.47 220.24 88.39 220.72 C 90.13 221.57 91.87 222.43 93.61 223.28 C 95.20 224.10 96.80 224.90 98.38 225.72 C 99.46 226.23 100.53 226.76 101.61 227.28 C 102.93 227.96 104.25 228.63 105.58 229.30 C 106.10 229.55 107.13 230.06 107.64 230.31 C 110.28 231.66 112.94 232.99 115.61 234.27 C 116.53 234.75 117.45 235.24 118.37 235.73 C 119.46 236.24 120.54 236.77 121.62 237.29 C 122.94 237.97 124.27 238.64 125.61 239.30 C 127.60 240.31 129.60 241.31 131.62 242.29 C 133.20 243.10 134.78 243.89 136.36 244.70 C 136.87 244.95 137.88 245.44 138.39 245.69 C 138.90 245.95 139.91 246.46 140.41 246.71 C 141.74 247.36 143.07 248.03 144.39 248.70 C 146.13 249.56 147.86 250.43 149.61 251.29 C 151.20 252.10 152.79 252.89 154.38 253.71 C 156.38 254.68 158.37 255.67 160.36 256.68 C 160.87 256.94 161.89 257.46 162.39 257.72 C 163.46 258.23 164.53 258.76 165.60 259.28 C 167.19 260.09 168.79 260.89 170.38 261.71 C 172.13 262.56 173.88 263.44 175.63 264.30 C 176.95 264.98 178.28 265.64 179.62 266.30 C 181.60 267.31 183.59 268.31 185.60 269.28 C 187.19 270.09 188.79 270.89 190.38 271.71 C 191.72 272.36 193.06 273.02 194.39 273.70 C 195.73 274.36 197.06 275.03 198.39 275.72 C 199.46 276.23 200.53 276.76 201.61 277.28 C 203.20 278.09 204.79 278.89 206.38 279.71 C 207.71 280.35 209.04 281.01 210.37 281.68 C 210.88 281.94 211.89 282.46 212.40 282.72 C 213.47 283.23 214.54 283.76 215.61 284.28 C 217.86 285.45 220.14 286.56 222.40 287.71 C 224.41 288.69 226.40 289.69 228.38 290.72 C 229.46 291.23 230.54 291.75 231.63 292.27 C 232.53 292.75 233.44 293.23 234.36 293.71 C 234.87 293.96 235.90 294.47 236.41 294.72 C 237.48 295.24 238.55 295.77 239.63 296.29 C 241.20 297.10 242.80 297.89 244.38 298.71 C 245.72 299.36 247.06 300.02 248.40 300.70 C 250.15 301.55 251.88 302.45 253.57 303.43 C 255.14 304.11 256.82 304.14 258.39 303.45 C 260.09 302.46 261.84 301.56 263.60 300.70 C 264.94 300.02 266.27 299.35 267.62 298.70 C 268.94 298.02 270.28 297.35 271.62 296.70 C 273.61 295.68 275.60 294.69 277.60 293.71 C 279.60 292.69 281.60 291.69 283.61 290.71 C 286.52 289.22 289.45 287.78 292.37 286.31 C 292.88 286.06 293.90 285.55 294.41 285.30 C 295.73 284.64 297.06 283.97 298.38 283.30 C 300.39 282.31 302.39 281.31 304.38 280.29 C 305.46 279.77 306.54 279.24 307.63 278.73 C 308.54 278.24 309.46 277.75 310.39 277.26 C 311.46 276.75 312.53 276.23 313.61 275.72 C 314.93 275.03 316.26 274.36 317.60 273.70 C 318.10 273.45 319.11 272.94 319.62 272.69 C 320.94 272.02 322.27 271.36 323.61 270.71 C 325.20 269.89 326.79 269.10 328.38 268.28 C 329.46 267.76 330.53 267.24 331.62 266.73 C 332.54 266.24 333.46 265.76 334.39 265.28 C 335.73 264.63 337.07 263.97 338.40 263.30 C 340.13 262.43 341.86 261.56 343.61 260.71 C 344.93 260.03 346.27 259.36 347.61 258.70 C 349.60 257.69 351.59 256.69 353.60 255.71 C 354.93 255.03 356.27 254.36 357.62 253.70 C 359.87 252.55 362.14 251.44 364.39 250.29 C 367.07 248.98 369.73 247.65 372.39 246.29 C 375.73 244.65 379.06 242.98 382.39 241.29 C 385.07 239.98 387.73 238.65 390.38 237.28 C 391.45 236.76 392.52 236.24 393.59 235.73 C 394.10 235.47 395.13 234.94 395.64 234.68 C 396.95 234.01 398.28 233.35 399.61 232.70 C 401.60 231.68 403.61 230.68 405.62 229.71 C 407.20 228.89 408.79 228.10 410.37 227.28 C 411.46 226.76 412.54 226.24 413.63 225.73 C 414.54 225.24 415.45 224.76 416.37 224.27 C 417.45 223.75 418.52 223.23 419.61 222.72 C 420.93 222.03 422.26 221.36 423.60 220.71 C 425.19 219.89 426.79 219.10 428.39 218.29 C 430.38 217.31 432.37 216.32 434.36 215.32 C 434.87 215.06 435.89 214.54 436.41 214.27 C 437.47 213.76 438.53 213.23 439.61 212.72 C 441.18 211.91 442.77 211.12 444.35 210.31 C 444.86 210.05 445.88 209.54 446.39 209.28 C 447.46 208.76 448.54 208.24 449.62 207.73 C 450.54 207.24 451.46 206.76 452.38 206.28 C 454.13 205.43 455.87 204.56 457.62 203.71 C 459.87 202.55 462.14 201.44 464.39 200.28 C 465.46 199.76 466.54 199.23 467.62 198.72 C 469.20 197.90 470.80 197.10 472.39 196.29 C 473.72 195.63 475.06 194.97 476.39 194.29 C 477.45 193.77 478.52 193.23 479.60 192.72 C 480.11 192.46 481.12 191.95 481.63 191.69 C 483.88 190.55 486.14 189.44 488.39 188.29 C 489.45 187.77 490.52 187.24 491.60 186.72 C 493.85 185.56 496.13 184.45 498.39 183.29 C 499.45 182.76 500.52 182.23 501.61 181.71 C 502.93 181.03 504.27 180.37 505.62 179.72 C 506.53 179.22 507.45 178.73 508.37 178.24 C 509.57 177.72 510.77 177.19 512.00 176.70 L 512.00 448.00 C 341.33 448.00 170.67 448.00 0.00 448.00 L 0.00 176.65 Z" />
</g>
</svg>
