<?xml version="1.0" encoding="iso-8859-1"?>
<!-- Generator: Adobe Illustrator 19.0.0, SVG Export Plug-In . SVG Version: 6.00 Build 0)  -->
<svg version="1.1" id="Layer_1" xmlns="http://www.w3.org/2000/svg" xmlns:xlink="http://www.w3.org/1999/xlink" x="0px" y="0px"
	 viewBox="0 0 297 297" style="enable-background:new 0 0 297 297;" xml:space="preserve">
<g>
	<g>
		<circle style="fill:#5B5869;" cx="148.5" cy="148.5" r="148.5"/>
	</g>
	<g>
		<path style="fill:#4C4A59;" d="M297,148.5c0-5.229-0.274-10.394-0.801-15.483l-88.304-86.235L64.293,245.531l45.181,46.276
			C121.911,295.186,134.993,297,148.5,297C230.514,297,297,230.514,297,148.5z"/>
	</g>
	<g>
		<path style="fill:#CA4241;" d="M79.75,252.7h137.5c11.184,0,20.25-9.066,20.25-20.25V110.3h-178v122.15
			C59.5,243.634,68.566,252.7,79.75,252.7z"/>
	</g>
	<g>
		<path style="fill:#EF717A;" d="M49.5,148.5h198v-40.333c0-14.175-11.491-25.667-25.667-25.667H75.167
			C60.991,82.5,49.5,93.991,49.5,108.167V148.5z"/>
	</g>
	<g>
		<g>
			<path style="fill:#ECF0F1;" d="M94.008,82.634c-11.255-7.416-14.873-21.784-8.081-32.093s21.423-12.654,32.678-5.238
				s25.063,27.023,18.271,37.332L94.008,82.634z"/>
		</g>
	</g>
	<g>
		<g>
			<path style="fill:#ECF0F1;" d="M202.992,82.634c11.255-7.416,14.873-21.784,8.081-32.093s-21.423-12.654-32.678-5.238
				s-25.063,27.023-18.271,37.332L202.992,82.634z"/>
		</g>
	</g>
	<g>
		<path style="fill:#D0D5D9;" d="M159.417,82.5h-21.833C134.5,82.5,132,80,132,76.916v-5.333C132,68.5,134.5,66,137.583,66h21.833
			C162.5,66,165,68.5,165,71.584v5.333C165,80,162.5,82.5,159.417,82.5z"/>
	</g>
	<g>
		<rect x="132" y="82.5" style="fill:#ECF0F1;" width="33" height="170.2"/>
	</g>
</g>
<g>
</g>
<g>
</g>
<g>
</g>
<g>
</g>
<g>
</g>
<g>
</g>
<g>
</g>
<g>
</g>
<g>
</g>
<g>
</g>
<g>
</g>
<g>
</g>
<g>
</g>
<g>
</g>
<g>
</g>
</svg>
