<?xml version="1.0" encoding="utf-8"?>
<!-- Generator: Adobe Illustrator 19.1.0, SVG Export Plug-In . SVG Version: 6.00 Build 0)  -->
<svg version="1.1" id="Layer_1" xmlns="http://www.w3.org/2000/svg" xmlns:xlink="http://www.w3.org/1999/xlink" x="0px" y="0px"
	 viewBox="0 0 150 150" style="enable-background:new 0 0 150 150;" xml:space="preserve">
<style type="text/css">
	.st0{fill:#2A4E5C;}
	.st1{fill:none;stroke:#ED1C24;stroke-width:2;}
	.st2{fill:#223E49;}
	.st3{fill:#2AA9D0;}
	.st4{fill:#96C72F;}
	.st5{opacity:0.15;fill-rule:evenodd;clip-rule:evenodd;fill:#FFFFFF;}
</style>
<circle class="st0" cx="75" cy="75" r="75"/>
<path class="st1" d="M-173.6,82.9"/>
<g>
	<path class="st2" d="M149.7,83.9l-34.2-33.7L40.6,110L84,148.5c0,0,1,0.8,1,0.8C117.9,145.7,146.4,117.6,149.7,83.9z"/>
</g>
<g>
	<circle class="st3" cx="75.2" cy="73.9" r="48.7"/>
	<g>
		<g>
			<g id="continents_6_">
				<path class="st4" d="M114.9,75.8c0,0-0.3,0.2-0.5,0.3c-0.2,0.1-0.4,0.1-0.9,0.1c-0.5,0-0.4,0.1-0.7,0.1c-0.4,0-0.2,0.2-0.6,0.3
					c-0.3,0-0.6,0.1-0.8,0.1c-0.2,0-0.2-0.3-0.3-0.3c-0.1,0-0.2-0.1-0.2-0.2c0,0,0,0,0-0.1c0-0.1,0-0.3,0-0.5c0-0.2-0.1-0.3-0.3-0.5
					c-0.2-0.1-0.2-0.3-0.4-0.5c-0.2-0.3-0.6-0.6-0.9-0.7c-0.3-0.1,0-0.2-0.5-0.8c-0.5-0.6-0.2-0.2-0.3-0.7c0-0.2-0.1-0.3-0.2-0.3
					c-0.1-0.1-0.2-0.1-0.4-0.3c-0.4-0.4-0.3-0.2-0.4-0.4c-0.1-0.1,0-0.5,0-0.7c0-0.1-0.4-0.9-0.6-1.3c-0.1-0.4-0.4-0.2-0.3-0.3
					c0.1-0.1,0-0.1-0.1-0.3c-0.1-0.1-0.1-0.3-0.2-0.5c-0.1-0.6-0.4-1-0.7-1.4c-0.3-0.4-0.2-0.3-0.2-0.6c0-0.3-0.6-0.8-0.6-0.9
					c0-0.2-0.2-0.5-0.1-0.4c0.1,0.1,0.3,0.5,0.4,0.7c0.1,0.2,0,0.1,0.5,0.5c0.5,0.4,0.1-0.1,0.2-0.5c0-0.1,0-0.3-0.1-0.5
					c-0.1-0.5-0.3-1-0.4-1c-0.1,0-0.2,0-0.5,0c-0.3,0-0.2-0.1-0.5-0.1c-0.3,0-0.2-0.2-0.7-0.2c-0.5,0-0.5,0.3-0.9,0.4
					c-0.4,0.1-1-0.5-1.2-0.5c-0.2,0-0.8,0-0.9,0c-0.1,0-0.2-0.1-0.3-0.2c-0.1,0-0.1,0-0.2,0c-0.2,0-0.7-0.3-0.7-0.3
					s-0.2-0.1-0.4-0.4c-0.2-0.3-0.6-0.1-0.8-0.1c-0.2,0-0.3,0.3-0.5,0.5c-0.2,0.1,0,0.6,0,0.8c0,0.3-0.2,0.1-0.3,0.2
					c-0.2,0.1-0.7,0-0.9-0.2c-0.2-0.2-0.1-0.1-0.3-0.3c-0.2-0.2-0.8-0.1-0.9-0.1c-0.2,0-0.2,0-0.3-0.4c-0.1-0.4-0.3-0.5-0.3-0.5
					S94,63,93.7,63c-0.3,0-0.5-0.1-0.7-0.1c-0.1,0-0.2-0.1-0.3-0.2c-0.1-0.1-0.2-0.2-0.3-0.2c-0.2,0-0.3-0.2-0.3-0.2
					s-0.2-0.2-0.1-0.4c0-0.2,0.2-0.3,0.3-0.5c0.1-0.2-0.1-0.5-0.2-0.6c-0.1-0.1,0.3-0.5,0.3-0.5s-0.4,0.2-0.4,0
					c0-0.2-0.5-0.3-0.5-0.3c-0.2,0-0.4,0.1-0.5,0.1c0,0-0.4,0-0.5,0c-0.1,0-0.5,0-0.5,0c-0.2,0-0.5,0-0.7,0c0,0-0.4,0.1-1.2,0.1
					c-0.8,0.1-0.8,0-1,0c-0.1,0-0.4,0.1-0.4,0.1s-0.5,0-0.7,0.2c-0.2,0.1-0.2,0.2-0.4,0.2c-0.2,0-0.3,0-0.7,0.2
					c-0.3,0.1,0,0-0.1,0.1c-0.1,0.1-0.1,0.2-0.2,0.2c0,0-0.1,0-0.1,0c-0.2-0.1-0.2-0.1-0.4-0.1c-0.1,0-0.3,0-0.4,0
					c-0.2,0-0.4,0-0.6,0c-0.2,0-0.5-0.2-0.5-0.2s-0.2-0.3-0.5-0.3c-0.3-0.1-0.3,0.1-0.3,0.1s0,0.2-0.1,0.3c0,0.1-0.2,0.3-0.2,0.5
					c0,0.2-0.4,0.2-0.4,0.3c-0.1,0.1-0.3,0.1-0.6,0.2c-0.3,0.1-0.5,0.1-0.7,0.3c-0.2,0.3-0.4,0.4-0.5,0.6c0,0.2-0.2,0.3-0.2,0.5
					c0,0.2,0.1,0.5,0.1,0.5c0,0.1,0,0.2,0,0.3c0,0-0.4,0.3-0.4,0.5c0,0.3-0.7,0.2-0.7,0.2c0,0-0.5,0.2-0.7,0.4
					c-0.1,0.1-0.5,0.2-0.7,0.2c0,0,0,0,0,0c-0.1,0,0.1,0.5-0.7,0.8c-0.8,0.3-0.8,0.9-0.9,1.1c-0.1,0.2-0.1,0.2-0.3,0.4
					c-0.2,0.2-0.3,0.6-0.3,0.6s-0.5,0.5-0.7,0.8c-0.2,0.3-0.1,0.2-0.2,0.4c0,0.3,0.1,0.3,0.2,0.5c0.1,0.2,0,0.2,0.3,0.2
					c0.2,0.1,0,0.5,0,0.9c0,0.4,0,0.2,0,0.6c0,0.3-0.1,0.5-0.1,0.9c0,0.1,0,0.2,0,0.3c0,0.1,0,0.2-0.1,0.3c-0.1,0.1-0.5,0.7-0.5,0.7
					c0,0-0.1,0.2-0.1,0.4c0,0.2,0,0.2,0,0.5c0,0.2,0,0-0.1,0.4c-0.1,0.4,0,0-0.1,0.3c-0.1,0.3,0.4,0.5,0.4,0.5s0,0,0,0
					c0,0,0.1,0.1,0.2,0.2c0.2,0.2,0.6,0.1,0.6,0.1c-0.1,0.2,0.2,0.4,0.3,0.4c0.1,0,0.1,0,0.1,0s0.2,0.3,0.4,0.4
					c0.2,0.1,0.1,0.2,0.4,0.4c0.2,0.1,0.3,0.3,0.4,0.5c0,0.1,0.1,0.2,0.1,0.2s0,0.4,0,0.5c0,0.1,0.3,0.3,0.5,0.4
					c0.1,0.1,0.2,0.2,0.6,0.3c0.1,0,0.1,0.1,0.2,0.1c0.2,0.1,0.2,0.2,0.3,0.3c0.2,0.2,1,0.7,1,0.7s0.5,0.3,0.9,0.5
					c0.4,0.3,0.5,0.1,0.5,0.1c0,0,0.1,0,0.1,0c0.1,0,0.3,0,0.4-0.1c0,0,0.5-0.2,0.6-0.2c0.1,0,0.3-0.2,0.8-0.2c0.5,0,0.6,0,1,0
					c0.4,0,0.2,0.1,0.4,0.2c0.2,0.1,0.3,0,0.4,0c0.1,0,0.1,0,0.1,0c0.2-0.1,0.3-0.1,0.5-0.2c0,0,0.4-0.1,0.5-0.2
					c0.1-0.1,0.4-0.2,0.6-0.2c0.2,0,0.3-0.2,0.5-0.2c0.3,0,0.3-0.2,0.3-0.2c0,0,0.1,0,0.1,0c0.2,0,0.5-0.1,0.6-0.1c0,0,0,0,0,0
					c0.3,0,0.5,0,0.9,0c0.3,0,0.3,0.1,0.8,0.4c0.5,0.3,0.1,0.3,0,0.6c-0.1,0.3,0.1,0.3,0.4,0.3c0.3,0,0.6-0.2,0.8-0.2
					c0.3,0,0.8-0.2,0.8-0.2c0,0,0,0,0,0c0.1,0.1,0.2,0.2,0.3,0.3c0,0,0.2,0.1,0.5,0.6c0.2,0.3,0.1,0.5,0,0.7c0,0.1-0.1,0.1-0.1,0.2
					c-0.1,0.1-0.1,0.4-0.2,0.6c0,0.1,0,0.2,0,0.3c0,0.2-0.3,0.4-0.4,1c-0.1,0.5,0.6,1.3,1.2,1.8c0.1,0.1,0.2,0.2,0.3,0.3
					c0.2,0.1,0.3,0.3,0.3,0.4c0.1,0.2,0.1,0.4,0.2,0.6c0.1,0.4,0.1,0.7,0.2,1c0.2,0.6,0.6,0.6,0.4,0.7c-0.2,0-0.1,0.9,0.1,1
					c0.2,0.1,0.3,1-0.3,1.8c-0.5,0.6-1,2-1.2,2.9c0,0.1-0.1,0.3-0.1,0.4c-0.1,0.8,1.2,3.3,1.2,3.3c0,0,0.2,1.7,0.2,2.4
					c-0.1,0.6,0.5,1.3,0.7,1.7c0,0.1,0.1,0.1,0.1,0.2c0.1,0.2,0,0.9,0.4,1.6c0.5,0.7-0.3,1.4,0.1,2.3c0.4,0.9,0.9,0.6,1.5,0.1
					c0.7-0.5,1,0,1.3-0.1c0.3,0,1-0.5,1.5-0.5c0.5,0,0.4-0.8,1.3-1.2c0.9-0.4,1.1-0.6,1.4-1.5c0.2-0.9,0.8-1.1,1.4-1.6
					c0.5-0.4,0.5-0.6,0.4-1.1c0-0.1,0-0.2-0.1-0.2c-0.2-0.7,1.3-1.2,1.3-1.2c0.3,0,0.5-0.4,0.6-1.2c0.1-0.8,0.1-1.3-0.3-1.8
					c-0.4-0.5,0.2-0.6,0.5-0.8c0.3-0.2,0.5-0.4,0.7-0.6c0.2-0.2,0.3-0.5,0.5-0.7c0.2-0.2,0.8-0.4,1-0.5c0.2-0.2,0.6-0.4,0.8-0.8
					c0.3-0.4,0.3-0.4,0.2-0.8c-0.1-0.4,0-0.4,0.1-1.2c0-0.8,0.1-1,0.1-1s-0.1-0.2-0.1-0.4c-0.1-0.3-0.2-0.7-0.2-1
					c-0.1-0.5,0-0.7-0.1-0.9c-0.1-0.2-0.2-0.4-0.2-0.9c0-0.5,0.3-0.2,0.3-0.6c0,0,0,0,0,0c0-0.4,0.1-0.5,0.3-0.7
					c0.2-0.1,0-0.6,0.2-0.7c0.2-0.1,0.5-0.4,0.6-0.6c0,0,0,0,0,0s0.4-0.4,0.5-0.5c0.1-0.1,0.5-0.7,0.7-0.9c0.1-0.2,0.6-0.6,0.7-0.7
					c0.1-0.1,0.5-0.1,0.5-0.3c0.1-0.1,0.6-0.8,0.7-0.9c0.2-0.1,0.5-0.6,0.7-0.9c0.1-0.3,0.2-0.7,0.6-1.4c0.4-0.7,0.5-2.2,0.7-2.5
					C115.3,75.7,114.9,75.8,114.9,75.8z M79.3,65.7c0,0,0.1,0,0.2,0c0.1,0,0.1,0,0.1,0C79.6,65.7,79.4,65.7,79.3,65.7z"/>
				<path class="st4" d="M40.8,47.8c0,0,0.3-0.1,0.4-0.2c0.2-0.1,0.5-0.8,0.6-0.9c0.1-0.1-1.1,0.1-1.1,0.1c-0.1,0.2-0.5,0.8-0.6,0.9
					c-0.1,0.1-0.1,0.7-0.2,0.8c-0.1,0.1-0.4,0.7-0.6,0.8c-0.2,0.2-0.4,0.6-0.4,0.6c0.1,0.1,0.1,0.2,0.2,0.4c0.1-0.1,0.3-0.1,0.4-0.2
					c0.1-0.2,0.2-0.3,0.3-0.5c0.2-0.1,0.3-0.1,0.5-0.2c0-0.1-0.1-0.3-0.1-0.4c0-0.2,0-0.3,0-0.5C40.6,48.2,40.7,48,40.8,47.8z"/>
				<path class="st4" d="M48.2,48.4c0.2-0.1,0.7,0.1,0.8,0.3c0.1,0.2,0.2,0.3,0.4-0.1c0.2-0.4,0-0.5,0.6-0.8
					c0.6-0.3,0.8-0.6,0.1-0.7c-0.7,0-0.6-0.1-1.1-0.2c-0.5,0-0.9,0.3-1,0.1c-0.1-0.2,0.8-0.6,0.8-0.6c0,0,0.6-0.6,0.1-0.4
					c-0.5,0.2-1.4,0.2-0.9,0.1c0.4-0.2-0.3-0.2-0.3-0.2c-0.1-0.1-0.1-0.2-0.2-0.3c0,0-0.7,0.1-0.5-0.1c0.1-0.1-0.6,0-0.4-0.1
					c0.1-0.1,0.2-0.4,0.1-0.4c-0.1,0-0.8-0.1-1.2,0.2c-0.4,0.2-0.1,0.7,0.1,0.6c0.2-0.1,0.4,0,0.4,0s-0.4,0.2-0.5,0.3
					c-0.1,0-0.8,0.4-0.8,0.4c0.1-0.1,0.2-0.2,0.2-0.4c0.1-0.1,0.1-0.3,0.2-0.4c0-0.1,0-0.2,0-0.3c-0.2,0.1-0.4,0.2-0.6,0.3
					c-0.2,0.1-0.4,0.2-0.5,0.3c-0.1,0.1-0.2,0.2-0.3,0.3c0.1-0.2,0.1-0.4,0.2-0.6c-0.1,0.2-0.3,0.4-0.4,0.5c-0.1,0.1,0.1,1.4,0,1.4
					c-0.1,0.1-0.5-0.4-0.5-0.4s0.2-0.4,0.3-0.5c0-0.2-0.4-0.4-0.4-0.4c-0.2,0.3-0.5,0.6-0.7,0.9c-0.1,0.2-0.3,0.3-0.4,0.5
					c0,0.2,0,0.3,0.1,0.5c0.2-0.1,0.4-0.1,0.6-0.2c-0.2,0.2-0.4,0.3-0.6,0.5c0,0.1,0.1,0.2,0.1,0.3c0.2-0.1,0.3-0.1,0.5-0.2
					c0,0,0.8-0.1,1.3-0.4c0.6-0.2,1.1-0.5,1.1-0.5c0.1-0.1,0.2-0.3,0.3-0.4c0,0,0.8,0,0.9,0.3c0.1,0.3,0.6,0.3,0.7,0.5
					c0,0.3-0.1,0.6-0.4,0.8c-0.3,0.2-0.4,0.9-0.4,0.9s0,0.3-0.2,0.4c-0.2,0.1-0.7,0.1-0.8,0.2c-0.2,0.1-0.5,0.4-0.5,0.4
					c0,0-0.5,0.9-0.1,0.7c0.4-0.2,0.2-0.2,0.5-0.3c0.2-0.1,1.1-0.8,1.3-0.1c0.2,0.6,0.7,0.5,0.9,0.4c0.2,0,0.8,0.1,0.8-0.1
					c0-0.1,0.5-0.3,0-0.6c-0.5-0.3-0.3-0.6,0-0.4c0.3,0.2,0.6,0.3,0.8-0.1c0.1-0.5,0.6-0.6,0.1-1c-0.5-0.3-0.5-0.5-0.5-0.5
					C47.8,48.9,48,48.5,48.2,48.4z"/>
				<path class="st4" d="M50.4,56.6c-0.6,0.3-0.6,0.3-0.6,0.3c0,0,0,0,0,0.1c0,0-0.4,0.4-0.6,0.8c-0.1,0.4-0.3,0.7-0.5,0.8
					c-0.2,0.2-0.4,1.1-0.4,1.1c0,0,0,0,0.8-0.3c0.8-0.3,1.2-0.7,1.2-0.7c0,0.1,0.1,0.2,0.1,0.3c0.1,0,0.3,0,0.4,0.1
					c0,0,0.2-0.1,0.4-0.3c0.1-0.2,0.1-0.4,0.1-0.4c0,0-0.1-0.1-0.1-0.1c0-0.1-0.1-0.2-0.1-0.4c0-0.1,0-0.3,0-0.4c0,0-0.4,0-0.7,0.2
					c-0.2,0.2-0.4,0.1-0.4,0.1c0.1-0.1,0.1-0.2,0.2-0.4c0,0-0.4,0-0.5,0.1C50,57.3,50.9,56.4,50.4,56.6z"/>
				<path class="st4" d="M40,44.8c0.2-0.1,0.3-0.2,0.5-0.2c0,0.1,0.1,0.1,0.1,0.2c0.1,0,0.2-0.1,0.3-0.1c0-0.2,0-0.3-0.1-0.5
					c-0.1,0-0.3-0.1-0.4-0.1c-0.1,0.1-0.2,0.1-0.4,0.2c-0.2,0.1-0.4,0.3-0.6,0.4c0.1,0,0.3,0,0.4,0C40,44.7,40,44.7,40,44.8z"/>
				<path class="st4" d="M39.8,46.8c0.2-0.1,0.5,0,0.5-0.2c0-0.2,0.1-0.4,0.1-0.4c0-0.1,0-0.3,0.1-0.4c-0.2,0-0.4,0.1-0.6,0.1
					c0,0.1,0,0.2,0,0.3c0,0-0.1,0.5-0.1,0.4c-0.1-0.2-0.2-0.6-0.2-0.5c-0.1,0.1-0.3,0.6-0.3,0.6c0.1,0.1,0.1,0.3,0.2,0.4
					C39.4,47,39.6,46.9,39.8,46.8z"/>
				<path class="st4" d="M37.9,49.1c0.1,0,0.3,0.1,0.4,0.1c0,0-0.1,0.5,0.3,0.3c0.4-0.1,0.3-0.4,0.3-0.4s0.5-0.3,0.6-0.4
					c0.2-0.1-0.1-0.7-0.1-0.7c0.1,0,0.2-0.1,0.3-0.1c0,0,0.3-0.6,0.2-0.8c-0.1-0.2-0.5,0.4-0.6,0.4c-0.2,0.1-0.5,0.2-0.5,0.2
					c-0.1,0.1-0.2,0.2-0.2,0.3c0,0.2,0,0.3,0,0.5c0,0,0,0-0.3-0.1C38,48.5,37.9,49.1,37.9,49.1z"/>
				<path class="st4" d="M70.4,30.6c-0.8,0.2-1.4,0.5-1.5,0.6c-0.2,0.1-0.9,0.4-1,0.4c-0.1,0,0.4-0.3,0-0.4c0,0-0.1,0-0.1,0
					c0,0,0,0,0,0c0,0-0.2-0.2-0.2-0.2c0,0-0.3,0-0.3,0c-0.1-0.1-0.2-0.1-0.3-0.2c0,0-0.4,0.2-0.4,0.2c-0.1,0-0.3,0-0.4,0
					c-0.1,0-0.4,0-0.4,0c-0.1,0.1-0.2,0.2-0.3,0.3c0,0-0.1-0.1-0.1-0.1c-0.1,0-0.2,0.1-0.3,0.1c-0.1,0-0.3,0.1-0.4,0.1
					c-0.1,0.1-0.2,0.1-0.2,0.2c0,0,0,0,0,0c-0.1,0-0.2,0-0.2,0.1c-0.1,0.1-0.2,0.1-0.3,0.2c-0.1,0.1-0.3,0.1-0.4,0.2
					c0,0-0.1-0.1-0.1-0.1c-0.1,0-0.2,0-0.4,0.1c-0.1,0.1-0.2,0.2-0.4,0.3c-0.1,0.1-0.1,0.1-0.2,0.2c-0.1,0-0.1,0-0.2-0.1
					c-0.2,0.1-0.3,0.1-0.5,0.2c0,0.1-0.1,0.2-0.1,0.2c0,0-0.1,0-0.1-0.1c-0.1,0-0.3,0.1-0.4,0.1c-0.1,0.1-0.1,0.2-0.2,0.2
					c-0.1,0.1-0.2,0.2-0.3,0.3c-0.1,0-0.1,0-0.2,0c-0.1,0.1-0.3,0.1-0.4,0.2c-0.1,0-0.1,0-0.2,0c-0.1,0.1-0.2,0.3-0.3,0.4
					c-0.1,0-0.1,0-0.2,0.1c-0.1,0.1-0.1,0.1-0.2,0.2c-0.1,0-0.2,0.1-0.3,0.1c0,0-0.1,0-0.1-0.1c-0.1,0.1-0.2,0.2-0.3,0.3
					c-0.1,0.1-0.3,0.2-0.4,0.3c-0.1,0.2-0.2,0.3-0.3,0.5c-0.1,0.1-0.3,0.2-0.4,0.2c0,0,0.3-0.3-0.5,0c-0.8,0.3-1.3,0.5-1.5,0.6
					c-0.2,0.1-0.8,0.6-0.9,0.7c0,0.1-0.6,0.4-0.6,0.4c0,0-2.2,1.5-1.7,1.4c0.5-0.1,0.7,0.2,0.1,0.4c-0.6,0.3-1.1,0.9-1.9,1.3
					c-0.8,0.3-1.2,1-0.5,0.7c0.7-0.3,1.5-0.6,1.5-0.6c0,0-1.8,1.3-1,1.2c0.8-0.1,0.7,0,1.3-0.2c0.6-0.3,0.7-0.8,1.4-0.7
					c0.7,0.1,0.8-0.1,0.9,0.4c0.1,0.4,0.4,0.8,0.2,1.2c-0.2,0.4-0.7,0.7-0.7,0.7c0,0-0.1,0.5,0.4,0.2c0.5-0.3,0.8-0.8,0.8-0.6
					c0.1,0.2,0.5,0.6,0.5,0.6c0,0-0.5,0-0.8,0.1c-0.3,0.1-0.6,0.4-0.3,0.5c0.3,0,0.9-0.1,1-0.2c0.1,0-0.1,0.5-0.3,0.6
					c-0.2,0.1-0.9,0.7-0.9,0.7c0,0-0.6,0.7-0.5,1.4c0.2,0.7,0.3,0.8,0.4,1.2c0.1,0.4,0,1.2,0.3,1.3c0.3,0.1,0.3,0.4,0.7,0.3
					c0.4-0.1,0.7-0.2,0.8-0.3c0.1,0,0.2,0.1,0.3,0.2c0.2,0.1,0.3,0,0.8-0.2c0.1-0.2,0.3-0.3,0.4-0.5c0.2-0.3,0.4-1,0.4-1
					s0.2-0.4,0.2-0.6c-0.1-0.2,0,0.1,0.5-0.5c0.5-0.6,0.6-0.7,0.5-1c-0.1-0.3-0.2-0.4-0.1-0.4c0.1-0.1,0.3-0.4,0.7-0.6
					c0.5-0.2,0.3,0.2,1.1-0.6c0.9-0.8,0.9-0.8,1.3-1.3c0.4-0.5,0-0.4,0.6-0.8c0.6-0.4,0.5-0.3,1.1-0.7c0.6-0.4,0.8-0.7,1.1-0.8
					c0.3-0.1,1.2-0.9,2-1.4c0.8-0.6,0.7-0.4,0.5-0.4c-0.1,0.1-1.4,0.3-1.7,0.4c-0.3,0.1,0.2-0.5,0.2-0.5c0,0,0.4-0.4,0.5-0.2
					c0.1,0.2,0.2,0.3,0.8,0.1c0.5-0.2,0.9-0.4,0.5-0.6c-0.4-0.2-0.3-0.2-0.6-0.3c-0.2-0.1-0.3-0.1-0.6-0.1c-0.3,0-0.7-0.1-0.6-0.1
					c0.1-0.1,0.5-0.3,0.9-0.5c0.5-0.2,0.6-0.2,0.8-0.3c0.2-0.1,0.6,0,0.6-0.2c0-0.1-0.2-0.1-0.3-0.1c0.2-0.1,0.5-0.2,0.7-0.4
					c0.3-0.3,0.6-0.6,0.2-0.5c-0.4,0.2,0.3-0.4,0.3-0.4c0,0,0.2-0.5-0.4-0.3c-0.6,0.2-1.1,0-0.4-0.2c0.7-0.2,1.1-0.5,1-0.5
					c-0.2,0-1,0-1,0c0,0-0.1-0.2,0.9-0.8c0.9-0.6,1-1.1,1.3-1.2c0.2-0.1,0.4-0.3,0.8-0.4c0.3-0.1,0.5-0.4,0.5-0.4
					S71.2,30.4,70.4,30.6z"/>
				<path class="st4" d="M69.4,39.3c-0.4,0.3-0.4,0.2-0.7,0.3c-0.3,0.1-0.5,0.2-0.7,0.4c-0.2,0.2-0.4,0.3-0.7,0.4
					c-0.2,0.1-0.1-0.1-0.4-0.2c-0.2-0.1-1.2,0.8-1,0.9c0.2,0.1,0.5-0.2,0.9-0.4c0.4-0.2,0,0.2-0.1,0.2c-0.1,0-0.6,0.6-0.6,0.6
					c0.3,0,0.5-0.1,0.8-0.2c-0.1,0.2-0.2,0.3-0.3,0.5c0,0,0.6-0.3,0.7-0.2c0.2,0.1,0.6,0,0.9-0.1c0.3-0.1,0.6-0.2,0.6-0.4
					c0-0.1,0.6-0.6,1.2-0.9c0.5-0.3,0.8-1,0.8-1C70.6,38.9,69.7,39,69.4,39.3z"/>
				<path class="st4" d="M40.7,46.6c0,0,0.4-0.2,0.5-0.2c0.1,0,0.4-0.2,0.4-0.2c0,0,0-0.5-0.2-0.5C41.3,45.8,41,46,41,46
					C40.9,46.2,40.8,46.4,40.7,46.6z"/>
				<path class="st4" d="M42.6,76.1c0,0-0.7-0.3-1.6-0.6c-0.9-0.2-0.9,0-1.2-0.2c-0.2-0.1-0.2-0.1-0.6,0c-0.4,0.1-0.6,0.5-0.7,0.7
					c-0.1,0.2,0,0.3,0,0.3c0.1,0,0.6-0.5,0.8-0.5c0.2,0,0.2,0.2,0.4,0.2c0.2-0.1,0.5-0.1,0.7,0c0.2,0.1,0.4-0.2,0.4-0.2
					s0.2,0.2,0.2,0.3c-0.1,0.1,0.3,0,0.3,0s0.1,0.2,0,0.3C41.2,76.6,42.2,76.5,42.6,76.1z"/>
				<path class="st4" d="M67.5,86.3c-0.3-0.4,0.1-0.7-0.4-0.7c-0.5,0.1-0.3,0.3-1.1,0c-0.8-0.3-1.2-0.5-1.4-0.6
					c-0.2-0.1-0.9-0.5-1.2-0.5c-0.3,0-0.4,0-0.8,0.1c-0.3,0-0.6,0.2-0.8,0.1c-0.3-0.1-0.8-0.4-1.2,0.2c-0.1,0.1-0.1,0.2-0.1,0.2
					c0-0.2-0.1-0.4-0.1-0.6c-0.1-0.2-0.1-0.2-0.7-0.4c-0.6-0.1-0.9-0.2-1.2-0.3c-0.3,0-0.5,0.1-0.6,0.3c0,0.1-0.1,0.1-0.1,0.2
					c0.1-0.1,0.1-0.3,0-0.4c-0.2-0.3-0.4-0.2-0.6-0.2c-0.2,0-0.7,0.1-0.7,0.1c0,0-0.4-0.2-0.1-0.4c0.3-0.2,0.3-0.2,0.2-0.5
					c-0.1-0.2,0.1-0.1-0.4-0.2c-0.5-0.2-0.3-0.3-0.5-0.5c-0.2-0.2-0.5-0.6-0.5-0.6c-0.1,0-0.2-0.1-0.2-0.1c0,0-0.1,0-0.1,0
					c0,0-1.1-0.4-1.3-0.4c0,0-0.1,0-0.1,0c-0.2,0-0.6-0.1-0.9,0c-0.4,0.1-0.6,0.1-0.6,0.1s0,0-0.1,0c-0.2-0.1-0.6-0.3-0.7-0.3
					c-0.2,0.1-0.6-0.8-1-0.7c0,0,0,0,0,0c-0.3,0.1-0.7,0-0.7,0s0.3-0.3,0.2-0.4c-0.2-0.1-0.2,0-0.5-0.1c-0.3-0.1-0.9-0.1-0.5-0.2
					c0.4-0.1,0.3-0.1,0.3-0.1c-0.3,0-0.7,0.1-1,0.1c0,0-0.1,0.3-0.3,0.4c-0.2,0.1-0.4-0.2-0.7-0.1c-0.3,0.1-0.3,0.2-0.6,0.3
					c-0.3,0.1-0.3-0.2-0.3-0.2s-0.1-0.2-0.3-0.2c-0.1,0-0.5,0.1-0.7,0.2c-0.1,0-0.6,0.5-0.3,0.7c0.3,0.2,0.5,0.4,0.3,0.5
					c-0.2,0.1-0.5,0-0.5-0.2c-0.1-0.3,0.2-0.5,0-0.7c-0.1-0.1-0.1-0.1-0.2-0.2c0,0,0-0.1,0.1-0.1c0.1-0.1,0.2-0.2,0.2-0.2
					s0.1-0.3-0.1-0.1c-0.3,0.1-0.3,0.1-0.4,0.3c-0.1,0.2-0.1,0.3-0.3,0.4c-0.2,0.1-0.2,0.2-0.2,0.3c0,0.1-0.1,0.2-0.1,0.2
					s-0.2-0.4-0.3-0.2c-0.1,0.2-0.4,0.3-0.4,0.5c0.1,0.2,0.2,0.6,0.2,0.6c0,0-0.6,0.2-0.5,0.5c0.1,0.3-0.2,0.6-0.2,0.6
					s0.3-0.7-0.2-0.9c-0.4-0.1-0.4-0.2-0.7-0.1c-0.3,0.1-0.2,0.4-0.5,0.5c-0.1,0-0.1,0.1-0.2,0.1c-0.1,0.1-0.2,0.1-0.5-0.1
					c-0.4-0.2-0.5-0.2-0.5-0.4c-0.1,0-0.3-0.1-0.3-0.1c-0.1,0-0.1,0-0.3,0c-0.2,0.1-0.4,0-0.5,0.1c0.1,0.2,0.2,0.7,0.6,0.7
					c0.5,0,0.4,0,0.6,0.2c0.2,0.2,0.3,0.2,0.5,0.1c0.2-0.1,0.6,0,0.6,0.2c0.1,0.2,0.5,0.2,0.4-0.1c-0.1-0.1-0.2-0.2-0.2-0.2
					c0,0,0,0,0,0c0,0,0,0,0.1-0.1c0.1-0.2,0.1-0.3,0.2-0.4c0.1-0.1,0.3-0.3,0.5-0.1c0.1,0.2,0.2,0.4,0.2,0.5c0,0.1,0.3,0.2,0.3,0.3
					c0.1,0.1,0.4,1.4,0.4,1.5c0,0.1,0.2,0.5-0.1,0.7c-0.2,0.2-0.4,0.2-0.3,0.4c0.1,0.2,0.2,0.1,0.1,0.2c0,0,0,0,0,0
					c-0.1,0.1-0.1,0.3-0.2,0.3c-0.1,0-0.4,0-0.2,0.4c0.2,0.3,0,0.4,0,0.5c0,0.1-0.1,0.2,0,0.5c0.1,0.3,0.2,0.7,0.5,0.6
					c0.3-0.2,0.1,0.2,0.1,0.4c0,0.1-0.1,0.1-0.1,0.2c-0.1,0.1-0.1,0.3,0.1,1c0,0.1-0.1,0.5,0.3,0.6c0.4,0,0.6,0.1,1,0.6
					c0.4,0.4,0.7,0.8,0.9,1.4c0.2,0.5,0.8,0.9,1,1.1c0.2,0.2,0.4,0.5,0.4,0.5c0,0,0.2,0.4,0.7,0.7c0.5,0.3,0.9,0.4,1.2,0.6
					c0.3,0.1,0.8,0,1,0.2c0.3,0.3,0.6,0.6,0.8,0.6c0,0,0.1,0,0.1,0c0.1,0.1,0.3,0.2,0.3,0.1c0-0.1,1,2.3,1.3,3.1
					c0.3,0.8,1.3,3.3,1.3,3.4c0,0,0.7,1.3,0.4,1.2c-0.3-0.1,0.3,0.4,0.4,0.7c0.1,0.3,0.2,0.2,0.4,0.8c0.2,0.6,0.5,1.4,0.6,1.7
					c0.1,0.3,0.5,1.6,0.5,1.6c0,0-0.4,0,0,0.5c0.4,0.5,0.9,0.6,1,1c0.1,0.4-0.1,0.8,0.3,1.2c0.4,0.3,0.4,0.9,0.6,0.8
					c0.2,0,0.1,0.3,0.3,0.8c0.2,0.5,0.4,0.6,0.5,0.5c0.1-0.2-0.2-0.5-0.3-0.9c-0.1-0.4-0.3-0.7-0.1-0.6c0.2,0.1,0.4,0.5,0.5,0.7
					c0,0.1,0.2,0.5,0.4,0.9c0.2,0.4,0.3,0.8,0.3,0.8c0,0.1,0,0.3-0.1,0.4c0,0-0.3-0.1-0.2,0.1c0.1,0.2,0.1,0.8,0.1,0.8
					s0.4-0.1,0.6-0.1c0.2,0,0.4-0.1,0.4,0c0,0.1,0,0.6-0.1,0.7c-0.1,0-0.1,0.7-0.1,0.7s0.5,0.6,0.7,0.7c0.2,0.1,0.7,0.5,0.8,0.7
					c0,0,0,0,0,0c0,0,0.1,0.1,0.2,0.3c0.4,0.5,0.7,0.7,0.7,0.7s0.1-0.1,0.3,0.1c0.2,0.2,0.5,0.3,0.5,0.3s0.1,0.2,0.2,0.2
					c0.1,0,0.4,0.1,0.4,0.1c0,0,0.7,0.4,0.8,0.4c0.1,0,0.5-0.2,0.7-0.1c0.2,0.1,0.6,0.1,0.8,0c0.1,0,0.6-0.2,0.7-0.2
					c0,0,0.1,0,0.1,0s0.2-0.2,0.3-0.2c0.1,0,0.3-0.1,0.4-0.1c0.1,0,0.4-0.1,0.4-0.1c0.1-0.1,0.3-0.2,0.4-0.4c-0.1,0-1.4,0.5-2.4-0.3
					c-1-0.9-0.5-0.6-1.1-1c-0.6-0.4-1-0.6-0.7-0.8c0.3-0.2,0.3,0,0.2-0.5c-0.1-0.5-0.2-0.7,0-0.8c0.2-0.1,0.3,0.2,0.1-0.5
					c-0.2-0.7-0.4-0.6-0.7-0.6c-0.3,0.1-0.6,0-0.9-0.4c-0.3-0.4-0.3-0.8,0-1c0.3-0.1,0.3-0.5,0.2-0.7c-0.1-0.2-0.4-0.1-0.2-0.6
					c0.2-0.4,0.5-0.5,0.1-0.7c-0.4-0.1-0.8,0-0.9-0.2c-0.1-0.2-1-0.7-0.3-0.8c0.6-0.1,1,0.2,1.1-0.1c0.1-0.3,0.2-0.4-0.1-0.7
					c-0.3-0.3-0.9-0.7-0.6-0.8c0.3,0,1.7,0,1.9-0.6c0.2-0.5,0.2-0.8,0.1-1.1c-0.1-0.4-0.3-0.2-0.6-0.6c-0.3-0.3,0.3-0.5-0.2-0.6
					c-0.5-0.2-0.9-0.1-1-0.3c0-0.1,0-0.1,0-0.1c0.1,0,0.3,0,0.7,0c0.6,0,0.8,0.4,1.2,0.2c0.5-0.2,0.8-0.2,0.9-0.5c0,0,0,0,0,0
					c0.1-0.3-0.1-1.2-0.1-1.6c-0.1-0.4,0-0.9,0-0.9s0.3,0.1,0.3,0.5c0,0.4,0.1,0,0.2-0.5c0-0.6-0.1-0.7,0.2-1.1
					c0.3-0.3,0.3-0.4-0.1-0.8c-0.4-0.4-1-0.8-0.8-1.1c0.2-0.3,0.6-1,0.7-1.2c0.2-0.2,0.8-0.9,1.2-0.9c0.4,0,1.4,0,1.4-0.1
					c0-0.1-0.4-0.4,0-0.4c0.4,0,0.4-0.2,0.4-0.2c0-0.3-0.1-0.5-0.1-0.8c0,0,0.2-0.5,0.1-0.7c-0.1-0.2-0.1-0.5-0.3-0.8
					c-0.1-0.3,0.2-0.3,0.1-0.7c-0.1-0.4-0.7-2.1-1-2.7c-0.2-0.6,0.2-0.3,0.4-0.1c0.2,0.1-0.1-0.1,0.1-0.5c0.1-0.4,0-0.5,0-0.7
					c0.1-0.2,0.3-0.3,0.6-0.6c0.3-0.3,0.6-0.7,0.3-1.3C68,86.9,67.8,86.6,67.5,86.3z"/>
				<path class="st4" d="M60.9,118.1C60.9,118.1,61,118.2,60.9,118.1L60.9,118.1z"/>
				<path class="st4" d="M113.6,90.5c-0.4-0.5-0.4-0.2-0.4-0.2s-0.1,0.6-0.1,0.8c0,0.2-0.1,0.2-0.3,0.5c-0.2,0.3-0.4,0.4-0.6,0.7
					c-0.2,0.3-0.7,0.3-0.9,0.5c-0.2,0.2-0.7,0.4-0.9,0.7c-0.2,0.3-0.1,0.3-0.2,0.9c0,0.5,0.1,0.6,0.2,1c0.2,0.5-0.2,0.3-0.5,0.8
					c-0.3,0.5-0.3,0.4-0.6,0.9c-0.2,0.5,0.1,0.5,0.2,0.7c0.1,0.2,0,0.4-0.1,0.8c-0.1,0.4,0,0.3,0.4,0.8c0.4,0.5,0.8,0,1,0
					c0.2,0,0.6-0.4,0.6-0.4c0.6-1.6,1.2-3.2,1.7-4.7c0,0,0-0.1,0-0.1c0-0.5-0.1-0.7,0.3-0.7c0.3,0,0.1-0.3,0.1-0.3s-0.1-0.1-0.1-0.5
					c0-0.4,0.3,0.1,0.5,0.1c0.1-0.1,0.1-0.5,0.1-1.1C114.1,90.9,114.1,91.1,113.6,90.5z"/>
				<path class="st4" d="M34.6,48.6c0.2-0.1,1.2-0.3,0.9-0.1c-0.3,0.2-0.6,0.4-0.5,0.4c0.1,0,0.6-0.3,0.9-0.4
					c0.3-0.1,0.5-0.3,0.7-0.4c0.2-0.1,0.9-0.3,0.9-0.3c0.2-0.3,0.5-0.6,0.7-0.9c-0.2,0.1-0.5,0.1-0.7,0.2c0,0,0-0.4-0.2-0.3
					c-0.2,0.1-0.4,0.6-0.4,0.8c0,0.2-0.8,0.2-0.8,0.2c0.1-0.1,0.3-0.2,0.4-0.3c-0.3,0-0.6,0-0.8,0c0.1-0.1,0.2-0.2,0.3-0.3
					c0,0-0.4,0.3-0.5,0.3c-0.1-0.1,0.1-0.5,0.1-0.5s-0.4,0.3-0.6,0.3c-0.2,0-0.3,0.1-0.5,0.2c-0.1,0.2-0.3,0.5-0.4,0.7
					c0,0,0.1,0,0.1,0c0.2-0.1,0.5-0.1,0.3,0.1c-0.2,0.2-0.3,0.3-0.4,0.4C33.9,48.7,34.3,48.7,34.6,48.6z"/>
				<path class="st4" d="M34.2,49.7c0,0-0.3-0.4-0.4-0.4c-0.1,0-0.3,0.1-0.4,0.3c-0.3,0.5-0.5,0.9-0.8,1.4c0.6-0.4,1.3-0.8,1.4-0.8
					C34,49.9,34.1,49.8,34.2,49.7z"/>
				<path class="st4" d="M43.7,64.7C43.7,64.7,43.7,64.7,43.7,64.7C43.7,64.7,43.7,64.7,43.7,64.7z"/>
				<path class="st4" d="M123.8,69.7c-0.1,0.1-0.2,0.1-0.5,0.1c0.2,0.2,0.4,0.5,0.5,0.7C123.8,70.3,123.8,70,123.8,69.7z"/>
				<path class="st4" d="M38.7,81.6c-0.1-0.1-0.2-0.3-0.1-0.3c0.1,0,0.1,0,0.3,0.1c0.2,0.1,0.2,0.2,0.4,0.2c0.2,0.1,0.3,0.1,0.3-0.1
					c-0.1-0.2-0.1-0.3,0-0.5c0.1-0.3-0.1-0.6-0.1-0.7c0-0.1,0-0.4,0-0.4c0-0.1-0.1-0.3-0.2-0.4c-0.1-0.1-0.2-0.2-0.2-0.2
					c0,0-0.2-0.1-0.7,0c-0.5,0.2-0.6,0.4-0.8,0.3c0,0-0.1,0-0.1,0c-0.2,0-0.3,0.2-0.3,0.1c0,0,0-0.1,0-0.1c0.1-0.3,0.1-0.1,0.2-0.5
					c0.1-0.4,0-0.3,0.1-0.6c0-0.2,0.1-0.3,0.1-0.3c0-0.1,0-0.1-0.1-0.3c-0.1-0.3-0.1-0.4,0-0.6c0.1-0.2,0.3-0.6-0.2-0.5
					c-0.5,0.2-1.3,0.4-1.2,0.7c0.1,0.4,0.1,0.6-0.1,0.8c-0.2,0.2-0.2,0.3-0.1,0.4c0.1,0.1,0.1,0.3-0.2,0.1c-0.3-0.1-0.4,0.3-0.8,0.4
					c-0.4,0.1-0.2-0.3-0.5-0.2c-0.3,0.1-0.2,0.1-0.4-0.1c-0.2-0.2-0.5-0.3-0.6-0.7c-0.1-0.4-0.2-1.2-0.2-1.6
					c-0.1-0.4,0.1-0.5,0.1-0.6c0,0,0-0.1,0-0.1c0-0.2,0-0.3,0-0.5c0-0.2-0.1-0.4,0.3-0.7c0.4-0.3,0.3-0.1,0.4-0.4
					c0.1-0.3-0.3-0.3,0.3-0.4c0.6-0.2,0.6-0.2,0.8-0.2c0.2-0.1,0.3-0.2,0.5-0.1c0.2,0.1,0.3,0.2,0.5,0c0.2-0.2,0.1-0.4,0.1-0.4
					s-0.3-0.2,0.5-0.3c0.7,0,0.6-0.5,0.9-0.3c0.2,0.3,0.4,0.4,0.5,0.2c0.1-0.2,0.1-0.5,0.3-0.3c0.2,0.2,0.6,0.2,0.5,0.4
					c0,0.2,0,0.2,0.1,0.5c0.1,0.3,0.2,0.6,0.4,0.8c0.2,0.3,0.5,0.6,0.6,0.2c0.1-0.5,0.2-0.3,0-0.9c-0.2-0.6-0.4-1.1-0.4-1.2
					c0-0.1-0.4-0.6,0.1-1.2c0.5-0.7,0.5-0.8,0.8-1.1c0.3-0.2,0.3-0.1,0.5-0.4c0.1-0.3,0.1-0.4,0.2-0.4c0.1,0,0-0.1,0.1-0.2
					c0.1,0,0.2-0.2,0.2-0.2c0-0.1,0-0.2-0.1-0.3c-0.1,0-0.2,0.1-0.3,0.1c0.1-0.1,0.2-0.2,0.3-0.3c0-0.1-0.1-0.2-0.1-0.2
					c0,0-0.3,0.1-0.3,0c0.1,0,0.3-0.2,0.3-0.3c0-0.1-0.1-0.5-0.1-0.5s-0.1-0.9,0.1-0.2c0.2,0.7,0.1,1,0.3,0.5
					c0.2-0.5,0.1-0.7,0.1-0.7c0.1,0,0.2,0,0.2,0c0,0,0.4-0.7,0.3-0.9c0-0.3-0.1-0.2,0.3-0.4c0.4-0.2,0.6-0.5,0.8-0.5
					c0.1,0,0.3-0.1,0.4-0.1c-0.1,0-0.2,0-0.1-0.5c0.2-0.7,0.3-0.8,0.6-1c0.3-0.2,0.3-0.5,0.6-0.5c0.1,0,0.2-0.1,0.2-0.1
					c0.2-0.1,0.3-0.1,0.3-0.2c0-0.1,0-0.2,0.1-0.2c0.1-0.1,0.1-0.1,0.2-0.2c0.2-0.1,0.4-0.3,0.5-0.4c0.1-0.1-0.5,0.3-0.6,0.8
					c-0.2,0.4,0.1,0.9,0.3,0.5c0.2-0.4,0.2-0.4,0.5-0.5c0.3-0.1,0.5-0.4,0.7-0.5c0.2-0.1,0.6-0.5,0.7-0.5c0.1,0,0.3-0.3,0.5-0.6
					c0.2-0.3,0.1-0.4-0.2-0.3c-0.2,0.1,0-0.4-0.1-0.4c-0.1,0-0.4,0.3-0.3,0.5c0,0.2-0.2,0.3-0.3,0.3c-0.1,0-0.3,0.2-0.5,0.2
					c-0.2,0-0.6,0.1-0.6-0.1c0-0.2-0.1-0.4,0.1-0.6c0.1-0.2,0.1-0.1,0.2-0.3c0.1-0.2,0.5-0.8,0-0.6c-0.5,0.2-0.6,0.1-1,0.4
					c-0.4,0.3-0.6,0.7-0.8,0.7c-0.1,0-0.3,0.4-0.5,0.7c-0.1,0.2-0.2,0.3-0.3,0.4c0,0,0,0-0.1,0.1c-0.1,0.1-0.3,0-0.3,0
					s0.1-0.2,0.3-0.4c0.2-0.2,0.3-0.4,0.5-0.7c0.2-0.2,0.2-0.3,0.4-0.4c0.1-0.1,0.4-0.3,0.4-0.3s0.2-0.2,0.3-0.3
					c0.1-0.1,0-0.3,0.2-0.4c0.2-0.1,0.8-0.4,1.1-0.5c0.3-0.1,0.7-0.4,0.9-0.4c0.1,0,0.5-0.2,0.7-0.3c0.1-0.1,0.2-0.1,0.4-0.4
					c0.3-0.3,0.2-0.4,0.9-0.8c0.7-0.3,0.8-0.4,0.8-0.8c0-0.4,0.1-0.5,0-0.6c-0.1-0.1-0.4,0.2-0.4-0.1c-0.1-0.3-0.3-0.1-0.5,0.1
					c-0.2,0.2-0.4,0.5-0.6,0.6c-0.2,0.1-0.6,0-0.2-0.2c0.4-0.2,0.5-0.3,0.7-0.5c0.3-0.2,0.2-0.2,0.4-0.3c0.2-0.2,0.2-0.2-0.2-0.1
					c-0.4,0.1-0.3,0.1-0.6,0.1c-0.4-0.1-0.7-0.1-0.7-0.3c0-0.3,0.1,0,0.2-0.5c0.1-0.5-0.6-2-0.6-2c0,0-0.3,0.7-0.7,1.1
					c-0.4,0.4-0.7,0.6-0.7,0.8c-0.1,0.2-0.2,0.4-0.3,0.1c-0.1-0.3-0.2-0.2-0.3-0.2c-0.1,0-0.7,0.2-0.1-0.4c0.6-0.7,0.3-0.4,0.3-0.7
					c0-0.2-0.2-0.2-0.5-0.1c-0.2,0.1-0.3,0-0.4-0.3c-0.1-0.2-0.3-0.3-0.7-0.1c-0.4,0.2-0.6,0.5-0.8,0.4c-0.2,0-0.8-0.1-0.7,0.5
					c0,0.6-0.2,0.7-0.2,0.9c0,0.2,0.1,0.4-0.1,0.5c-0.2,0.1-0.8,0.7-0.4,1c0.4,0.3,0.4,0.3,0.4,0.6c0,0.3-0.2,1.1-1.5,2
					c0,0,0,0.7,0,1c0.1,0.3,0.1,0.3-0.1,0.5c-0.2,0.2-0.1,0.4-0.3,0.5c-0.2,0.1-0.3,0.3-0.4,0c-0.1-0.3-0.2,0-0.2-0.4
					c0-0.4-0.2-0.2,0.1-0.6c0.3-0.4,0-0.2,0.1-0.5c0.2-0.4,0.2-0.6,0.1-0.5c-0.1,0-1.1,0.3-1.1,0.3c0,0-0.2-0.3-0.5-0.2
					c-0.3,0.1-0.7-0.4-1.1-0.3c-0.4,0.1-0.8,0.3-0.8,0.3s0.2-0.5,0.2-0.8c-0.1-0.3-0.5-0.1-0.5-0.1c0,0,0.8-2.5,2-2.9
					c0.2-0.1,0.6-0.7,0.2-0.5c-0.4,0.1,0.3-0.3,0.5-0.4c0.2-0.1,0.1-0.1,0.5-0.3c0.3-0.1-0.1,0.2,0.4-0.3c0.6-0.5,0.7-0.6,0.6-0.7
					c0-0.1-0.4,0.2-0.6,0.1c-0.2-0.1-0.3-0.1-0.3-0.1s0.3-0.1,0.5-0.2c0.2,0,0.4-0.1,0.5-0.2c0.1-0.1,0.1,0,0.2-0.3
					c0-0.3,0-0.3,0.3-0.4c0.2-0.1,0.3-0.2,0.5-0.2c0.3,0,0-0.1,0.4-0.2c0.4-0.1,0,0,0.5-0.4c0.5-0.4,0.8-0.4,0.7-0.7
					c-0.1-0.3-0.6,0-0.2-0.4c0.4-0.4,0.6-0.4,0.5-0.6c-0.1-0.2-0.5-0.3-0.6-0.2c-0.1,0-0.3-0.1-0.5,0.2c-0.2,0.3-0.2,0.6-0.3,0.8
					c-0.1,0.2-0.3,0.1-0.4,0.4c-0.2,0.3-0.3,0.3-0.5,0.5c-0.2,0.2,0,0.2-0.2,0.2c-0.1,0-0.4-0.2-0.1-0.3c0.3-0.1,0.6-0.3,0.3-0.5
					c-0.3-0.3-0.5-0.4-0.7,0c-0.2,0.3-0.3,0.6-0.3,0.4c0-0.1-0.1-0.8-0.2-0.5c-0.1,0.3-0.5,0.4-0.6,0.7c-0.2,0.3-0.5,0.4-0.6,0.6
					c-0.1,0.2-0.3,0.4-0.4,0.6c-0.1,0.2,0,0.4-0.1,0.4c-0.1,0-0.2,0.4-0.3,0c-0.1-0.3-0.2-0.4-0.4-0.3c-0.2,0.1-0.5,0.2-0.6,0.2
					c-0.1,0-0.2,0.1-0.4,0.2c-0.2,0.2-0.6,0.4-0.6,0.4s-0.2-0.4-0.6-0.3c-0.4,0.1-0.7,0.2-0.8,0.4c-0.1,0.2-0.3,0.4-0.3,0.6
					c0,0.2,0,0.5-0.1,0.4c-0.1,0-0.1-0.2-0.3-0.4c-0.2-0.2-0.1-0.2-0.4-0.1c-0.3,0.1-1.4,0.6-1.4,0.6c0,0-0.2-0.1,0.2-0.3
					c0.4-0.2,0.5-0.7-0.2-0.5c-0.7,0.2-0.8,0.4-1,0.3c0,0,0,0,0,0c-3.1,6.5-4.8,13.8-4.9,21.6c0,0.1,0,0.2,0,0.3
					c0.2,0.1,0.2,0.3,0.3,0.6c0.1,0.3,0.2,0.7,0.4,0.8c0.2,0.1,0.4,0,0.5,0.2c0.1,0.2,0.4,0.4,0.5,0.4c0.2,0.1,0,0,0.1,0.3
					c0.1,0.3,0.3,0,0.5,0.3c0.3,0.3,1,0.5,1.1,0.9c0.1,0.5,0.2,0.5,0.1,0.7c-0.1,0.2-0.2,0.4,0,0.6c0.2,0.1,1,0.6,1.2,0.5
					c0.2,0,0.6-0.1,0.6-0.1s0.8,0.3,1.1,0.4c0.3,0.1,0.2,0.1,0.6,0.1c0.3,0,0.8,0.2,0.9-0.1c0.1-0.2,0.2-0.5,0.4-0.5
					c0.2,0,0.8,0.5,0.9,0.5c0,0,0.1,0,0.1,0.1c0.1,0.1,0.4,0.1,0.6,0.2c0.2,0,0.3,0,0.5,0c0.4-0.1,0.2,0,0.6-0.1c0.1,0,0.2,0,0.2,0
					c0,0,0,0,0.1,0.1c0.1,0.1,0,0.3,0.2,0.3C38.2,81.5,38.5,81.6,38.7,81.6C38.6,81.7,38.6,81.7,38.7,81.6
					C38.7,81.7,38.8,81.7,38.7,81.6z"/>
				<path class="st4" d="M123.8,69.5c-1.2-11.4-6.2-21.6-13.5-29.4c-0.2,0.1-0.3,0.4-0.3,0.4c-0.3-0.1-0.6-0.1-0.8-0.2
					c-0.1,0.1-0.1,0.2-0.2,0.3c-0.2,0-0.4,0-0.6,0c0,0,0.2-0.2,0.2-0.4c0-0.3-0.4-0.1-0.5-0.1c-0.1,0-0.4,0.2-0.4,0.2
					s-0.4,0-0.6,0.2c-0.2,0.1-0.5,0.6-0.5,0.6c0,0.1-0.1,0.3-0.1,0.4c0,0-0.7,0.1-0.9-0.1c-0.2-0.2-0.5-0.5,0.1-0.5
					c0.5,0-0.1-0.5-0.6-0.6c-0.4,0-0.6,0-0.4,0.5c0.1,0.5,0.6,0.8,0.6,1c0,0.3-0.2,0.1-0.2,0.1s-0.2-0.3-0.5-0.3
					c-0.3,0-0.9,0.4-1,0.6c-0.1,0.2,0.5,0.6,0.3,0.7c-0.2,0.1-0.8,0-1.2-0.3c-0.3-0.3-0.8,0.1-0.2,0.4c0.6,0.3,0.4,0.7,0.2,0.4
					c-0.3-0.3-0.5-0.4-0.7-0.5c-0.2,0-0.5-0.1-0.5-0.1s0.1-0.2-0.2-0.5c-0.3-0.3-0.1-0.6-0.1-0.6s-0.4-0.1-0.8-0.4
					c-0.3-0.3,0.1-0.1,0.3-0.1c0.2,0,0.9,0.4,1.5,0.4c0.6,0.1,1.5-0.1,1.5-0.5c0-0.4-0.4-0.8-0.8-0.9c-0.5-0.1-0.7-0.1-1.1-0.4
					c-0.3-0.4-0.9-0.5-1.4-0.5c-0.5,0-0.7-0.1-0.8-0.2c-0.2-0.1-0.9,0.1-0.9,0.1s-0.3-0.4-0.2-0.4c0.2,0,0.2,0,0.2,0s-0.2,0-0.4-0.2
					c-0.2-0.1-0.6-0.2-0.6-0.2c0,0.1,0,0.1-0.1,0.2c0-0.2-0.1-0.3-0.1-0.5c-0.1,0.1-0.2,0.2-0.4,0.3c-0.1,0.1-0.2,0.3-0.3,0.4
					c0-0.1,0-0.3,0-0.4c-0.1,0.1-0.3,0.3-0.4,0.4c0-0.2,0.1-0.4,0.1-0.6c0,0-0.2-0.1-0.5,0c-0.3,0.1-0.5,0.3-0.4,0.5
					c0,0.1-0.2,0-0.3,0c-0.1,0-0.5,0.1-0.5,0.1s0,0.1-0.3,0.1c-0.3,0-0.5-0.2-0.5,0c0,0.2-0.4,0.3-0.5,0.3c-0.1,0-0.1,0.5-0.1,0.5
					s-0.6,0.1-0.7,0c-0.1-0.1-0.3,0.1-0.3,0.4c0,0.3-0.2,0.3-0.3,0.4c-0.1,0-0.4,0.4-0.4,0.4c0,0.2-0.1,0.3-0.1,0.5
					c0,0-0.1,0.5-0.2,0.5c-0.2,0-0.4,0.5-0.6,0.5c-0.2,0-0.3,0.5-0.4,0.5c-0.2,0-0.2,0-0.4,0c-0.1,0-0.7,0-0.7,0s0,0.5-0.1,0.6
					c-0.1,0.1-0.2,0.1-0.5,0.2c-0.3,0.1-0.5,0.1-0.5,0.2c0,0.1,0.2,0.4,0.2,0.4c0.3,0,0.5,0.1,0.8,0.1c-0.3,0-0.6,0-1,0
					c0.1,0.2,0.1,0.5,0.1,0.7c0.2-0.1,0.4-0.2,0.6-0.2c-0.2,0.2-0.3,0.4-0.5,0.7c0.1,0.2,0.2,0.4,0.4,0.6c0,0,0,0.3,0.7,0.2
					c0.8-0.1,0.8-0.4,1-0.4c0.2,0,0.4-0.7,0.4-0.4c0.1,0.3,0.1,0.3,0.3,0.3c0,0,0.1,0,0.1,0c0.4,0-0.5,0.2,0,0.4
					c0.5,0.2,0.3,0.2,0.6,0.8c0.3,0.6,0.1,0.7,0.2,0.8c0,0.2,0.2,0.4,0.4,0.4c0.2,0,0.3-0.1,0.4-0.2c0-0.2,0.3-0.1,0.6-0.1
					c0.3,0,0.5,0,0.5-0.6c-0.1-0.5,0-1,0-1s1-0.3,0.9-0.8c-0.2-0.5-0.8-0.3-1-1.2c-0.2-0.9,0.6-0.9,1-1.2c0.4-0.3,0.7-0.6,0.7-0.6
					s-0.4-0.1-0.2-0.3c0.2-0.2,0.2-0.4,0.4-0.4c0.2,0,0.6-0.1,0.7-0.1c0,0,0.1,0,0.2,0c0.3,0,0.7,0.1,0.6,0.3
					c-0.1,0.2,0,0.4-0.1,0.4c-0.1,0-0.9,0.8-0.9,0.8c0,0-0.6,0.2-0.4,0.7c0.2,0.5,0.3,1.1,0.3,1.1c0,0,0,0.2,0.3,0.2
					c0.2,0.1,0.4,0.3,0.6,0.3c0.2,0,0.6,0,0.7,0c0.1,0,0.5-0.1,0.6-0.1c0.1,0,0.3,0.1,0.4,0c0.1,0,0.3-0.3,0.3-0.3
					c0.1,0,0.1,0,0.2,0c0.1,0,0.2,0,0.3,0c0.1,0,0.3,0.1,0.4,0.1c-0.1,0.1-0.3,0.2-0.4,0.3c-0.1,0.1-0.1,0.1-0.2,0.2
					c-0.5,0-0.9,0-1.4,0c0,0-1,0.4-0.3,0.8c0.1,0.1,0.2,0.1,0.3,0.2c0.4,0.3,0.3,0.7,0.1,0.7c-0.3,0-0.4-0.2-0.4-0.2
					s-0.4-0.6-0.9-0.5c-0.5,0.2-0.4,0.2-0.1,0.6c0.3,0.4,0,0.3,0.2,0.5c0.1,0.2-0.1,0.3,0.1,0.5c0.1,0.1,0,0.1-0.2,0.2
					c-0.2,0.1-0.4,0.1-0.2,0.2c0.4,0.1-0.8,0.1-0.8,0.1c-0.1-0.1-0.2-0.2-0.3-0.3c0,0-0.6,0.1-0.9,0.2c-0.3,0.1-0.9,0.3-0.9,0.3
					c0,0-0.1,0-0.1,0c-0.1,0-0.2-0.1-0.3-0.1c0,0-0.4-0.3-0.5-0.2C92,48.9,91.7,49,91.6,49c-0.2,0-0.4-0.1-0.5-0.2
					c-0.1-0.1-0.4,0-0.4-0.4c0-0.4,0.1-0.3,0.4-0.5c0.3-0.2,0.4-0.2,0.2-0.3c-0.1-0.2-0.5,0-0.4-0.3c0.1-0.3,0.3-0.5,0.1-0.6
					c-0.2,0-0.4,0-0.5,0.2c-0.1,0.2-0.3,0.3-0.3,0.3s-0.5,0-0.5,0.2c0,0.2,0,0.4,0,0.6c0.1,0.2,0.5,0.7,0.5,0.7S90.2,49.1,90,49
					c-0.2,0,0.1,0-0.7,0.2c0,0-0.1,0-0.1,0c-0.9,0.2-0.9-0.1-1.2,0.4c-0.2,0.5,0,0.6-0.6,0.7c0,0-0.1,0-0.1,0
					c-0.5,0.1-0.3,0.2-0.4,0.3c-0.1,0.1-0.3,0.1-0.4,0.1c0,0,0-0.1-0.1-0.2c-0.4-0.2-0.6,0.1-0.4-0.2c0.2-0.3,0.4-0.2,0.5-0.5
					c0.1-0.3,0.2-0.3,0-0.4c-0.3-0.1-0.5,0.2-0.8,0c-0.2-0.2,0.1-0.1-0.1-0.5c-0.2-0.4,0-0.4-0.3-0.7c-0.3-0.3-0.5-0.1-0.5-0.1
					s0.2-0.6-0.3-0.8c-0.6-0.2-0.8-0.1-0.8-0.1s0-0.1,0.5-0.3c0.5-0.2,0.5-0.6,0.5-0.6s-0.6-0.2-0.9-0.2c-0.2,0-0.4,0.2-0.5,0.1
					c0-0.1,0-0.3,0.3-0.4c0.2-0.1,0.4-0.3,0.4-0.3c-0.3-0.1-0.7-0.1-1-0.2c0,0-0.2,0.3-0.5,0.6c-0.3,0.2-0.3,0.4-0.3,0.6
					c0,0.2,0.5,0.3,0.5,0.3s-0.4,0.3-0.2,0.3c0.2,0,0.8,0,0.6,0c-0.2,0-0.5,0.2-0.5,0.2c0.1,0,0.3,0,0.4,0c0,0-0.5,0.3-0.4,0.4
					c0.1,0,0.7-0.1,0.7-0.1s0.3-0.1,0.3,0.2c0,0.3,0.3,0.6,0.3,0.6s0.5,0.1-0.1,0.3c-0.6,0.2-0.5,0.2-0.7,0.2
					c-0.2,0,0.4,0.4,0.2,0.5c-0.2,0.1-0.7-0.1-0.7,0c0,0.1,0.2,0.3,0.4,0.3c0.2,0,0.6,0.4,0.9-0.1c0,0-0.2,0.5-0.6,0.4
					c-0.4-0.1-0.8,0.1-0.9,0.6c0,0,0.3-0.1,0.8-0.1c0.5,0,0.5-0.1,0.8,0c0.3,0,0.3,0,0.7,0c0.4,0,0.7,0,0.9,0c0.1,0,0.4,0,0.5-0.1
					c0,0-0.1,0.1-0.1,0.1c0,0.2,0,0.5-0.2,0.5c-0.2,0-0.3,0.3-0.3,0.3s-0.5,0.2-0.8-0.1c-0.3-0.3-0.4-0.2-0.2,0.1
					c0.1,0.3,0.2,0.4-0.1,0.4c-0.3,0-0.6,0-0.6,0s-0.6-0.2-0.9-0.1C83,52,83,52.4,83,52.6c0,0.2,0.3-0.2,0.8,0.2
					c0.5,0.4,0.9,0.8,0.9,0.9c0,0.1,0.2,0.4,0.2,0.7c0,0.3,0.2,1.1-0.1,1.1c-0.1,0-0.2,0-0.3,0c-0.2,0-0.4,0.1-0.4,0.1
					c-1-0.2-2.1-0.4-3.2-0.6c0,0-1.4,0.1-0.9,0.8c0,0,0,0.1,0,0.2c0,0.2,0.1,0.5,0.1,0.8c0,0.6-0.4,0.8-0.5,1
					c-0.1,0.2-0.3,0.6-0.1,0.6c0.2,0,0.3,1,0.3,1s-0.1,0.1,0.5,0.1c0.5,0,0.4,0.1,0.5,0.1c0,0,0,0,0.1,0c0.2-0.1,0.6-0.2,0.8,0.3
					c0.2,0.4,0.2,0.5,0.5,0.5c0.3,0,0.1-0.4,0.5-0.4c0.4,0,0.5-0.1,1-0.1c0.5,0,0.8,0,0.8,0s0.3-0.4,0.5-0.4
					c0.2,0.1,0.2-0.7,0.5-0.7c0.3,0-0.2-0.7,0.2-1.1c0.5-0.3,0.5-0.7,0.9-0.7c0.3,0,0.7-0.1,0.7-0.1c0.1-0.3,0.1-0.5,0.2-0.8
					c0,0-0.2-0.5,0.4-0.5c0.5,0,1.1,0.4,1.5,0.4c0.4-0.1,0.5-0.3,0.6-0.5c0,0,0-0.1,0.1-0.1c0.1-0.2,0-0.4,0.6-0.2
					c0.7,0.2,0.9,0.2,1,0.7c0,0.5,0,0.3,0.4,0.7c0.5,0.4,0.8,0.7,1.2,0.8c0.4,0.1,0.7,0,1.2,0.7c0.4,0.7,0.9,0.9,0.6,1
					c-0.4,0.1,0.1,0.3-0.5,0.3c-0.6,0-0.6,0-1,0c-0.4,0-0.6,0.2-0.4,0.3c0.1,0.2,1.4,0.7,1.4,0.7c0.1-0.2,0.2-0.4,0.2-0.7
					c0,0,0.4,0,0.6-0.3c0.1-0.3,0.3-0.5,0.5-0.5c0.2,0-0.3-0.5-0.4-0.7c-0.2-0.1,0.2-0.6,0.6,0c0.4,0.5,0.9,0.2,0.1-0.4
					c-0.8-0.6-1.1-0.5-1.2-0.6c-0.1-0.1-0.2-0.3-0.2-0.3C94.4,57,94.2,57,94,56.9c-0.1-0.1-0.2-0.3-0.2-0.4c0,0-0.1-0.2-0.5-0.5
					c-0.4-0.3-0.6-0.5-0.6-0.5s-0.3-0.7,0.1-0.7c0.3,0,0.3-0.1,0.4-0.1c0.1,0,0.1,0.1,0.2,0.2c0.3,0.4,0.6,0.6,0.7,0.7
					c0.1,0.1,0.3,0.5,0.6,0.6c0.3,0.1,0.4,0.3,0.6,0.4c0.2,0,0.5,0.1,0.5,0.1c0,0,0,0,0.1,0c0.3,0.2,0.5,0.4,0.8,0.6
					c0,0,0,0.8,0.1,0.9c0.1,0.1,0.3,0.8,0.5,0.7c0,0,0.1,0,0.1,0c0.1,0,0.2,0.1,0.2,0.3c0.1,0.2,0.2,0.6,0.2,0.6
					c0.1,0.1,0.2,0.3,0.3,0.4c0,0,0.3,0.2,0.4,0.2c0.2,0,0.6,0.1,0.6,0.1c0-0.1,0-0.2-0.1-0.4c0.1,0,0.1,0,0.2,0
					c-0.1-0.1-0.2-0.3-0.3-0.4c0.2,0.1,0.3,0.2,0.5,0.2c0.1-0.1,0.1-0.1,0.2-0.2c-0.2-0.2-0.4-0.4-0.6-0.7c-0.1-0.2-0.2-0.4-0.3-0.5
					c0,0-0.1-0.4,0.1-0.2c0.2,0.3,0.2,0.2,0.4-0.1c0.2-0.2-0.2-0.2,0.2-0.2c0.3-0.1,0.5-0.2,0.6-0.1c0,0,0,0,0,0
					c0.1,0.2,0.5,0.3,0.6,0.3c0,0,0,0,0,0s0,0,0,0c0,0,0,0.1,0,0.4c0,0.5,0.1,0.7,0.2,0.9c0.1,0.2,0.3,0.5,0.4,0.5
					c0.2,0,0.3,0.1,0.4,0.2c0.1,0.2,0.3,0.5,0.3,0.5c0.2,0,0.5,0.1,0.7,0.1c0,0,0.2,0.2,0.3,0c0.1-0.1,0.2-0.3,0.2-0.3
					s0.3-0.2,0.6,0.1c0.3,0.3,0.3,0.3,0.7,0.3c0.4,0,0.2-0.5,0.5-0.4c0.3,0.1,0.6,0.1,0.8,0.1c0.1,0,0.2,0,0.2,0.1c0,0,0,0.1,0,0.2
					c0,0.2,0.1,1,0.1,1.2c0,0.2,0,0.3-0.2,0.5c0,0,0,0,0,0c-0.2,0.1-0.4,0.2-0.4,0.5c0,0.3,0.1,0.5,0.1,0.7c0,0.2,0,0.8,0.2,1.3
					c0.1,0.3,0.2,0.6,0.3,0.8c0.3,0.5,0.2,0.2,0.7,0.9c0.6,0.7,0.3,1,0.7,1.4c0.4,0.4,0.6,0.2,0.9,1c0,0-0.1,1.1,0.3,1.4
					c0.5,0.3,0.6,0.2,0.9,0.9c0.3,0.7,0.6,0.7,0.9,1c0.1,0.1,0.2,0.2,0.2,0.3c0,0.1,0,0.2,0,0.4c0,0.3-0.1,0.5,0,1
					c0.1,0.4,0.1,0.6,0.2,0.8c0.2,0.2,0.1,0.4,0.7,0.2c0.5-0.2,0.1-0.4,0.7-0.4c0.6,0,1.3-0.3,1.3-0.3s0-0.5,0.5-0.5
					c0.4,0,0.5-0.2,0.8-0.4c0.3-0.2,0.6-0.2,0.6-0.4c0-0.2,0.2-0.5,0.3-0.5c0,0,0,0,0,0c0.1,0,0.1,0,0.4,0c0.3,0,0.5,0,0.7,0
					c0.2,0-0.3-0.5,0.1-0.5c0.4,0,0.6,0.1,0.6-0.2c0-0.3,0.5-0.4,0.5-0.4s0-0.3,0-0.4c0-0.1-0.2-0.5,0.1-0.5c0.3,0,0.1,0,0.5-0.3
					c0.4-0.3,0.4-0.7,0.3-0.9c-0.1-0.2-0.1-0.1-0.2-0.3c-0.1-0.1-0.3-0.4-0.4-0.4c-0.1,0-0.4,0-0.6-0.1c-0.2-0.1-0.4-0.3-0.5-0.5
					c0,0,0-0.1-0.1-0.2c-0.1-0.3-0.1-0.6-0.1-0.6s-0.7,0.9-0.9,1c-0.3,0.1-0.9,0-1.1,0.1c0,0-0.1,0-0.1,0c-0.2-0.1-0.7-0.6-0.9-1
					c-0.2-0.4,0.1-0.4-0.3-0.8c-0.3-0.3-0.6-0.7-0.8-1c-0.1-0.1-0.1-0.2-0.1-0.3c0-0.2,0.6-1.1,0.9-0.6c0.3,0.5,0.6,1.2,1.3,1.4
					c0,0,0.3,0.6,0.8,0.7c0.5,0.1,1.1-0.5,1.3-0.3c0.2,0.2,0.2,0.8,0.8,0.9c0.6,0.1,1.1,0.3,1.5,0.4c0.1,0,0.2,0,0.4,0
					c0.2,0,0.6-0.1,1.2,0c1,0,1-0.3,1.2,0.1c0.2,0.4,0.1,0.7,0.7,0.7c0.1,0,0.1,0,0.2,0C123.1,69.1,123,69.6,123.8,69.5z M98,51.2
					C98,51.3,98.1,51.3,98,51.2c0.1,0.1,0.1,0.1,0.1,0.1C98.1,51.3,98.1,51.3,98,51.2z M99.7,48.1C99.6,48.1,99.6,48.1,99.7,48.1
					C99.6,48.1,99.6,48.1,99.7,48.1C99.7,48.1,99.7,48.1,99.7,48.1z M115.2,71.7C115.2,71.7,115.2,71.8,115.2,71.7L115.2,71.7
					C115.2,71.8,115.2,71.7,115.2,71.7z M121.1,60.9c0.1,0,0.1,0,0.2,0c0,0,0,0,0,0C121.3,60.9,121.2,60.9,121.1,60.9z"/>
				<path class="st4" d="M90.8,57.3c0.3,0,0.4-0.2,0.3-0.5c0-0.3-0.5-0.4-0.6-0.2C90.6,56.6,90.5,57.2,90.8,57.3z"/>
				<path class="st4" d="M27.8,78.3c-0.3-0.1-0.3-0.6-0.5-0.9c-0.2-0.4-0.5-0.4-0.6-0.7c-0.1-0.1-0.1-0.2-0.2-0.3
					c0,0.4,0,0.7,0.1,1.1c0.1,0,0.1,0,0.1,0.1c0.1,0.2,0.1,0.2,0.2,0.4c0,0.1,0.1,0.5,0.1,0.5c0.3,0.1,0.5,0.2,0.8,0.4
					c0,0,0.5,0.6,0.5,0.2C28.3,78.6,28.1,78.4,27.8,78.3z"/>
				<path class="st4" d="M42.1,45.5c-0.2,0.1,0.1,0.7,0.2,0.6c0.1,0,0.4-0.2,0.7-0.3c0.3-0.1,0.6-0.3,0.9-0.4
					c0.3-0.1,0.6-0.2,0.9-0.3c0.2-0.1,0.4-0.3,0.9-0.6c0.5-0.3,0.5-0.8,0.5-0.8c0,0-0.9,0.3-1,0.4c-0.1,0-1,0.6-2,1
					c-1,0.4,0.2-0.5,0.2-0.5c0,0,1.1-0.6,1.2-0.6c0.1,0,0.8-0.4,0.8-0.4c0.4-0.2,0.8-0.3,1.3-0.5c0,0,0.5-0.2,0.3-0.3
					c-0.1-0.1-0.3-0.4,0.1-0.5c0.4-0.2,0.7-0.4,0.7-0.4c0-0.1,0.1-0.2,0.1-0.3c0,0,1.1-0.6,1.2-0.7c0.1-0.1-0.4,0.2-0.6,0.3
					c-0.2,0.1,0.1-0.7,0.3-0.9c0.2-0.2,1.4-0.6,1.8-0.8c0.3-0.1,0.6-0.3,0.8-0.4c0.3-0.2,0.5-0.8,0.8-0.9c0.3-0.1,0.8-0.6,1.1-0.7
					c0.3-0.2,1.1-0.7,1.1-0.7c0.2-0.2,0.5-0.3,0.7-0.4c0,0-0.4-0.3-1-0.1c-0.5,0.2-0.6,0.3-1.1,0.4c-0.4,0.2-0.5,0.2-1.1,0.5
					c-0.5,0.2-0.8,0.3-1.4,0.6c-0.6,0.3-0.5,0.2-1.4,0.6c-0.9,0.4-0.8,0.4-1.8,1.1c-0.9,0.7-1.3,0.7-1.7,0.8
					c-0.4,0.2-0.5,0.6-0.5,0.6c0,0.1,0,0.3,0.1,0.4c0,0.1,0.1,0.2,0.1,0.3c0,0-0.3,0.1-0.4,0c-0.1-0.1-0.5,0-0.5,0s-0.3,0.2-0.4,0.3
					c-0.1,0.1-0.6,0.3-0.8,0.4c-0.2,0.1-0.4,0.7-0.4,0.7c0,0.2,0.1,0.3,0.1,0.5c0,0,0.4,0.2,0.5,0.2c0.1-0.1,0.5-0.2,0.7-0.3
					c0.2-0.1,0.6-0.4,0.7-0.4c0.1,0,0.5,0,0.5,0c0,0,0,0.2-0.1,0.3c-0.1,0-0.3,0-0.3,0s-0.3,0.1-0.5,0.2c-0.1,0.1-0.3,0.4-0.5,0.5
					c-0.2,0.1-0.4,0.2-0.5,0.2c-0.1,0.1-0.2,0.3-0.5,0.4c-0.2,0.1-0.7,0.1-1,0.1c-0.3,0-0.4,0.6-0.4,0.6c0.2-0.1,0.4-0.2,0.7-0.3
					C42.2,44.8,42.3,45.4,42.1,45.5z"/>
				<path class="st4" d="M90.5,58c0,0.3,0,0.6,0.1,0.9c0.1,0,0.2,0,0.3,0c0-0.1,0.1-0.1,0.1-0.2c0.1,0,0.2,0,0.3,0
					c0,0,0.1-0.9,0.1-1c0,0-0.2-0.2-0.2-0.3c-0.1-0.1-0.3,0-0.3,0c-0.1,0-0.2,0.1-0.2,0.1c-0.1,0-0.2,0.1-0.2,0.1
					C90.4,57.8,90.5,57.9,90.5,58z"/>
				<path class="st4" d="M33,52.6c0,0.1,0.1,0.2,0.1,0.3c0,0,0.2-0.1,0.9-0.3c0.6-0.2,1.1-0.7,1.3-0.9c0.1-0.2,0.2,0.1,0.7,0.1
					c0.5,0,0.4-0.1,0.9-0.3c0.5-0.2,0-0.3,0.1-0.4c0.1,0,0.6-0.2,0.8-0.5c0.2-0.3-0.9,0.1-0.9-0.5c0-0.6,0.5-1.5,0.5-1.5
					c0.1,0,0.2-0.2,0.2-0.2c-0.2,0.1-0.5,0.2-0.7,0.3c0,0.2,0.1,0.4,0.1,0.6c0,0-0.2-0.2-0.4-0.2c-0.3,0-0.7,0.6-0.6,1c0,0,0,0,0,0
					c0-0.1-0.1-0.3-0.3-0.2c-0.1,0.2,0-0.4-0.1-0.2c-0.1,0.2-0.4,0.2-0.7,0.2c-0.3-0.1-0.3,0.1-0.7,0.2c-0.4,0.1-0.5,0.2-0.9,0.3
					c-0.4,0.1-0.5,0.2-0.6,0.5c-0.1,0.3,0.5,0.3,0.1,0.4c-0.3,0.1-0.5,0.3-0.4,0.3c0.1,0,1.5-0.2,1.5-0.2c0,0-0.4,0.1-0.9,0.3
					c-0.5,0.1-1,0.3-1,0.7C32.2,53,33,52.6,33,52.6z"/>
				<path class="st4" d="M80.3,49.9c0.4,0.1,0.4,0,0.8-0.1c0.4-0.1,0.4-0.1,0.9-0.2c0.5-0.1,0.1-0.8,0.3-1c0,0,0.3,0.2-0.1-0.1
					c-0.3-0.3-0.5-0.4,0.2-0.3c0.8,0.1,0-0.3-0.2-0.5c-0.2-0.1-0.3-0.1-0.8-0.1c-0.5,0-0.3,0.5-0.3,0.5s-0.2,0.1-0.5-0.1
					c-0.4-0.2-0.5-0.1-0.5,0.4c0,0.5,0.1,0.3,0.4,0.3c0.3,0,0,0.2-0.3,0.2c-0.3,0-0.4,0.3-0.4,0.5C79.8,49.8,79.9,49.8,80.3,49.9z"
					/>
				<path class="st4" d="M90.3,34c0.3,0,0.5-0.4,0.8-0.4c0.3,0,0,0.4,0,0.4c-0.9,0.2-0.9,0.1-0.2,0.6c0.7,0.5,0.5,0,0.9,0.2
					c0.4,0.2,0.2,0,0.5-0.6c0.3-0.6,0.1-0.4,0.6-0.5c0.5-0.1,0.4,0.4,0.6,0.5c0,0,0.5,0.2,0.9,0.2c0.5,0,0.6-0.2,0.3-0.2
					c-0.2,0-0.6,0-1-0.4c-0.4-0.4-1.5-0.6-1.5-0.6s0.3,0,0.5,0.1c0.2,0.1,0.8,0.1,1.2,0.1c0.4,0,0.5,0,1-0.2
					c0.5-0.2,0.2-0.5,0.2-0.5s-0.9,0-1.3,0c-0.4,0-0.8,0-1.4,0c-0.5,0-0.7,0.2-1.5,0.2c-0.8,0-0.9,0-1.3,0c-0.4,0-0.4,0.3-0.3,0.7
					C89.5,34,90,34,90.3,34z"/>
			</g>
		</g>
		<path class="st5" d="M27.3,63.5c2.8-17.8,22.4-38.3,47.8-38.3c24.3,0,46,18.9,48.7,44.5c2,19.2-24.7,25.8-48.8,25.8
			C51,95.5,24.3,82.6,27.3,63.5z"/>
	</g>
</g>
</svg>
