<?xml version="1.0" encoding="utf-8"?>
<!-- Generator: Adobe Illustrator 19.0.0, SVG Export Plug-In . SVG Version: 6.00 Build 0)  -->
<svg version="1.1" id="Layer_1" xmlns="http://www.w3.org/2000/svg" xmlns:xlink="http://www.w3.org/1999/xlink" x="0px" y="0px"
	 width="72.6px" height="92.9px" viewBox="-447.3 450 72.6 92.9" style="enable-background:new -447.3 450 72.6 92.9;"
	 xml:space="preserve">
<style type="text/css">
	.st0{display:none;}
	.st1{display:inline;}
	.st2{fill:#C09F80;}
</style>
<g class="st0">
	<ellipse class="st1" cx="144.3" cy="555" rx="887.8" ry="300.3"/>
</g>
<path class="st2" d="M-395.8,476.5V475h-1.5c1.8-5.3,6.2-10.2,7.5-11.6l-1.2-1.1c0,0-2.1-1.5-2.7-2c-0.8-0.6-1.8-1.3-3.7-1.3
	c-1.9,0-3,0.8-3.7,1.3c-0.6,0.5-1,0.7-1.9,0.7c-0.9,0-1.3-0.3-2-0.8c-0.8-0.6-1.8-1.3-3.7-1.3c-1.9,0-3,0.8-3.7,1.3
	c-0.6,0.5-1,0.7-1.9,0.7c-0.9,0-1.3-0.3-2-0.8c-0.8-0.6-1.8-1.3-3.7-1.3c-1.9,0-3,0.8-3.7,1.3c-0.6,0.5-2.4,2-2.4,2l-1.2,1.2
	c1.3,1.4,5.7,6.3,7.5,11.6h-1.5v1.5v0.5h25.8L-395.8,476.5L-395.8,476.5z"/>
<polygon class="st2" points="-437,467.4 -434,467.4 -434,463.6 -430.2,463.6 -430.2,460.6 -434,460.6 -434,456.8 -437,456.8 
	-437,460.6 -440.8,460.6 -440.8,463.6 -437,463.6 "/>
<polygon class="st2" points="-440.5,500.4 -440.5,496.6 -436.7,496.6 -436.7,493.6 -440.5,493.6 -440.5,489.8 -443.5,489.8 
	-443.5,493.6 -447.3,493.6 -447.3,496.6 -443.5,496.6 -443.5,500.4 "/>
<polygon class="st2" points="-383.3,485.5 -380.3,485.5 -380.3,481.7 -376.5,481.7 -376.5,478.7 -380.3,478.7 -380.3,474.9 
	-383.3,474.9 -383.3,478.7 -387.1,478.7 -387.1,481.7 -383.3,481.7 "/>
<g>
	<g>
		<g>
			<path class="st2" d="M-406.5,515.3v11.2c3.5-0.5,6.2-2.8,6.2-5.6C-400.3,518.1-403,515.7-406.5,515.3z"/>
			<path class="st2" d="M-415.2,506.9c0,2.7,2.4,4.9,5.6,5.5v-11C-412.8,502.1-415.2,504.3-415.2,506.9z"/>
			<path class="st2" d="M-385.2,500.7l-10.6-15.3h0v-1.7v-0.3h-25.8v0.3v1.7h0l-10.6,15.2c-0.4,0.5-10.3,13.4-10.5,23.7
				c-0.2,7.1,5,14.7,11.7,17.2c4.1,1.6,15.5,1.8,22.2,1.5c1.7,0.1,3.7,0.1,5.7,0.1c6.2,0,13.4-0.4,16.5-1.6
				c6.7-2.5,11.9-10.1,11.7-17.2C-374.9,514-384.8,501.1-385.2,500.7z M-406.5,529.1v2.6c0,0.7-0.7,1.3-1.5,1.3s-1.5-0.6-1.5-1.3
				V529c-4.9-0.7-8.7-4.1-8.7-8.1c0-0.7,0.7-1.3,1.5-1.3s1.5,0.6,1.5,1.3c0,2.7,2.4,4.9,5.6,5.5v-11.3c-4.9-0.7-8.7-4.1-8.7-8.1
				c0-4.1,3.8-7.4,8.7-8.1v-2.7c0-0.7,0.7-1.3,1.5-1.3s1.5,0.6,1.5,1.3v2.6c2.6,0.2,5.1,1.3,6.8,2.9c0.6,0.5,0.5,1.3-0.1,1.8
				c-0.6,0.5-1.6,0.4-2.2-0.1c-1.2-1.1-2.8-1.8-4.5-2v11.4c5.2,0.5,9.3,4,9.3,8.2C-397.2,525.1-401.3,528.6-406.5,529.1z"/>
		</g>
	</g>
</g>
<polygon class="st2" points="-395.8,480.7 -395.8,479.5 -395.8,479.2 -421.6,479.2 -421.6,479.5 -421.6,480.7 -421.6,481.2 
	-395.8,481.2 "/>
</svg>
