<?xml version="1.0" encoding="utf-8"?>
<!-- Generator: Adobe Illustrator 17.1.0, SVG Export Plug-In . SVG Version: 6.00 Build 0)  -->
<!DOCTYPE svg PUBLIC "-//W3C//DTD SVG 1.1//EN" "http://www.w3.org/Graphics/SVG/1.1/DTD/svg11.dtd">
<svg version="1.1" id="xmas-elf" xmlns="http://www.w3.org/2000/svg" xmlns:xlink="http://www.w3.org/1999/xlink" x="0px" y="0px"
	 viewBox="0 0 79.9965 79.998" enable-background="new 0 0 79.9965 79.998" xml:space="preserve">
<circle id="xmas-elf-label" fill="#FFB8B8" cx="39.998" cy="39.999" r="39.999"/>
<g id="xmas-elf-xmas-elf">
	<g>
		<path fill="#F15B5B" d="M46.4965,62.7754H31.1591c-6.3979,0-11.6635,4.8076-12.4013,11.0078
			c6.1509,3.8789,13.4331,6.1328,21.2431,6.1328c6.8726,0,13.3404-1.7393,18.9839-4.7979
			C58.9018,68.2881,53.3432,62.7754,46.4965,62.7754z"/>
	</g>
	<g>
		<g>
			<g>
				<g>
					<path fill="#F7DDC4" d="M64.5678,38.706c-2.0429,4.5235-0.2187,5.1436-2.4961,8.2403
						c-0.9375,1.2773-3.541,1.6728-5.1181,1.3779C56.0688,42.2549,59.729,38.7651,64.5678,38.706z"/>
					<path fill="#ECC59A" d="M62.4839,41.0449c-1.2071,2.6689-0.1299,3.0342-1.4727,4.8603
						c-0.5537,0.754-2.0928,0.9864-3.0215,0.8125C57.4653,43.1377,59.6264,41.0791,62.4839,41.0449z"/>
				</g>
			</g>
			<g>
				<g>
					<path fill="#F7DDC4" d="M13.9673,38.706c2.0458,4.5235,0.2197,5.1436,2.4946,8.2403c0.9399,1.2773,3.5429,1.6728,5.1216,1.3779
						C22.4687,42.2549,18.809,38.7651,13.9673,38.706z"/>
					<path fill="#ECC59A" d="M16.0556,41.0449c1.2061,2.6689,0.1289,3.0342,1.4702,4.8603c0.5533,0.754,2.0914,0.9864,3.023,0.8125
						C21.0698,43.1377,18.9091,41.0791,16.0556,41.0449z"/>
				</g>
			</g>
		</g>
		<path fill="#F7DDC4" d="M58.3676,42.4238c-0.1718-0.0469-0.3632-0.0674-0.5468-0.0723c-0.002,0-0.002,0-0.002,0s0-0.0009,0-0.0029
			c0.0518,0,0.0947,0,0.1485,0.0029c0.1279-0.6943,0.2021-1.4023,0.2021-2.1206c0-5.1831-3.2666-9.5854-7.6719-12.6469
			c-3.4209-2.3741-7.5293-3.8409-11.5351-3.8409c-3.169,0-6.2022,0.7994-9.0806,2.3536c-5.436,2.9306-9.6118,8.1547-9.6118,14.1748
			c0,0.7231-0.0718,1.3955,0.0547,2.0957c-0.0484,0.0058-0.0987,0.0019-0.1441,0.0088c-0.0888,0.0117-0.1758,0.0263-0.2568,0.0478
			c-0.7061,0.1963-2.0781,1.6475-1.5313,3.4502c0.3921,1.292,1.7911,2.0176,2.9712,2.1533c0.187,0.9375,0.4571,1.8457,0.7842,2.7246
			c0.0938,0.2549,0.187,0.5108,0.294,0.7608c0.1352,0.3252,0.29,0.6445,0.4438,0.9609c0.0464,0.0928,0.0938,0.1865,0.1401,0.2774
			c0.1641,0.3193,0.3345,0.6308,0.5162,0.9384c0.102,0.1709,0.2163,0.336,0.3217,0.5059c2.2564,3.5234,5.687,6.2207,9.75,7.5215
			l-0.7368,4.2148l5.7984,1.3164l5.4209-1.3164l-0.7364-4.0742c4.1641-1.209,8.5635-3.876,10.9073-7.4023
			c0.0556-0.085,0.1113-0.1709,0.165-0.2549c0.3115-0.4873,0.6113-0.9834,0.875-1.5039c0.0019-0.0059,0.0068-0.0118,0.0107-0.0205
			c0.0967-0.1885,0.1817-0.3877,0.2725-0.5831c0.1445-0.3046,0.2783-0.6113,0.4023-0.9287
			c0.4024-1.0058,0.7266-2.0498,0.9454-3.1367c1.1777-0.1416,2.5664-0.8662,2.9609-2.1533
			C60.4477,44.0713,59.0727,42.6201,58.3676,42.4238z M20.7519,42.3535c0.1465,0,0.2818,0.0078,0.4116,0.0195
			c0,0.0049-0.0019,0.0059-0.0048,0.0117C21.0381,42.3691,20.8984,42.3584,20.7519,42.3535z"/>
		<g>
			<path fill="#7C4D46" d="M50.4458,28.7387c-3.4483-2.2944-7.6426-3.6728-11.6758-3.6728c-3.1929,0-6.4585,0.8667-9.3574,2.3657
				c-5.4756,2.8301-9.6592,7.9234-9.6592,13.7373c0,0.6983,0.0742,1.3906,0.2021,2.0694c0.3457-0.0459,0.4395,2.9111,0.4395,2.9111
				c0.6699-0.1846,13.4248-1.5957,20.5234-5.7529c2.3594-1.3819,4.1895-3.0645,4.9014-5.1031
				c0.3008,0.3267,1.0908,0.8853,2.1211,1.5703c3.1797,2.1148,8.6523,5.4312,9.0996,6.8716c0.0254,0.0752,0.0371,0.1475,0.0312,0.21
				c-0.2783,3.4932,0.3819,0.8408,0.6153-0.499c0-0.002,0.0039-0.0098,0.0039-0.0118c0.0097-0.0751,0.0205-0.1494,0.0351-0.2226
				c0.0518,0,0.0967,0,0.1485,0.0019c0.1279-0.6709,0.2041-1.3535,0.2041-2.0449C58.0786,36.1621,54.8842,31.6924,50.4458,28.7387z"
				/>
		</g>
		<g>
			<g>
				<g>
					<path fill="#F15B5B" d="M38.3803,39.8969c7.8028,1.858,13.7432-1.1723,18.6455,1.1753
						c1.6778-4.0219,2.4707-2.0112-0.1972-12.1128c-3.7481-14.1757,9.9189-12.3579,9.9189-12.3579
						C33.4033,3.9668,15.0835,30.1767,21.3886,41.6338C25.4941,37.373,31.542,38.2666,38.3803,39.8969z"/>
				</g>
				<path fill="#FCF9F5" d="M68.5962,17.0263c-0.3858,1.6065-2.1211,2.5704-3.8838,2.1495c-1.7598-0.418-2.8741-2.0606-2.4922-3.668
					c0.3838-1.6065,2.1191-2.5669,3.8769-2.1514C67.8598,13.7763,68.976,15.4179,68.5962,17.0263z"/>
			</g>
			<g>
				<g>
					<path fill="#DE3F40" d="M58.1284,42.3984l1.5596-7.9307l-6.2706,3.9014l-2.0781-4.834c0,0-2.5674,3.0293-3.9824,4.4624
						c-1.5869-1.6831-3.0625-3.4336-4.4307-5.2402c-1.2314,1.7754-2.5825,3.5088-4.0424,5.1792
						c-1.46-1.6704-2.8106-3.4038-4.0425-5.1792c-1.3682,1.8066-2.8467,3.5571-4.4302,5.2402
						c-1.4136-1.4331-3.9805-4.4624-3.9805-4.4624l-2.082,4.834l-6.0552-3.9014c0,0,0.8999,8.5704,1.2544,8.5118
						C31.5854,40.9267,42.8354,40.3901,58.1284,42.3984z"/>
				</g>
			</g>
		</g>
		<g>
			<path opacity="0.2" fill="#ECC59A" d="M34.3584,53.4394c0,1.9961-1.6216,3.6192-3.6211,3.6192
				c-2.003,0-3.6216-1.6231-3.6216-3.6192c0-2.0019,1.6186-3.622,3.6216-3.622C32.7368,49.8174,34.3584,51.4375,34.3584,53.4394z"/>
			<path opacity="0.2" fill="#ECC59A" d="M51.1743,53.4394c0,1.9961-1.6201,3.6192-3.6211,3.6192
				c-2.002,0-3.6172-1.6231-3.6172-3.6192c0-2.0029,1.6152-3.622,3.6172-3.622C49.5542,49.8174,51.1743,51.4365,51.1743,53.4394z"/>
			<path fill="#ECC59A" d="M36.9917,51.5176c1.1679-1.2159,3.0908-1.253,4.3086-0.0899"/>
			<g>
				<path fill="#7C4D46" d="M29.5869,47.4853l-1.521-0.1914l1.6284,1.1446l0.0093-0.0059l0.0039,0.0068
					c2.7641-2.4609,4.354,0.0987,4.354,0.0987C32.9018,45.9873,30.665,46.6299,29.5869,47.4853z"/>
				<path fill="#7C4D46" d="M48.7046,47.4853c-1.0772-0.8554-3.3125-1.497-4.4737,1.0528c0,0,1.5947-2.5596,4.3516-0.0987
					l0.0039-0.0068l0.0088,0.0059l1.6299-1.1446L48.7046,47.4853z"/>
			</g>
			<path fill="#FCF9F5" d="M43.3247,56.3076l-8.3574,0.0049c0,0,0.5478,1.7373,2.1005,2.6416
				c0.4229,0.3506,0.9038,0.498,1.5982,0.6123c1.208,0.2012,2.4136-0.249,2.812-0.7158c-0.0127-0.0069-0.0264-0.0176-0.041-0.0274
				C42.8725,57.8906,43.3247,56.3076,43.3247,56.3076z"/>
		</g>
		<path opacity="0.8" fill="#ECC59A" d="M44.3608,66.4209l-1.0215-4.503c0,0-3.5107,1.4766-4.8642,1.4766
			c-1.2979,0-4.8614-1.6777-4.8614-1.6777l6.9405,5.0576L44.3608,66.4209z"/>
	</g>
	<polygon fill="#FCF9F5" points="48.4096,62.1631 45.1264,62.1631 38.8198,67.1133 31.9775,62.1631 29.2451,62.1631 
		32.9965,70.7304 38.8271,67.3935 44.6557,70.7304 	"/>
	<circle fill="#FCF9F5" cx="38.7702" cy="67.4219" r="1.3205"/>
	<circle fill="#FCF9F5" cx="38.7702" cy="72.7041" r="1.3205"/>
	<circle fill="#FCF9F5" cx="38.7702" cy="77.9863" r="1.3205"/>
</g>
</svg>
